<?xml version="1.0" encoding="UTF-8"?>
<svg version="1.1" xmlns="http://www.w3.org/2000/svg" width="500" height="500">
<path d="M0 0 C9.19030883 7.3567535 16.77770069 16.10021573 19.40185547 27.82226562 C19.61276656 30.64311783 19.59409141 33.4332702 19.52685547 36.25976562 C19.51783203 36.99130859 19.50880859 37.72285156 19.49951172 38.4765625 C19.476217 40.2586086 19.44035737 42.04048321 19.40185547 43.82226562 C20.06185547 43.82226562 20.72185547 43.82226562 21.40185547 43.82226562 C24.56323131 51.50474886 24.99205322 57.86429635 22.40185547 65.82226562 C20.76975 68.8950896 18.78656003 71.30159107 16.40185547 73.82226562 C15.73154297 74.54671875 15.06123047 75.27117187 14.37060547 76.01757812 C7.17445484 83.50909315 7.17445484 83.50909315 2.2512207 84.06518555 C1.49526611 84.06107666 0.73931152 84.05696777 -0.03955078 84.05273438 C-0.87035156 84.05080078 -1.70115234 84.04886719 -2.55712891 84.046875 C-3.41628906 84.03462891 -4.27544922 84.02238281 -5.16064453 84.00976562 C-6.02367187 84.00912109 -6.88669922 84.00847656 -7.77587891 84.0078125 C-14.1757673 83.96305804 -14.1757673 83.96305804 -17.59814453 82.82226562 C-19.77889624 83.23259127 -21.94482063 83.72381664 -24.09814453 84.25976562 C-39.13112588 87.62443701 -52.45900804 86.04715815 -65.59814453 77.82226562 C-65.59814453 77.16226563 -65.59814453 76.50226563 -65.59814453 75.82226562 C-66.43345703 75.54382813 -66.43345703 75.54382813 -67.28564453 75.25976562 C-72.19736016 72.20653699 -74.10752044 68.63290214 -75.58251953 63.18945312 C-77.95114108 52.1256379 -78.58398988 41.82173461 -75.59814453 30.82226562 C-75.44990234 30.05527344 -75.30166016 29.28828125 -75.14892578 28.49804688 C-73.28006778 20.26711909 -68.21281903 13.94484653 -62.59814453 7.82226562 C-61.60814453 7.49226563 -60.61814453 7.16226563 -59.59814453 6.82226562 C-59.59814453 6.16226563 -59.59814453 5.50226563 -59.59814453 4.82226562 C-41.47029321 -9.73787028 -19.69538123 -14.51428644 0 0 Z " fill="#FDFCFB" transform="translate(329.59814453125,174.177734375)"/>
<path d="M0 0 C0 0.66 0 1.32 0 2 C0.5878125 2.23847656 1.175625 2.47695312 1.78125 2.72265625 C8.14649507 6.38715473 12.04595834 14.98423189 14.28125 21.73828125 C15.19479142 25.88397192 15.60251183 29.95571547 15.875 34.1875 C15.92446777 34.93580078 15.97393555 35.68410156 16.02490234 36.45507812 C16.32644058 43.68561412 14.88140658 49.84865266 11.5 56.3125 C11.0771875 57.13363281 10.654375 57.95476562 10.21875 58.80078125 C9 61 9 61 7 64 C6.34 64 5.68 64 5 64 C4.75121094 64.58910156 4.50242187 65.17820312 4.24609375 65.78515625 C0.1598866 73.04810124 -9.3864472 77.48567492 -17 80 C-21.06453661 80.93606975 -25.15621352 81.7354474 -29.27490234 82.39331055 C-34.96273961 83.399494 -37.80078064 85.04001652 -42 89 C-47.16117899 91.35619041 -52.67598956 92.21213915 -58.078125 90.2421875 C-60.12049769 89.25218242 -62.05562645 88.16985131 -64 87 C-65.0725 86.38125 -66.145 85.7625 -67.25 85.125 C-73.99639714 79.91187494 -76.52896823 72.22482545 -78 64 C-77.77538767 59.17357417 -77.18036879 54.36073757 -75 50 C-74.86768632 47.91826477 -74.76928433 45.83433198 -74.6875 43.75 C-73.79860499 30.99174215 -70.9359017 21.33957693 -62 12 C-61.46503906 11.41605469 -60.93007812 10.83210938 -60.37890625 10.23046875 C-59 9 -59 9 -57 9 C-57 8.34 -57 7.68 -57 7 C-54.4385343 4.70351351 -53.52032428 4 -50 4 C-50 3.34 -50 2.68 -50 2 C-32.7990428 -7.26968011 -17.915702 -10.72973361 0 0 Z " fill="#FDFCFA" transform="translate(206,175)"/>
<path d="M0 0 C1.3828125 1.84765625 1.3828125 1.84765625 2.75 4.1875 C6.26333482 10.04922178 10.44906894 12.30282512 17 14 C25.17480416 14.96671048 32.42902509 13.91218855 40.2890625 11.66796875 C43.98052807 10.75840014 47.21920272 10.78187708 51 11 C51.495 13.475 51.495 13.475 52 16 C43.21913705 22.58564721 34.66485903 22.26961722 24 22 C23.79375 23.299375 23.5875 24.59875 23.375 25.9375 C22.1863571 31.36391322 19.64210914 35.8135539 16 40 C15.34 40 14.68 40 14 40 C14 40.66 14 41.32 14 42 C13.34 42 12.68 42 12 42 C11.79375 42.5775 11.5875 43.155 11.375 43.75 C8.88706042 47.82117386 5.21920653 49.58716271 0.79296875 51.0859375 C-5.94630302 52.71002565 -15.08931707 53.91901933 -21.5234375 50.76171875 C-26.59711176 46.44802523 -28.62219104 42.03202676 -29.23828125 35.45703125 C-29.45778519 27.63575922 -27.45941507 21.91883015 -24 15 C-23.34 15 -22.68 15 -22 15 C-21.773125 14.278125 -21.54625 13.55625 -21.3125 12.8125 C-17.87018563 5.43611207 -8.40119731 -2.17808819 0 0 Z " fill="#8D4130" transform="translate(199,268)"/>
<path d="M0 0 C9.19030883 7.3567535 16.77770069 16.10021573 19.40185547 27.82226562 C19.61276656 30.64311783 19.59409141 33.4332702 19.52685547 36.25976562 C19.51783203 36.99130859 19.50880859 37.72285156 19.49951172 38.4765625 C19.476217 40.2586086 19.44035737 42.04048321 19.40185547 43.82226562 C20.06185547 43.82226562 20.72185547 43.82226562 21.40185547 43.82226562 C24.56323131 51.50474886 24.99205322 57.86429635 22.40185547 65.82226562 C20.76975 68.8950896 18.78656003 71.30159107 16.40185547 73.82226562 C15.73154297 74.54671875 15.06123047 75.27117187 14.37060547 76.01757812 C7.17445484 83.50909315 7.17445484 83.50909315 2.2512207 84.06518555 C1.49526611 84.06107666 0.73931152 84.05696777 -0.03955078 84.05273438 C-0.87035156 84.05080078 -1.70115234 84.04886719 -2.55712891 84.046875 C-3.41628906 84.03462891 -4.27544922 84.02238281 -5.16064453 84.00976562 C-6.02367187 84.00912109 -6.88669922 84.00847656 -7.77587891 84.0078125 C-14.1757673 83.96305804 -14.1757673 83.96305804 -17.59814453 82.82226562 C-19.77889624 83.23259127 -21.94482063 83.72381664 -24.09814453 84.25976562 C-39.13112588 87.62443701 -52.45900804 86.04715815 -65.59814453 77.82226562 C-65.59814453 77.16226563 -65.59814453 76.50226563 -65.59814453 75.82226562 C-66.43345703 75.54382813 -66.43345703 75.54382813 -67.28564453 75.25976562 C-72.19736016 72.20653699 -74.10752044 68.63290214 -75.58251953 63.18945312 C-77.95114108 52.1256379 -78.58398988 41.82173461 -75.59814453 30.82226562 C-75.44990234 30.05527344 -75.30166016 29.28828125 -75.14892578 28.49804688 C-73.28006778 20.26711909 -68.21281903 13.94484653 -62.59814453 7.82226562 C-61.60814453 7.49226563 -60.61814453 7.16226563 -59.59814453 6.82226562 C-59.59814453 6.16226563 -59.59814453 5.50226563 -59.59814453 4.82226562 C-41.47029321 -9.73787028 -19.69538123 -14.51428644 0 0 Z M-62.03564453 16.69726562 C-71.02597037 28.01466938 -73.45196337 38.58178706 -72.59814453 52.82226562 C-71.07645661 61.84050432 -67.79157922 68.58958043 -60.65673828 74.43554688 C-55.3494529 78.01066321 -48.96972589 80.30213653 -42.59814453 80.82226562 C-41.85693359 80.89703125 -41.11572266 80.97179687 -40.35205078 81.04882812 C-25.72015266 81.87499771 -11.91444027 75.24824966 -0.91064453 66.07226562 C6.64658386 59.04911698 13.43323198 49.77969149 14.71044922 39.28710938 C14.77696318 36.75566619 14.65655172 34.34092859 14.40185547 31.82226562 C14.33095703 31.07074219 14.26005859 30.31921875 14.18701172 29.54492188 C12.47981519 18.63037328 3.86544027 10.23370433 -4.59814453 3.82226562 C-6.54739951 2.72564573 -8.52853947 1.6840277 -10.53564453 0.69726562 C-11.53466797 0.1996875 -12.53369141 -0.29789063 -13.56298828 -0.81054688 C-32.0019756 -9.11639702 -49.92837528 2.55773719 -62.03564453 16.69726562 Z " fill="#853E2E" transform="translate(329.59814453125,174.177734375)"/>
<path d="M0 0 C0 0.66 0 1.32 0 2 C0.5878125 2.23847656 1.175625 2.47695312 1.78125 2.72265625 C8.14649507 6.38715473 12.04595834 14.98423189 14.28125 21.73828125 C15.19479142 25.88397192 15.60251183 29.95571547 15.875 34.1875 C15.92446777 34.93580078 15.97393555 35.68410156 16.02490234 36.45507812 C16.32644058 43.68561412 14.88140658 49.84865266 11.5 56.3125 C11.0771875 57.13363281 10.654375 57.95476562 10.21875 58.80078125 C9 61 9 61 7 64 C6.34 64 5.68 64 5 64 C4.75121094 64.58910156 4.50242187 65.17820312 4.24609375 65.78515625 C0.1598866 73.04810124 -9.3864472 77.48567492 -17 80 C-21.06453661 80.93606975 -25.15621352 81.7354474 -29.27490234 82.39331055 C-34.96273961 83.399494 -37.80078064 85.04001652 -42 89 C-47.16117899 91.35619041 -52.67598956 92.21213915 -58.078125 90.2421875 C-60.12049769 89.25218242 -62.05562645 88.16985131 -64 87 C-65.0725 86.38125 -66.145 85.7625 -67.25 85.125 C-73.99639714 79.91187494 -76.52896823 72.22482545 -78 64 C-77.77538767 59.17357417 -77.18036879 54.36073757 -75 50 C-74.86768632 47.91826477 -74.76928433 45.83433198 -74.6875 43.75 C-73.79860499 30.99174215 -70.9359017 21.33957693 -62 12 C-61.46503906 11.41605469 -60.93007812 10.83210938 -60.37890625 10.23046875 C-59 9 -59 9 -57 9 C-57 8.34 -57 7.68 -57 7 C-54.4385343 4.70351351 -53.52032428 4 -50 4 C-50 3.34 -50 2.68 -50 2 C-32.7990428 -7.26968011 -17.915702 -10.72973361 0 0 Z M-60.890625 18.6640625 C-62.35498893 21.07386527 -63.71673925 23.48983793 -65 26 C-65.3609375 26.61230469 -65.721875 27.22460938 -66.09375 27.85546875 C-69.80867705 36.64639526 -69.40510723 49.91962917 -66.4375 59 C-62.89551179 67.19084773 -57.67424094 72.75989611 -49.35546875 76.15625 C-38.9057018 78.78389803 -26.98983422 77.94798249 -17 74 C-16.16339844 73.67128906 -15.32679688 73.34257812 -14.46484375 73.00390625 C-3.89109038 68.28085413 4.24739381 60.38997318 8.9609375 49.8515625 C12.98206802 39.33759738 10.94976952 29.10830366 7.19140625 18.77734375 C2.85353221 9.07978535 -4.10675381 3.04684315 -13.83984375 -0.96484375 C-30.25045085 -6.34038254 -51.45000142 5.36136563 -60.890625 18.6640625 Z " fill="#8E4330" transform="translate(206,175)"/>
<path d="M0 0 C2.6465335 2.6465335 3.59941997 5.56221264 5 9 C4.34 9.763125 3.68 10.52625 3 11.3125 C0.70149462 13.84277939 0.70149462 13.84277939 1 17 C4.79588866 16.45773019 6.47211993 14.79872437 9 12 C9.66 12.474375 10.32 12.94875 11 13.4375 C14.7933028 15.41317854 17.75524068 15.64027463 22 16 C21.33604473 17.33468559 20.66835818 18.66751376 20 20 C19.14148438 21.71316406 19.14148438 21.71316406 18.265625 23.4609375 C17.5945754 24.76604972 16.92267688 26.07072575 16.25 27.375 C15.76660156 28.34566406 15.76660156 28.34566406 15.2734375 29.3359375 C12.4414979 34.7802865 9.05934244 39.98021919 3 42 C0.56637528 42.17241708 -1.87320596 42.26665768 -4.3125 42.3125 C-5.60800781 42.34988281 -6.90351563 42.38726562 -8.23828125 42.42578125 C-12.56177855 41.93641343 -14.65700251 40.72598434 -18 38 C-20.47375975 33.05248051 -19.63413072 25.75075621 -18.421875 20.4921875 C-15.05537351 11.95351553 -7.94064021 4.4793355 0 0 Z " fill="#FCADA7" transform="translate(195,272)"/>
<path d="M0 0 C9.19030883 7.3567535 16.77770069 16.10021573 19.40185547 27.82226562 C19.61276656 30.64311783 19.59409141 33.4332702 19.52685547 36.25976562 C19.51783203 36.99130859 19.50880859 37.72285156 19.49951172 38.4765625 C19.476217 40.2586086 19.44035737 42.04048321 19.40185547 43.82226562 C19.07185547 43.82226562 18.74185547 43.82226562 18.40185547 43.82226562 C18.40185547 38.87226563 18.40185547 33.92226562 18.40185547 28.82226562 C17.74185547 28.82226562 17.08185547 28.82226562 16.40185547 28.82226562 C16.17498047 28.26539063 15.94810547 27.70851562 15.71435547 27.13476562 C14.37857117 24.7812409 12.82496924 23.2723786 10.87060547 21.43164062 C9.03829964 19.42390126 7.68311838 17.23354752 6.21435547 14.94726562 C-0.71155449 4.90171087 -11.34025312 0.5748961 -22.59814453 -3.17773438 C-33.57136105 -3.93405039 -44.06687399 1.67886636 -52.35205078 8.50195312 C-55.23006976 10.19372776 -57.31728079 10.0576217 -60.59814453 9.82226562 C-60.26814453 11.14226562 -59.93814453 12.46226562 -59.59814453 13.82226562 C-61.90814453 14.15226562 -64.21814453 14.48226562 -66.59814453 14.82226562 C-66.92814453 16.80226562 -67.25814453 18.78226563 -67.59814453 20.82226562 C-68.58814453 21.15226562 -69.57814453 21.48226562 -70.59814453 21.82226562 C-71.25814453 22.48226562 -71.91814453 23.14226562 -72.59814453 23.82226562 C-71.97808703 19.91682881 -70.08430652 17.36165745 -67.78564453 14.19726562 C-67.09857422 13.235625 -66.41150391 12.27398437 -65.70361328 11.28320312 C-63.71514462 8.95901897 -62.41399358 7.89798324 -59.59814453 6.82226562 C-59.59814453 6.16226563 -59.59814453 5.50226563 -59.59814453 4.82226562 C-41.47029321 -9.73787028 -19.69538123 -14.51428644 0 0 Z " fill="#974534" transform="translate(329.59814453125,174.177734375)"/>
<path d="M0 0 C1.82915577 6.7397355 2.70646434 12.40149622 0 19 C-4.00492744 25.89737503 -10.54334783 33.85596383 -18 37 C-20.16650391 37.24291992 -20.16650391 37.24291992 -22.4765625 37.23046875 C-23.72953125 37.22756836 -23.72953125 37.22756836 -25.0078125 37.22460938 C-26.30332031 37.20624023 -26.30332031 37.20624023 -27.625 37.1875 C-28.49640625 37.18685547 -29.3678125 37.18621094 -30.265625 37.18554688 C-36.71881132 37.14059434 -36.71881132 37.14059434 -39 36 C-39 35.34 -39 34.68 -39 34 C-38.45472656 33.72027344 -37.90945313 33.44054687 -37.34765625 33.15234375 C-25.57248208 26.89237936 -15.84976369 18.97541522 -9.359375 7.234375 C-7.27457171 3.80762937 -4.32590829 0 0 0 Z " fill="#EB6262" transform="translate(352,221)"/>
<path d="M0 0 C2.4375 2.5625 2.4375 2.5625 4 5 C1.42215154 7.64752004 -0.91648098 9.94432065 -4 12 C-4.33 13.65 -4.66 15.3 -5 17 C-1.7 17.66 1.6 18.32 5 19 C4.69750921 22.32739873 4.28765829 24.5627594 2.4375 27.375 C-0.39008969 29.26005979 -2.57806597 29.63750924 -5.96875 29.44140625 C-9.71420196 28.62749073 -11.52227722 26.83168318 -14 24 C-16.67530822 17.85193591 -16.81520373 11.05917498 -14.875 4.6875 C-13.62334848 1.66949914 -13.22011189 1.12506357 -10.25 -0.5625 C-6.43971594 -1.07542285 -3.71637955 -1.03232765 0 0 Z " fill="#9C4731" transform="translate(162,203)"/>
<path d="M0 0 C3 1 3 1 4.39453125 3.2578125 C5.09642578 4.67707031 5.09642578 4.67707031 5.8125 6.125 C10.05342602 14.15879352 14.19648376 19.94773755 23 23 C27.30626433 24.14701874 31.63165672 25.1210041 36 26 C35.6484375 28.390625 35.6484375 28.390625 35 31 C30.03769374 34.65643619 25.09130902 35.76141363 19 35 C12.61008801 33.05013715 9.31327003 29.69468287 6 24 C6 23.01 6 22.02 6 21 C4.68 20.67 3.36 20.34 2 20 C2.33 17.69 2.66 15.38 3 13 C2.01 13 1.02 13 0 13 C0 8.71 0 4.42 0 0 Z " fill="#E96161" transform="translate(131,231)"/>
<path d="M0 0 C3.75 0.375 3.75 0.375 6.5625 2.6875 C11.08706527 8.24625162 11.35669906 11.89977021 11.26171875 18.96484375 C10.72401671 22.54815583 10.25521508 23.84042107 7.625 26.25 C4.28820178 28.44082711 1.75025021 29.17505004 -2.25 28.375 C-4.625 26.875 -4.625 26.875 -6.25 25.375 C-5.74933555 21.03590813 -2.9579082 18.62448984 -0.25 15.375 C0.08 14.055 0.41 12.735 0.75 11.375 C-2.55 11.705 -5.85 12.035 -9.25 12.375 C-9.5625 9.6875 -9.5625 9.6875 -9.25 6.375 C-6.8125 3.5625 -6.8125 3.5625 -4.25 1.375 C-3.25 0.375 -3.25 0.375 0 0 Z " fill="#945041" transform="translate(316.25,180.625)"/>
<path d="M0 0 C0.33 0 0.66 0 1 0 C0.97905273 0.57854736 0.95810547 1.15709473 0.93652344 1.75317383 C0.22537336 19.78300003 0.22537336 19.78300003 7.5625 35.875 C14.25080814 42.66142513 21.34854964 44.23951126 30.62890625 44.33618164 C35.08955214 44.30164439 39.54338568 44.19166331 44 44 C43.505 44.99 43.505 44.99 43 46 C32.605 46.495 32.605 46.495 22 47 C22 47.66 22 48.32 22 49 C13.50256145 47.85914019 7.83746797 44.4089189 2.1875 38 C-0.77046 33.94336914 -3.04519536 29.96498415 -4 25 C-4.66 25 -5.32 25 -6 25 C-6.33 28.96 -6.66 32.92 -7 37 C-6.01 37 -5.02 37 -4 37 C-4.33 39.31 -4.66 41.62 -5 44 C-4.360625 44.103125 -3.72125 44.20625 -3.0625 44.3125 C-2.381875 44.539375 -1.70125 44.76625 -1 45 C-0.67 45.99 -0.34 46.98 0 48 C0.66 48.66 1.32 49.32 2 50 C2 50.66 2 51.32 2 52 C-1.03308855 51.78335082 -1.958497 51.04669087 -4 48.75 C-9.05517272 40.29775121 -10.74646433 31.954482 -8.67578125 22.36328125 C-8 20 -8 20 -7 18 C-6.47880089 14.95602203 -6.03959364 11.90408036 -5.59765625 8.84765625 C-5 6 -5 6 -3 3 C-3 5.64 -3 8.28 -3 11 C-2.34 11 -1.68 11 -1 11 C-1.01160156 10.37351563 -1.02320313 9.74703125 -1.03515625 9.1015625 C-1.04417969 8.28429687 -1.05320313 7.46703125 -1.0625 6.625 C-1.07410156 5.81289062 -1.08570313 5.00078125 -1.09765625 4.1640625 C-1 2 -1 2 0 0 Z " fill="#9F4532" transform="translate(138,207)"/>
<path d="M0 0 C1.32 0.66 2.64 1.32 4 2 C4 2.99 4 3.98 4 5 C4.66 5 5.32 5 6 5 C6 9.95 6 14.9 6 20 C6.99 20 7.98 20 9 20 C8.8125 21.875 8.8125 21.875 8 24 C7.195625 24.28875 6.39125 24.5775 5.5625 24.875 C4.716875 25.24625 3.87125 25.6175 3 26 C2.31875294 27.99508067 1.65572791 29.99638693 1 32 C-5.82944325 42.37845167 -15.40346591 52.10771218 -27 57 C-29.140625 57.1953125 -29.140625 57.1953125 -31.25 57.125 C-32.4875 57.08375 -33.725 57.0425 -35 57 C-35 57.66 -35 58.32 -35 59 C-35.66 59 -36.32 59 -37 59 C-37.33 58.34 -37.66 57.68 -38 57 C-39.98 57 -41.96 57 -44 57 C-40.87665644 55.31250632 -37.76989758 54.27115653 -34.375 53.25 C-19.74951189 48.42821499 -8.84801561 39.09225379 -1.67578125 25.48828125 C2.13789324 16.96438424 1.33672594 9.02290009 0 0 Z " fill="#A14332" transform="translate(342,198)"/>
<path d="M0 0 C0.33 0.66 0.66 1.32 1 2 C1.99 1.67 2.98 1.34 4 1 C4.433125 1.721875 4.86625 2.44375 5.3125 3.1875 C10.99114078 9.1302636 17.81740852 11.31116066 25.9375 11.5 C31.65859127 11.29947982 36.80122475 10.23487148 42.2890625 8.66796875 C45.98052807 7.75840014 49.21920272 7.78187708 53 8 C53.495 10.475 53.495 10.475 54 13 C45.21913705 19.58564721 36.66485903 19.26961722 26 19 C25.690625 20.9490625 25.690625 20.9490625 25.375 22.9375 C24.1863571 28.36391322 21.64210914 32.8135539 18 37 C17.34 37 16.68 37 16 37 C15.67 37.66 15.34 38.32 15 39 C14.68436818 33.73946963 15.33409063 30.55426184 18 26 C18.66 26 19.32 26 20 26 C20.33 25.34 20.66 24.68 21 24 C21.66 24 22.32 24 23 24 C23.144375 22.700625 23.28875 21.40125 23.4375 20.0625 C23.875 16.125 23.875 16.125 25 15 C20.38 13.68 15.76 12.36 11 11 C11 10.34 11 9.68 11 9 C9.6696875 8.9071875 9.6696875 8.9071875 8.3125 8.8125 C4.20860192 7.80588349 2.63144967 6.2506143 0 3 C0 2.01 0 1.02 0 0 Z " fill="#602A1E" transform="translate(197,271)"/>
<path d="M0 0 C0.66 0.66 1.32 1.32 2 2 C1.35973877 1.99476318 0.71947754 1.98952637 0.05981445 1.98413086 C-2.85594695 1.96327571 -5.77169262 1.95031271 -8.6875 1.9375 C-9.69490234 1.92912109 -10.70230469 1.92074219 -11.74023438 1.91210938 C-12.71669922 1.90888672 -13.69316406 1.90566406 -14.69921875 1.90234375 C-15.59471436 1.89710693 -16.49020996 1.89187012 -17.4128418 1.88647461 C-20.03641759 2.00159802 -22.44293053 2.41765715 -25 3 C-25 3.66 -25 4.32 -25 5 C-25.66 5 -26.32 5 -27 5 C-27 5.66 -27 6.32 -27 7 C-26.34 7.33 -25.68 7.66 -25 8 C-25.76183594 8.3403125 -26.52367187 8.680625 -27.30859375 9.03125 C-38.880657 14.46332963 -46.05510544 20.67207592 -52 32 C-52.4021875 32.69222656 -52.804375 33.38445312 -53.21875 34.09765625 C-55.93724724 38.98124237 -56.74262782 43.44076097 -57 49 C-57.66 49 -58.32 49 -59 49 C-59.33 47.35 -59.66 45.7 -60 44 C-60.66 44.99 -61.32 45.98 -62 47 C-61.73235019 44.64468166 -61.39401824 42.33652817 -61 40 C-60.85046875 39.08089844 -60.7009375 38.16179687 -60.546875 37.21484375 C-58.91391584 29.10238638 -55.63559235 23.98781687 -50 18 C-49.46375 17.41347656 -48.9275 16.82695312 -48.375 16.22265625 C-47 15 -47 15 -45 15 C-45 14.34 -45 13.68 -45 13 C-42.4385343 10.70351351 -41.52032428 10 -38 10 C-38 9.34 -38 8.68 -38 8 C-25.12613586 1.06221154 -14.97837144 -2.49639524 0 0 Z " fill="#814031" transform="translate(194,169)"/>
<path d="M0 0 C0.66 0.33 1.32 0.66 2 1 C2 1.66 2 2.32 2 3 C4.97 3.99 7.94 4.98 11 6 C11 6.66 11 7.32 11 8 C11.99 8.12375 12.98 8.2475 14 8.375 C18.08880024 8.95194727 22.00861887 9.94963654 26 11 C25.01 14.3 24.02 17.6 23 21 C22.34 21 21.68 21 21 21 C20.690625 21.639375 20.38125 22.27875 20.0625 22.9375 C19 25 19 25 18 26 C16.5333496 29.2999634 15.60971316 32.44333987 15 36 C13.906875 36.2475 12.81375 36.495 11.6875 36.75 C7.96083793 37.59160346 7.96083793 37.59160346 6.625 40.09375 C6.08875 40.7228125 5.5525 41.351875 5 42 C2.30078125 42.171875 2.30078125 42.171875 -0.6875 41.75 C-1.68136719 41.62109375 -2.67523438 41.4921875 -3.69921875 41.359375 C-4.45847656 41.24078125 -5.21773437 41.1221875 -6 41 C-6 40.67 -6 40.34 -6 40 C-5.34773437 39.92523438 -4.69546875 39.85046875 -4.0234375 39.7734375 C1.05768605 39.00902068 5.02069278 38.22459234 8.5625 34.1796875 C11.25953459 30.09016223 13.31811624 25.67153035 15.38671875 21.2421875 C16.73521805 18.53212838 18.08580455 16.32479327 20 14 C18.205625 14.0928125 18.205625 14.0928125 16.375 14.1875 C12.26502405 14.20943937 9.5521739 13.13130434 6 11 C4.68 12.65 3.36 14.3 2 16 C0.68 15.67 -0.64 15.34 -2 15 C-1.46930939 11.17902761 -0.50298434 8.93828597 2 6 C1.34 5.01 0.68 4.02 0 3 C0 2.01 0 1.02 0 0 Z " fill="#A24631" transform="translate(197,274)"/>
<path d="M0 0 C3 -0.3125 3 -0.3125 6 0 C6.66 0.66 7.32 1.32 8 2 C9.30356648 2.3667176 10.61821325 2.69463164 11.9375 3 C21.73697816 6.15603161 28.41603861 14.81215022 33.66015625 23.26171875 C36.63386871 29.3391894 37.28262951 34.81099776 37.125 41.4375 C37.11597656 42.16904297 37.10695313 42.90058594 37.09765625 43.65429688 C37.07436153 45.43634298 37.0385019 47.21821759 37 49 C36.67 49 36.34 49 36 49 C36 44.05 36 39.1 36 34 C35.34 34 34.68 34 34 34 C33.773125 33.443125 33.54625 32.88625 33.3125 32.3125 C31.9767157 29.95897527 30.42311377 28.45011297 28.46875 26.609375 C26.63644417 24.60163563 25.28126292 22.4112819 23.8125 20.125 C17.43241161 10.8711218 8.28139388 6.83344067 -2 3 C-1.34 2.01 -0.68 1.02 0 0 Z " fill="#743528" transform="translate(312,169)"/>
<path d="M0 0 C0.66 0 1.32 0 2 0 C2.33 0.66 2.66 1.32 3 2 C3.99 2.33 4.98 2.66 6 3 C6.66 2.34 7.32 1.68 8 1 C8.51046875 1.39832031 9.0209375 1.79664063 9.546875 2.20703125 C21.4145738 10.85530112 33.92951528 10.39738817 48 10 C47.67 10.99 47.34 11.98 47 13 C47.66 13 48.32 13 49 13 C49 12.34 49 11.68 49 11 C50.98 11 52.96 11 55 11 C54.67 11.66 54.34 12.32 54 13 C41.30938014 16.89655652 26.16926838 18.20444502 13.796875 12.53125 C11.14642909 11.09049479 8.55664204 9.60041766 6 8 C6 7.34 6 6.68 6 6 C5.38125 5.7525 4.7625 5.505 4.125 5.25 C1.64931313 3.79371361 1.04874998 2.62187494 0 0 Z " fill="#79392A" transform="translate(258,244)"/>
<path d="M0 0 C3.5495991 6.18644415 5.88421472 10.79996587 5 18 C4.34 18.99 3.68 19.98 3 21 C2.34 21 1.68 21 1 21 C0.67 21.99 0.34 22.98 0 24 C-2.31 24 -4.62 24 -7 24 C-7 22.35 -7 20.7 -7 19 C-6.34 19 -5.68 19 -5 19 C-5 17.68 -5 16.36 -5 15 C-4.34 15 -3.68 15 -3 15 C-3 12.69 -3 10.38 -3 8 C-4.65 7.67 -6.3 7.34 -8 7 C-4.13157895 0 -4.13157895 0 0 0 Z " fill="#9F412A" transform="translate(321,183)"/>
<path d="M0 0 C0.66 0.33 1.32 0.66 2 1 C1.835 1.969375 1.67 2.93875 1.5 3.9375 C0.53737198 10.93070946 -0.00523353 16.84910565 4 23 C6.11457027 25.60797001 7.35456325 26.79534932 10.5625 27.8125 C13.1389527 28.16926965 13.1389527 28.16926965 16 27 C16.33 26.34 16.66 25.68 17 25 C17.90363281 25.11859375 18.80726563 25.2371875 19.73828125 25.359375 C20.91777344 25.48828125 22.09726563 25.6171875 23.3125 25.75 C24.48425781 25.88921875 25.65601563 26.0284375 26.86328125 26.171875 C27.89839844 26.11515625 28.93351562 26.0584375 30 26 C31.7595184 24.12644377 31.7595184 24.12644377 33 22 C36.1875 21.25 36.1875 21.25 39 21 C37.48397692 25.24486463 34.83910839 26.82691978 31 29 C23.55705313 31.52026703 12.87806272 33.39372428 5.4765625 29.76171875 C1.30274603 26.2130942 -1.20192976 22.47363325 -2 17 C-2.37484122 11.01125766 -2.42093486 5.59841186 0 0 Z " fill="#6B3023" transform="translate(172,289)"/>
<path d="M0 0 C0.33 1.65 0.66 3.3 1 5 C-4.08797467 8.58470943 -7.37677527 10.13934611 -13.546875 10.09765625 C-14.39121094 10.09443359 -15.23554688 10.09121094 -16.10546875 10.08789062 C-16.97816406 10.07951172 -17.85085937 10.07113281 -18.75 10.0625 C-20.08224609 10.05573242 -20.08224609 10.05573242 -21.44140625 10.04882812 C-23.62767329 10.037074 -25.81380179 10.02064249 -28 10 C-27.18359375 8.0625 -27.18359375 8.0625 -26 6 C-23.0625 5 -23.0625 5 -21.1875 4.5703125 C-18.54727063 3.88196699 -16.09769949 2.88203757 -13.5625 1.875 C-8.76084114 0.08432611 -5.08907964 -0.38408148 0 0 Z " fill="#944333" transform="translate(250,279)"/>
<path d="M0 0 C8.16937976 4.34276397 13.79715577 8.27006001 19 16 C18.01 16 17.02 16 16 16 C14.31763529 16.62599617 12.6476038 17.28752268 11 18 C10.67 20.31 10.34 22.62 10 25 C9.34 25 8.68 25 8 25 C7.97421875 24.27554688 7.9484375 23.55109375 7.921875 22.8046875 C7.56129894 16.65850466 7.08184118 12.70030197 3 8 C0.01002175 6.50501087 -2.70042775 6.88422554 -6 7 C-6.99 7.33 -7.98 7.66 -9 8 C-8.67 7.01 -8.34 6.02 -8 5 C-6.15234375 4.26953125 -6.15234375 4.26953125 -3.9375 3.8125 C-3.20402344 3.65394531 -2.47054688 3.49539062 -1.71484375 3.33203125 C-0.86599609 3.16767578 -0.86599609 3.16767578 0 3 C0 2.01 0 1.02 0 0 Z " fill="#F8EEE9" transform="translate(319,175)"/>
<path d="M0 0 C0.66 0.66 1.32 1.32 2 2 C1.01 2.66 0.02 3.32 -1 4 C-2.15317663 6.97903963 -2.0448029 7.86559131 -1 11 C1.97 11.33 4.94 11.66 8 12 C8.6875 14.3125 8.6875 14.3125 9 17 C7.8125 18.6875 7.8125 18.6875 6 20 C3.73828125 20.07421875 3.73828125 20.07421875 1.3125 19.6875 C0.50425781 19.56761719 -0.30398437 19.44773438 -1.13671875 19.32421875 C-1.75160156 19.21722656 -2.36648437 19.11023438 -3 19 C-3 18.34 -3 17.68 -3 17 C-3.99 16.67 -4.98 16.34 -6 16 C-7.9827714 12.34752637 -8.62632097 9.11582351 -8 5 C-5.6875 3.25 -5.6875 3.25 -3 2 C-2.01 1.34 -1.02 0.68 0 0 Z " fill="#9F4129" transform="translate(156,210)"/>
<path d="M0 0 C-0.99 0.33 -1.98 0.66 -3 1 C-3 1.66 -3 2.32 -3 3 C-4.1446875 3.12375 -4.1446875 3.12375 -5.3125 3.25 C-8.59282427 4.16543933 -9.3341214 5.08471245 -11 8 C-11.144375 8.680625 -11.28875 9.36125 -11.4375 10.0625 C-12 12 -12 12 -13.6875 13.75 C-16.60427292 15.32663401 -18.73290013 15.22275681 -22 15 C-21.67 16.32 -21.34 17.64 -21 19 C-23.31 19.33 -25.62 19.66 -28 20 C-28.33 21.98 -28.66 23.96 -29 26 C-29.99 26.33 -30.98 26.66 -32 27 C-32.66 27.66 -33.32 28.32 -34 29 C-33.3799425 25.09456319 -31.48616199 22.53939183 -29.1875 19.375 C-28.50042969 18.41335937 -27.81335938 17.45171875 -27.10546875 16.4609375 C-25.11700008 14.13675334 -23.81584905 13.07571761 -21 12 C-21 11.34 -21 10.68 -21 10 C-4.90135397 -2.45067698 -4.90135397 -2.45067698 0 0 Z " fill="#954633" transform="translate(291,169)"/>
<path d="M0 0 C1.65 0 3.3 0 5 0 C4.84144531 0.85335938 4.68289062 1.70671875 4.51953125 2.5859375 C4.00502736 5.96696305 3.76354265 9.20708321 3.6875 12.625 C3.65011719 13.73101562 3.61273438 14.83703125 3.57421875 15.9765625 C3.76074565 19.07408059 3.76074565 19.07408059 5.75390625 21.3203125 C8.01704409 23.01274602 9.50660997 23.70132199 12.25 24.25 C13.4875 24.4975 14.725 24.745 16 25 C15.67 25.99 15.34 26.98 15 28 C11.62361772 28.8637257 9.65074155 29.26339539 6.375 27.9375 C2.67310248 24.91753097 0.50436209 21.51308628 -1 17 C-1.38455821 11.2655584 -0.82473475 5.67005144 0 0 Z " fill="#9F4731" transform="translate(173,289)"/>
<path d="M0 0 C0.99 0.33 1.98 0.66 3 1 C2.63648438 1.47308594 2.27296875 1.94617188 1.8984375 2.43359375 C-2.65406429 8.42188457 -7.01481028 14.52591799 -10.75 21.0625 C-11.1625 21.701875 -11.575 22.34125 -12 23 C-12.66 23 -13.32 23 -14 23 C-14.99 25.475 -14.99 25.475 -16 28 C-16.66 28 -17.32 28 -18 28 C-17.26753005 21.99374645 -15.35601531 17.03402296 -12 12 C-11.01 12 -10.02 12 -9 12 C-8.67 10.02 -8.34 8.04 -8 6 C-4.535 5.505 -4.535 5.505 -1 5 C-1.33 3.68 -1.66 2.36 -2 1 C-1.34 0.67 -0.68 0.34 0 0 Z " fill="#984435" transform="translate(271,183)"/>
<path d="M0 0 C-0.33 0.66 -0.66 1.32 -1 2 C-0.34 2 0.32 2 1 2 C1 1.34 1 0.68 1 0 C2.98 0 4.96 0 7 0 C6.67 0.66 6.34 1.32 6 2 C-6.21504456 5.75053481 -18.61156651 6.22139041 -31 3 C-31.66 2.34 -32.32 1.68 -33 1 C-31.80117188 1.10828125 -31.80117188 1.10828125 -30.578125 1.21875 C-23.02039997 1.85743099 -15.58403987 2.09137397 -8 2 C-12.29 1.67 -16.58 1.34 -21 1 C-21 0.67 -21 0.34 -21 0 C-17.87549468 -0.19645093 -14.75038555 -0.38063489 -11.625 -0.5625 C-10.73554688 -0.61857422 -9.84609375 -0.67464844 -8.9296875 -0.73242188 C-7.65351563 -0.80493164 -7.65351563 -0.80493164 -6.3515625 -0.87890625 C-5.56604004 -0.9260376 -4.78051758 -0.97316895 -3.97119141 -1.02172852 C-2 -1 -2 -1 0 0 Z " fill="#6B3327" transform="translate(306,255)"/>
<path d="M0 0 C1.07511007 2.1160121 2.10615804 4.23654781 3.078125 6.40234375 C6.79051704 14.43348519 11.29941841 18.63627362 19.38330078 22.16650391 C24.06581068 23.6580218 28.69678281 23.41745023 33.5625 23.25 C34.57119141 23.23195312 35.57988281 23.21390625 36.61914062 23.1953125 C39.08045605 23.14865249 41.53969571 23.0832157 44 23 C43.67 23.66 43.34 24.32 43 25 C33.76 25 24.52 25 15 25 C14.67 24.01 14.34 23.02 14 22 C12.01751285 21.28293018 10.01584651 20.61709587 8 20 C5.57244264 17.57244264 4.42454809 15.10810492 3 12 C3 11.34 3 10.68 3 10 C2.34 10 1.68 10 1 10 C-0.1577506 6.52674819 -0.06866652 3.63932552 0 0 Z " fill="#9E594A" transform="translate(138,228)"/>
<path d="M0 0 C-0.99 1.175625 -0.99 1.175625 -2 2.375 C-4.20201441 4.71512812 -4.20201441 4.71512812 -4 7 C-3.01 7.33 -2.02 7.66 -1 8 C-1 10.31 -1 12.62 -1 15 C-2.32 15.33 -3.64 15.66 -5 16 C-4.01 13.69 -3.02 11.38 -2 9 C-5.3 9.33 -8.6 9.66 -12 10 C-12.22275681 6.73290013 -12.32663401 4.60427292 -10.75 1.6875 C-7.31446709 -1.62533531 -4.42913195 -1.10728299 0 0 Z " fill="#9C4B3A" transform="translate(319,183)"/>
<path d="M0 0 C1.07314453 -0.02416992 1.07314453 -0.02416992 2.16796875 -0.04882812 C7.35189583 -0.05367292 7.35189583 -0.05367292 9.8671875 1.70703125 C10.875 3.3125 10.875 3.3125 10.875 5.3125 C10.30265625 5.15136719 9.7303125 4.99023438 9.140625 4.82421875 C3.95854249 3.65378287 -1.26352828 3.94750471 -6.375 5.3125 C-9.54291103 6.15727627 -11.89172871 6.51457946 -15.125 6.3125 C-15.125 5.6525 -15.125 4.9925 -15.125 4.3125 C-14.465 4.3125 -13.805 4.3125 -13.125 4.3125 C-13.125 3.6525 -13.125 2.9925 -13.125 2.3125 C-8.78523927 0.17665697 -4.74752353 -0.02161896 0 0 Z " fill="#954835" transform="translate(182.125,169.6875)"/>
<path d="M0 0 C5.40359087 5.03092943 8.57931232 10.55357397 9.15966797 18.06713867 C9.19548988 20.19412583 9.1755877 22.31087107 9.125 24.4375 C9.11597656 25.16904297 9.10695313 25.90058594 9.09765625 26.65429688 C9.07436153 28.43634298 9.0385019 30.21821759 9 32 C8.67 32 8.34 32 8 32 C8 27.05 8 22.1 8 17 C7.34 17 6.68 17 6 17 C5.773125 16.443125 5.54625 15.88625 5.3125 15.3125 C4.00796402 12.77527615 4.00796402 12.77527615 1.375 10.375 C0.59125 9.59125 -0.1925 8.8075 -1 8 C-1 7.34 -1 6.68 -1 6 C-0.34 5.67 0.32 5.34 1 5 C0.34 4.67 -0.32 4.34 -1 4 C-0.67 2.68 -0.34 1.36 0 0 Z " fill="#672E23" transform="translate(340,186)"/>
<path d="M0 0 C0.33 1.32 0.66 2.64 1 4 C0.01 4.33 -0.98 4.66 -2 5 C-2 7.31 -2 9.62 -2 12 C-1.34 12 -0.68 12 0 12 C-0.66 16.29 -1.32 20.58 -2 25 C-2.66 25 -3.32 25 -4 25 C-4.33 23.35 -4.66 21.7 -5 20 C-5.66 20.99 -6.32 21.98 -7 23 C-6.49169427 18.52690961 -5.65016037 14.19761004 -4.625 9.8125 C-4.39039063 8.80832031 -4.15578125 7.80414063 -3.9140625 6.76953125 C-2.99381577 3.98126233 -1.89467006 2.21750491 0 0 Z " fill="#813423" transform="translate(139,193)"/>
<path d="M0 0 C0.58007812 0.20496094 1.16015625 0.40992188 1.7578125 0.62109375 C6.1621984 2.14009813 10.35677777 3.4047151 15 4 C15 4.33 15 4.66 15 5 C18.96 5.33 22.92 5.66 27 6 C26.67 6.66 26.34 7.32 26 8 C6.59528908 8.29550321 6.59528908 8.29550321 3.25390625 5.58203125 C2 4 2 4 2 2 C1.34 2 0.68 2 0 2 C0 1.34 0 0.68 0 0 Z " fill="#994836" transform="translate(272,250)"/>
<path d="M0 0 C3 0.25 3 0.25 5 2.25 C6.7634375 2.9615625 6.7634375 2.9615625 8.5625 3.6875 C9.696875 4.203125 10.83125 4.71875 12 5.25 C12.33 6.24 12.66 7.23 13 8.25 C8.75227794 9.50604684 6.73419482 9.03232288 2.875 6.9375 C2.02679688 6.48761719 1.17859375 6.03773438 0.3046875 5.57421875 C-1.50464681 4.53461819 -3.26373212 3.40751192 -5 2.25 C-3 0.25 -3 0.25 0 0 Z " fill="#994D3A" transform="translate(315,168.75)"/>
<path d="M0 0 C0.66 0.99 1.32 1.98 2 3 C2.53625 3.515625 3.0725 4.03125 3.625 4.5625 C5 6 5 6 5 8 C7.97 8.33 10.94 8.66 14 9 C14.33 8.01 14.66 7.02 15 6 C15.66 6 16.32 6 17 6 C16.67 4.35 16.34 2.7 16 1 C16.99 1 17.98 1 19 1 C18.69750921 4.32739873 18.28765829 6.5627594 16.4375 9.375 C13.61220097 11.25853269 11.42266287 11.63041507 8.03515625 11.453125 C4.2839453 10.61792256 2.58054062 8.83230068 0 6 C-0.9375 3.25 -0.9375 3.25 -1 1 C-0.67 0.67 -0.34 0.34 0 0 Z " fill="#9C574C" transform="translate(148,221)"/>
<path d="M0 0 C0.99 0.33 1.98 0.66 3 1 C2.63648438 1.47308594 2.27296875 1.94617188 1.8984375 2.43359375 C-1.53136512 6.94510335 -4.73359901 11.54669452 -7.80078125 16.3125 C-8.19652344 16.869375 -8.59226562 17.42625 -9 18 C-9.33 18 -9.66 18 -10 18 C-9.85831863 16.56208484 -9.71148957 15.1246763 -9.5625 13.6875 C-9.48128906 12.88699219 -9.40007812 12.08648437 -9.31640625 11.26171875 C-9 9 -9 9 -8 6 C-4.535 5.505 -4.535 5.505 -1 5 C-1.33 3.68 -1.66 2.36 -2 1 C-1.34 0.67 -0.68 0.34 0 0 Z " fill="#9C4E3C" transform="translate(271,183)"/>
<path d="M0 0 C4.33736771 6.50605157 4.52196831 16.30096745 4 24 C3.45482285 26.72118593 2.76364215 29.32725248 2 32 C-0.60585556 28.09121666 -0.22321871 24.53878034 0 20 C0.33 19.67 0.66 19.34 1 19 C1.34294666 12.6050535 1.14544072 6.29992398 0 0 Z " fill="#5A271C" transform="translate(218,194)"/>
<path d="M0 0 C0.66 0.99 1.32 1.98 2 3 C2.33 2.34 2.66 1.68 3 1 C3 4.72207387 1.82035432 6.46395589 0 9.6875 C-0.8353125 11.17830078 -0.8353125 11.17830078 -1.6875 12.69921875 C-2.3371875 13.83810547 -2.3371875 13.83810547 -3 15 C-3.99 15 -4.98 15 -6 15 C-6 12.69 -6 10.38 -6 8 C-5.34 7.67 -4.68 7.34 -4 7 C-3.34786708 4.97536745 -3.34786708 4.97536745 -3 3 C-2.34 3 -1.68 3 -1 3 C-0.67 2.01 -0.34 1.02 0 0 Z " fill="#994A39" transform="translate(143,190)"/>
<path d="M0 0 C1.65 0 3.3 0 5 0 C4.690625 1.27875 4.38125 2.5575 4.0625 3.875 C2.93885167 8.88758722 2.40577419 13.88510956 2 19 C1.67 18.34 1.34 17.68 1 17 C0.34 17 -0.32 17 -1 17 C-1.12036664 11.22240116 -0.8320582 5.72040011 0 0 Z " fill="#9D432E" transform="translate(173,289)"/>
<path d="M0 0 C-0.33 0.99 -0.66 1.98 -1 3 C0.65 3 2.3 3 4 3 C0.31912647 5.45391569 -2.44355588 5.22802759 -6.6875 5.125 C-7.7403418 5.11146484 -7.7403418 5.11146484 -8.81445312 5.09765625 C-10.54311525 5.07413704 -12.27160145 5.03826713 -14 5 C-13.171875 3.046875 -13.171875 3.046875 -12 1 C-8.00502289 -0.08953921 -4.12273784 -0.09816042 0 0 Z " fill="#984330" transform="translate(236,284)"/>
<path d="M0 0 C-3.32105857 1.66052929 -6.61731908 0.049567 -10 -1 C-12.5 -2.125 -12.5 -2.125 -14 -3 C-14 -3.66 -14 -4.32 -14 -5 C-24.395 -4.505 -24.395 -4.505 -35 -4 C-23.99431282 -11.33712479 -10.3600957 -5.56218253 0 0 Z " fill="#451D15" transform="translate(326,172)"/>
<path d="M0 0 C4.95 0.99 4.95 0.99 10 2 C9.01 5.3 8.02 8.6 7 12 C6.01 12 5.02 12 4 12 C2.875 7.25 2.875 7.25 4 5 C3.01 4.67 2.02 4.34 1 4 C1.33 3.67 1.66 3.34 2 3 C1.34 2.67 0.68 2.34 0 2 C0 1.34 0 0.68 0 0 Z " fill="#9B422B" transform="translate(213,283)"/>
<path d="M0 0 C1.9375 0.8125 1.9375 0.8125 4 2 C5.00520285 5.01560854 5.23101114 7.2765902 5.3125 10.4375 C5.36857422 11.85869141 5.36857422 11.85869141 5.42578125 13.30859375 C4.88862331 16.70402331 3.59143512 17.83791508 1 20 C1.01740234 18.83984375 1.01740234 18.83984375 1.03515625 17.65625 C1.08709845 11.66063636 0.91184156 5.92697017 0 0 Z " fill="#9B4C37" transform="translate(342,198)"/>
<path d="M0 0 C3.9252025 3.70090521 6.94580156 7.54959656 10 12 C9.67 12.66 9.34 13.32 9 14 C8.01 13.01 7.02 12.02 6 11 C6.66 13.64 7.32 16.28 8 19 C7.34 19 6.68 19 6 19 C5.35165346 17.730447 4.70642185 16.45930294 4.0625 15.1875 C3.70285156 14.47980469 3.34320313 13.77210938 2.97265625 13.04296875 C2 11 2 11 1 8 C1.99 8 2.98 8 4 8 C4 7.34 4 6.68 4 6 C3.01 5.67 2.02 5.34 1 5 C0.67 3.35 0.34 1.7 0 0 Z " fill="#763A2D" transform="translate(207,177)"/>
<path d="M0 0 C1.08642103 3.2592631 0.92167347 3.8663102 0 7 C-0.165 7.886875 -0.33 8.77375 -0.5 9.6875 C-1 12 -1 12 -2 13 C-3.99958364 13.04080783 -6.00045254 13.04254356 -8 13 C-7.34 11.02 -6.68 9.04 -6 7 C-5.34 7 -4.68 7 -4 7 C-3.71125 6.21625 -3.4225 5.4325 -3.125 4.625 C-2 2 -2 2 0 0 Z " fill="#893E2E" transform="translate(181,276)"/>
<path d="M0 0 C0.33 0 0.66 0 1 0 C1 2.97 1 5.94 1 9 C1.99 9 2.98 9 4 9 C3.67 11.31 3.34 13.62 3 16 C3.639375 16.103125 4.27875 16.20625 4.9375 16.3125 C5.618125 16.539375 6.29875 16.76625 7 17 C7.33 17.99 7.66 18.98 8 20 C8.66 20.66 9.32 21.32 10 22 C10 22.66 10 23.32 10 24 C8.25 23.875 8.25 23.875 6 23 C1.65553912 17.37775651 -0.28090242 12.78105989 -0.125 5.6875 C-0.10695312 4.61886719 -0.08890625 3.55023438 -0.0703125 2.44921875 C-0.04710937 1.64097656 -0.02390625 0.83273438 0 0 Z " fill="#CC5D5E" transform="translate(130,235)"/>
<path d="M0 0 C0.66 0.66 1.32 1.32 2 2 C1.35973877 1.99476318 0.71947754 1.98952637 0.05981445 1.98413086 C-2.85594695 1.96327571 -5.77169262 1.95031271 -8.6875 1.9375 C-9.69490234 1.92912109 -10.70230469 1.92074219 -11.74023438 1.91210938 C-12.71669922 1.90888672 -13.69316406 1.90566406 -14.69921875 1.90234375 C-15.59471436 1.89710693 -16.49020996 1.89187012 -17.4128418 1.88647461 C-20.03641759 2.00159802 -22.44293053 2.41765715 -25 3 C-25 3.66 -25 4.32 -25 5 C-27.31 5.33 -29.62 5.66 -32 6 C-30.08162693 2.16325387 -24.87699965 1.32726114 -21 0 C-14.22292643 -1.69426839 -6.86686469 -1.02424052 0 0 Z " fill="#461D19" transform="translate(194,169)"/>
<path d="M0 0 C0.99 0.33 1.98 0.66 3 1 C3.04898438 1.62648437 3.09796875 2.25296875 3.1484375 2.8984375 C3.22320312 3.71570313 3.29796875 4.53296875 3.375 5.375 C3.44460937 6.18710938 3.51421875 6.99921875 3.5859375 7.8359375 C3.82892588 10.20334191 3.82892588 10.20334191 6 12 C5.01 12.66 4.02 13.32 3 14 C2.01 13.67 1.02 13.34 0 13 C0 8.71 0 4.42 0 0 Z " fill="#F76565" transform="translate(131,231)"/>
<path d="M0 0 C-1.12451727 2.9719385 -2.22293791 5.33440687 -4 8 C-4.66 8 -5.32 8 -6 8 C-6.66 9.32 -7.32 10.64 -8 12 C-8.66 11.67 -9.32 11.34 -10 11 C-9.57576756 9.53775201 -9.13509755 8.08026588 -8.6875 6.625 C-8.44386719 5.81289062 -8.20023438 5.00078125 -7.94921875 4.1640625 C-6.18766039 0.14799941 -4.18754233 0 0 0 Z " fill="#853D29" transform="translate(217,231)"/>
<path d="M0 0 C-0.804375 0.556875 -1.60875 1.11375 -2.4375 1.6875 C-5.24228216 4.21864487 -5.69381595 5.32579134 -6 9 C-3.03 9.495 -3.03 9.495 0 10 C-1.75 11.125 -1.75 11.125 -4 12 C-6.63121493 11.22611326 -7.73746913 10.33101719 -9.4375 8.1875 C-10 6 -10 6 -8.875 3.375 C-6.03931007 -0.21687391 -4.45754585 -1.48584862 0 0 Z " fill="#9E5144" transform="translate(163,211)"/>
<path d="M0 0 C1.32 0.33 2.64 0.66 4 1 C3.67 1.66 3.34 2.32 3 3 C2.34 3 1.68 3 1 3 C1 4.65 1 6.3 1 8 C3.31 8 5.62 8 8 8 C7.67 8.66 7.34 9.32 7 10 C1.58461538 10.36923077 1.58461538 10.36923077 -1.375 8.5 C-1.91125 8.005 -2.4475 7.51 -3 7 C-2.38722388 4.03824877 -1.74627478 2.61941217 0 0 Z " fill="#9C594A" transform="translate(313,199)"/>
<path d="M0 0 C0.33 0.66 0.66 1.32 1 2 C3.01669827 3.13350534 3.01669827 3.13350534 5 4 C5 4.66 5 5.32 5 6 C5.66 6 6.32 6 7 6 C7.33 5.34 7.66 4.68 8 4 C9.5625 5.25 9.5625 5.25 11 7 C10.6875 9.1875 10.6875 9.1875 10 11 C10.99 11.33 11.98 11.66 13 12 C11.68 12.33 10.36 12.66 9 13 C8.61328125 12.46890625 8.2265625 11.9378125 7.828125 11.390625 C5.08649307 7.67177773 2.40892784 4.14670262 -1 1 C-0.67 0.67 -0.34 0.34 0 0 Z " fill="#974E3B" transform="translate(329,179)"/>
<path d="M0 0 C0 0.99 0 1.98 0 3 C-0.99 3 -1.98 3 -3 3 C-3.33 3.99 -3.66 4.98 -4 6 C-5.98723268 6.70381157 -7.98777953 7.3711811 -10 8 C-10.33 8.66 -10.66 9.32 -11 10 C-11.66 10 -12.32 10 -13 10 C-13.33 9.34 -13.66 8.68 -14 8 C-15.98 8 -17.96 8 -20 8 C-15.81425501 5.74613732 -11.38837842 4.4442811 -6.875 3 C-4.44688427 2.15543801 -2.25837794 1.21604966 0 0 Z " fill="#9A5648" transform="translate(318,247)"/>
<path d="M0 0 C1.8871875 0.061875 1.8871875 0.061875 3.8125 0.125 C4.1425 1.775 4.4725 3.425 4.8125 5.125 C-0.60288462 9.18653846 -0.60288462 9.18653846 -3.5625 8.875 C-4.09875 8.6275 -4.635 8.38 -5.1875 8.125 C-2.8775 7.465 -0.5675 6.805 1.8125 6.125 C1.8125 4.805 1.8125 3.485 1.8125 2.125 C-1.1575 2.125 -4.1275 2.125 -7.1875 2.125 C-4.09861478 0.06574319 -3.47814073 -0.1140374 0 0 Z " fill="#472016" transform="translate(246.1875,278.875)"/>
<path d="M0 0 C0.66 0.33 1.32 0.66 2 1 C1.525625 1.598125 1.05125 2.19625 0.5625 2.8125 C-1.16465744 5.00382924 -1.16465744 5.00382924 -2 8 C-2.99 8 -3.98 8 -5 8 C-5.33 9.98 -5.66 11.96 -6 14 C-6.99 14.33 -7.98 14.66 -9 15 C-9.66 15.66 -10.32 16.32 -11 17 C-10.39170242 13.05074492 -8.41996343 10.53817878 -6.0625 7.375 C-5.35222656 6.41335937 -4.64195312 5.45171875 -3.91015625 4.4609375 C-2 2 -2 2 0 0 Z " fill="#4C1F17" transform="translate(268,181)"/>
<path d="M0 0 C0.99 0.33 1.98 0.66 3 1 C3.70211894 2.65204456 4.36971413 4.31923769 5 6 C5.66 6.33 6.32 6.66 7 7 C7 7.66 7 8.32 7 9 C1.96014269 8.55530671 -0.37634988 6.28656638 -4 3 C-2.68 2.67 -1.36 2.34 0 2 C0 1.34 0 0.68 0 0 Z " fill="#984B3A" transform="translate(204,176)"/>
<path d="M0 0 C2.1899142 2.1899142 2.73972043 2.96340505 3 6 C1.6875 8.75 1.6875 8.75 0 11 C-0.66 11 -1.32 11 -2 11 C-2.33 11.66 -2.66 12.32 -3 13 C-3.31563182 7.73946963 -2.66590937 4.55426184 0 0 Z " fill="#833926" transform="translate(215,297)"/>
<path d="M0 0 C-2.52235132 1.68156755 -5.03586642 3.16468006 -7.6875 4.625 C-8.89986328 5.29402344 -8.89986328 5.29402344 -10.13671875 5.9765625 C-10.75160156 6.31429687 -11.36648438 6.65203125 -12 7 C-12.5859375 5.14453125 -12.5859375 5.14453125 -13 3 C-9.78018195 -2.41514853 -5.39887519 -1.06131734 0 0 Z " fill="#994E3D" transform="translate(292,173)"/>
<path d="M0 0 C0.33 0 0.66 0 1 0 C1 4.29 1 8.58 1 13 C-0.98 13.33 -2.96 13.66 -5 14 C-3.35 9.38 -1.7 4.76 0 0 Z " fill="#9F584A" transform="translate(216,218)"/>
<path d="M0 0 C0.33 0 0.66 0 1 0 C1.25 7.625 1.25 7.625 -1 11 C-1.45139459 13.0492094 -1.45139459 13.0492094 -1.625 15.1875 C-1.74875 16.445625 -1.8725 17.70375 -2 19 C-4.31476699 15.41556605 -4.00561145 13.05762462 -3.25 8.9375 C-3.06953125 7.89464844 -2.8890625 6.85179687 -2.703125 5.77734375 C-2 3 -2 3 0 0 Z " fill="#984B49" transform="translate(132,224)"/>
<path d="M0 0 C0.33 1.32 0.66 2.64 1 4 C0.01 4.33 -0.98 4.66 -2 5 C-2 7.31 -2 9.62 -2 12 C-1.34 12 -0.68 12 0 12 C-0.33 12.66 -0.66 13.32 -1 14 C-3.0625 14.625 -3.0625 14.625 -5 15 C-4.56826496 8.84777564 -3.34594658 5.18082051 0 0 Z " fill="#5F2A1F" transform="translate(139,193)"/>
<path d="M0 0 C0.66 0 1.32 0 2 0 C2 0.99 2 1.98 2 3 C0.02 3.99 0.02 3.99 -2 5 C-1.67 5.66 -1.34 6.32 -1 7 C-1.99 8.485 -1.99 8.485 -3 10 C-5 10 -7 10 -9 10 C-7.88200014 8.66079162 -6.75538103 7.32877444 -5.625 6 C-4.99851563 5.2575 -4.37203125 4.515 -3.7265625 3.75 C-3.15679687 3.1725 -2.58703125 2.595 -2 2 C-1.34 2 -0.68 2 0 2 C0 1.34 0 0.68 0 0 Z " fill="#682A1D" transform="translate(149,182)"/>
<path d="M0 0 C2.31 0.33 4.62 0.66 7 1 C7 1.66 7 2.32 7 3 C6.01 3.66 5.02 4.32 4 5 C4 5.66 4 6.32 4 7 C2.35 7 0.7 7 -1 7 C-1.625 5.1875 -1.625 5.1875 -2 3 C-1.34 2.01 -0.68 1.02 0 0 Z " fill="#9F402C" transform="translate(152,203)"/>
<path d="M0 0 C-1.50139512 4.20390632 -4.17275043 5.89110738 -8 8 C-8.99 7.67 -9.98 7.34 -11 7 C-10.34 7 -9.68 7 -9 7 C-8.773125 6.21625 -8.54625 5.4325 -8.3125 4.625 C-7 2 -7 2 -4.5 0.6875 C-2 0 -2 0 0 0 Z " fill="#632C20" transform="translate(211,310)"/>
<path d="M0 0 C1 3 1 3 1 5 C1.66 5.33 2.32 5.66 3 6 C1.75 7.5625 1.75 7.5625 0 9 C-2.1875 8.6875 -2.1875 8.6875 -4 8 C-3.50168276 4.31245243 -2.89932357 2.39509338 0 0 Z " fill="#A7503F" transform="translate(199,281)"/>
<path d="M0 0 C0.66 0.33 1.32 0.66 2 1 C1.33333333 3 0.66666667 5 0 7 C-1.32 7 -2.64 7 -4 7 C-3.67 8.32 -3.34 9.64 -3 11 C-3.99 11 -4.98 11 -6 11 C-6.33 10.01 -6.66 9.02 -7 8 C-6.525625 7.566875 -6.05125 7.13375 -5.5625 6.6875 C-3.76313043 4.97690387 -3.76313043 4.97690387 -3 2 C-2.01 1.34 -1.02 0.68 0 0 Z " fill="#7F3827" transform="translate(273,177)"/>
<path d="M0 0 C0 0.66 0 1.32 0 2 C0.99 2.33 1.98 2.66 3 3 C2.34 3.66 1.68 4.32 1 5 C-5.17784711 4.66302652 -5.17784711 4.66302652 -7.9375 2.4375 C-8.288125 1.963125 -8.63875 1.48875 -9 1 C-2.25 0 -2.25 0 0 0 Z " fill="#A54A39" transform="translate(213,283)"/>
<path d="M0 0 C0.66 1.32 1.32 2.64 2 4 C1.01 5.485 1.01 5.485 0 7 C-2.625 7.1875 -2.625 7.1875 -5 7 C-5 6.34 -5 5.68 -5 5 C-5.99 4.67 -6.98 4.34 -8 4 C-5.36 2.68 -2.72 1.36 0 0 Z " fill="#974E3D" transform="translate(197,244)"/>
<path d="M0 0 C0.33 0 0.66 0 1 0 C1.22527296 3.45745022 1.42733544 6.91587025 1.625 10.375 C1.68945312 11.35984375 1.75390625 12.3446875 1.8203125 13.359375 C1.871875 14.30039063 1.9234375 15.24140625 1.9765625 16.2109375 C2.02893066 17.08024902 2.08129883 17.94956055 2.13525391 18.84521484 C2 21 2 21 0 23 C-1.41722796 15.2839811 -0.65647386 7.75649113 0 0 Z " fill="#863E2D" transform="translate(217,208)"/>
<path d="M0 0 C0.66 0.33 1.32 0.66 2 1 C1.01 1.33 0.02 1.66 -1 2 C-1 2.66 -1 3.32 -1 4 C-1.7425 4.0825 -2.485 4.165 -3.25 4.25 C-6.14528881 4.78896005 -6.14528881 4.78896005 -8.0625 7.125 C-8.701875 7.74375 -9.34125 8.3625 -10 9 C-12.12109375 8.6171875 -12.12109375 8.6171875 -14 8 C-9.46971215 4.5791704 -5.36734085 1.89435559 0 0 Z " fill="#512117" transform="translate(289,168)"/>
<path d="M0 0 C0.33 0 0.66 0 1 0 C1.99 4.29 2.98 8.58 4 13 C3.01 12.67 2.02 12.34 1 12 C1 11.01 1 10.02 1 9 C0.01 9.33 -0.98 9.66 -2 10 C-2 8.35 -2 6.7 -2 5 C-1.34 5 -0.68 5 0 5 C0 3.35 0 1.7 0 0 Z " fill="#995344" transform="translate(257,227)"/>
<path d="M0 0 C0.33 0 0.66 0 1 0 C1.07347656 1.01320313 1.07347656 1.01320313 1.1484375 2.046875 C1.22320312 2.93890625 1.29796875 3.8309375 1.375 4.75 C1.44460937 5.63171875 1.51421875 6.5134375 1.5859375 7.421875 C1.99850055 9.99066382 2.71160957 11.75841015 4 14 C2.68 14 1.36 14 0 14 C-2 11 -2 11 -1.7578125 8.30078125 C-1.54898438 7.31464844 -1.34015625 6.32851563 -1.125 5.3125 C-0.92132813 4.31863281 -0.71765625 3.32476562 -0.5078125 2.30078125 C-0.34023437 1.54152344 -0.17265625 0.78226562 0 0 Z " fill="#A8513D" transform="translate(175,298)"/>
<path d="M0 0 C0.66 0 1.32 0 2 0 C1.01 3.3 0.02 6.6 -1 10 C-1.66 10 -2.32 10 -3 10 C-3 11.98 -3 13.96 -3 16 C-3.33 16 -3.66 16 -4 16 C-4.36266924 10.19729221 -3.30512167 6.34788227 -1 1 C-0.67 0.67 -0.34 0.34 0 0 Z " fill="#9D6152" transform="translate(150,203)"/>
<path d="M0 0 C0.66 0 1.32 0 2 0 C1.5020163 3.73487777 1.12508244 5.81237635 -1 9 C-1.66 9 -2.32 9 -3 9 C-2.67 6.69 -2.34 4.38 -2 2 C-1.34 2 -0.68 2 0 2 C0 1.34 0 0.68 0 0 Z " fill="#6A2F27" transform="translate(220,293)"/>
<path d="M0 0 C2.375 -0.1875 2.375 -0.1875 5 0 C5.66 0.99 6.32 1.98 7 3 C6.67 3.99 6.34 4.98 6 6 C3.83125748 5.49396008 2.00032373 5.00016187 0 4 C0 2.68 0 1.36 0 0 Z " fill="#8D3924" transform="translate(235,283)"/>
<path d="M0 0 C4.95 0 9.9 0 15 0 C15 0.33 15 0.66 15 1 C9.72 1.66 4.44 2.32 -1 3 C-0.67 2.01 -0.34 1.02 0 0 Z " fill="#54251C" transform="translate(171,255)"/>
<path d="M0 0 C2.9375 0.375 2.9375 0.375 6 1 C6.33 1.66 6.66 2.32 7 3 C0.375 6.125 0.375 6.125 -3 5 C-2.505 4.360625 -2.01 3.72125 -1.5 3.0625 C0.09802862 1.29025661 0.09802862 1.29025661 0 0 Z " fill="#6C2F22" transform="translate(189,249)"/>
<path d="M0 0 C0.99 0.33 1.98 0.66 3 1 C1.50902342 4.7952131 -0.75700849 6.61042731 -4 9 C-4.625 7.125 -4.625 7.125 -5 5 C-4.34 4.34 -3.68 3.68 -3 3 C-2.01 3 -1.02 3 0 3 C0 2.01 0 1.02 0 0 Z " fill="#924735" transform="translate(151,182)"/>
<path d="M0 0 C0 3 0 3 -1.6796875 4.82421875 C-2.40414063 5.43910156 -3.12859375 6.05398437 -3.875 6.6875 C-4.59429687 7.31011719 -5.31359375 7.93273437 -6.0546875 8.57421875 C-8 10 -8 10 -10 10 C-8.5741914 6.54804233 -6.90253666 4.8985744 -3.875 2.75 C-3.15054687 2.22921875 -2.42609375 1.7084375 -1.6796875 1.171875 C-1.12539063 0.78515625 -0.57109375 0.3984375 0 0 Z " fill="#F4DFDA" transform="translate(281,179)"/>
<path d="M0 0 C0 3.38023517 -0.87455622 5.83468937 -2 9 C-2.33 8.01 -2.66 7.02 -3 6 C-3.78375 6.515625 -4.5675 7.03125 -5.375 7.5625 C-6.24125 8.036875 -7.1075 8.51125 -8 9 C-8.66 8.67 -9.32 8.34 -10 8 C-6.7 5.36 -3.4 2.72 0 0 Z " fill="#9D4D3D" transform="translate(330,238)"/>
<path d="M0 0 C-0.54226981 3.79588866 -2.20127563 5.47211993 -5 8 C-5.6875 5.6875 -5.6875 5.6875 -6 3 C-4.0819994 0.21889913 -3.45555657 0 0 0 Z " fill="#A64631" transform="translate(186,277)"/>
<path d="M0 0 C-0.6875 1.9375 -0.6875 1.9375 -2 4 C-4.625 4.75 -4.625 4.75 -7 5 C-6.67 4.01 -6.34 3.02 -6 2 C-6.66 1.67 -7.32 1.34 -8 1 C-3.375 -1.125 -3.375 -1.125 0 0 Z " fill="#964B3A" transform="translate(190,250)"/>
<path d="M0 0 C0.99 0.99 1.98 1.98 3 3 C2.34 3 1.68 3 1 3 C0.773125 3.61875 0.54625 4.2375 0.3125 4.875 C-1.37929835 7.61410209 -2.99244161 8.05024472 -6 9 C-4 6 -2 3 0 0 Z " fill="#9D5041" transform="translate(337,229)"/>
<path d="M0 0 C1.53445094 3.06890187 0.54984289 5.70094266 0 9 C-1.65 9 -3.3 9 -5 9 C-4.34 7.02 -3.68 5.04 -3 3 C-2.34 3 -1.68 3 -1 3 C-0.67 2.01 -0.34 1.02 0 0 Z " fill="#6D3326" transform="translate(178,280)"/>
<path d="M0 0 C-2.96687001 1.64826111 -5.65626525 2.44271087 -9 3 C-9 3.66 -9 4.32 -9 5 C-11.31 5.33 -13.62 5.66 -16 6 C-14.61769577 3.23539154 -13.08867771 3.00879139 -10.25 1.875 C-9.38890625 1.52179688 -8.5278125 1.16859375 -7.640625 0.8046875 C-4.94136502 -0.01786806 -2.80298055 -0.15123996 0 0 Z " fill="#3F1A12" transform="translate(178,169)"/>
<path d="M0 0 C0.66 0.33 1.32 0.66 2 1 C1 4 1 4 -2 6 C-3.32 6 -4.64 6 -6 6 C-6 5.34 -6 4.68 -6 4 C-4.03852126 2.61061923 -2.03833424 1.2739589 0 0 Z " fill="#5F2D1D" transform="translate(188,270)"/>
<path d="M0 0 C-0.98093954 2.45234885 -1.68703828 3.7809268 -3.875 5.3125 C-6.35009306 6.1132654 -7.58287634 5.86325845 -10 5 C-9.67 4.34 -9.34 3.68 -9 3 C-7.35 3 -5.7 3 -4 3 C-4 2.34 -4 1.68 -4 1 C-2 0 -2 0 0 0 Z " fill="#954040" transform="translate(340,252)"/>
<path d="M0 0 C1.98 0 3.96 0 6 0 C5.67 0.66 5.34 1.32 5 2 C2.27734375 2.6328125 2.27734375 2.6328125 -1.0625 3.125 C-2.16722656 3.29257812 -3.27195312 3.46015625 -4.41015625 3.6328125 C-5.69212891 3.81457031 -5.69212891 3.81457031 -7 4 C-7 3.34 -7 2.68 -7 2 C-4.69 2 -2.38 2 0 2 C0 1.34 0 0.68 0 0 Z " fill="#5B281D" transform="translate(307,255)"/>
<path d="M0 0 C3.68754757 0.49831724 5.60490662 1.10067643 8 4 C7.67 4.66 7.34 5.32 7 6 C6.34 5.34 5.68 4.68 5 4 C4.01 4.33 3.02 4.66 2 5 C1.34 3.35 0.68 1.7 0 0 Z " fill="#6A2C1E" transform="translate(332,180)"/>
<path d="M0 0 C0.66 0.33 1.32 0.66 2 1 C1.5206753 5.31392226 0.2542015 7.16569547 -3 10 C-3 8.68 -3 7.36 -3 6 C-2.34 6 -1.68 6 -1 6 C-1.0309375 4.7934375 -1.0309375 4.7934375 -1.0625 3.5625 C-1 1 -1 1 0 0 Z " fill="#A7484A" transform="translate(350,236)"/>
<path d="M0 0 C0.66 0.99 1.32 1.98 2 3 C1.34 3 0.68 3 0 3 C-0.33 5.97 -0.66 8.94 -1 12 C-1.66 12 -2.32 12 -3 12 C-2.40075776 7.80530429 -1.42500059 3.99000166 0 0 Z " fill="#612C21" transform="translate(256,199)"/>
<path d="M0 0 C2.00720923 0.28674418 4.0085944 0.61866701 6 1 C6 1.66 6 2.32 6 3 C7.32 3 8.64 3 10 3 C10 3.66 10 4.32 10 5 C8.53984709 4.71758359 7.08190207 4.42373386 5.625 4.125 C4.81289062 3.96257812 4.00078125 3.80015625 3.1640625 3.6328125 C1 3 1 3 -1 1 C-0.67 0.67 -0.34 0.34 0 0 Z " fill="#AF4330" transform="translate(150,251)"/>
<path d="M0 0 C5.66153846 1.47692308 5.66153846 1.47692308 7.375 4.125 C7.684375 5.053125 7.684375 5.053125 8 6 C5 6 5 6 3.61328125 4.6875 C2.40885417 3.125 1.20442708 1.5625 0 0 Z " fill="#FCF1EA" transform="translate(143,240)"/>
<path d="M0 0 C0.33 0.66 0.66 1.32 1 2 C-2.3 2 -5.6 2 -9 2 C-9 1.34 -9 0.68 -9 0 C-5.88173308 -1.55913346 -3.32926126 -0.66585225 0 0 Z " fill="#9D5D4F" transform="translate(162,203)"/>
<path d="M0 0 C3.125 -0.1875 3.125 -0.1875 6 0 C5.01 0.495 5.01 0.495 4 1 C3.67 1.99 3.34 2.98 3 4 C1.35 3.67 -0.3 3.34 -2 3 C-1.34 2.01 -0.68 1.02 0 0 Z " fill="#9E5242" transform="translate(312,169)"/>
<path d="M0 0 C0.33 0.99 0.66 1.98 1 3 C0.01 4.485 0.01 4.485 -1 6 C-2.32 6 -3.64 6 -5 6 C-5 5.34 -5 4.68 -5 4 C-3.37373596 2.61767557 -1.7074998 1.28062485 0 0 Z " fill="#9D412B" transform="translate(210,305)"/>
<path d="M0 0 C2.97 0 5.94 0 9 0 C7.515 2.475 7.515 2.475 6 5 C5.67 3.68 5.34 2.36 5 1 C3.35 1 1.7 1 0 1 C0 0.67 0 0.34 0 0 Z " fill="#B14A45" transform="translate(162,256)"/>
<path d="M0 0 C2.31 0 4.62 0 7 0 C7 0.66 7 1.32 7 2 C8.65 2 10.3 2 12 2 C12 2.33 12 2.66 12 3 C9.36 3 6.72 3 4 3 C4 2.34 4 1.68 4 1 C2.68 0.67 1.36 0.34 0 0 Z " fill="#A53E29" transform="translate(156,253)"/>
<path d="M0 0 C0.33 0 0.66 0 1 0 C1 3.63 1 7.26 1 11 C0.01 11 -0.98 11 -2 11 C-1.34 7.37 -0.68 3.74 0 0 Z " fill="#9C4C3E" transform="translate(216,218)"/>
<path d="M0 0 C0.99 0 1.98 0 3 0 C2.75 1.875 2.75 1.875 2 4 C-0.0625 5.25 -0.0625 5.25 -2 6 C-1.34 4.02 -0.68 2.04 0 0 Z " fill="#BA544F" transform="translate(348,218)"/>
<path d="M0 0 C0.33 0.66 0.66 1.32 1 2 C0.67 2.99 0.34 3.98 0 5 C-0.99 5.33 -1.98 5.66 -3 6 C-3.66 6.66 -4.32 7.32 -5 8 C-4.45773019 4.20411134 -2.79872437 2.52788007 0 0 Z " fill="#54261E" transform="translate(262,190)"/>
<path d="M0 0 C3.465 1.98 3.465 1.98 7 4 C7 4.99 7 5.98 7 7 C4.20171644 6.61402985 3.1794116 6.19863427 1.25 4.0625 C0 2 0 2 0 0 Z " fill="#6C2C2C" transform="translate(133,252)"/>
<path d="M0 0 C0.99 0 1.98 0 3 0 C3.33 1.32 3.66 2.64 4 4 C2.02 4.99 2.02 4.99 0 6 C0 4.02 0 2.04 0 0 Z " fill="#763424" transform="translate(198,244)"/>
<path d="M0 0 C0 2.83967231 -0.40267181 5.23735711 -1 8 C-1.66 8 -2.32 8 -3 8 C-3.75 6.25 -3.75 6.25 -4 4 C-2.0625 1.75 -2.0625 1.75 0 0 Z " fill="#9D5846" transform="translate(209,234)"/>
<path d="M0 0 C0.33 0.66 0.66 1.32 1 2 C1.99 1.67 2.98 1.34 4 1 C4 1.66 4 2.32 4 3 C3.34 3 2.68 3 2 3 C1.34 4.32 0.68 5.64 0 7 C-0.66 6.67 -1.32 6.34 -2 6 C-1.34 4.02 -0.68 2.04 0 0 Z " fill="#602B1D" transform="translate(209,236)"/>
<path d="M0 0 C0.33 0.66 0.66 1.32 1 2 C-2.63 2 -6.26 2 -10 2 C-10 1.34 -10 0.68 -10 0 C-6.64338305 -1.67830848 -3.63864406 -0.6353188 0 0 Z " fill="#FAEDE4" transform="translate(161,201)"/>
<path d="M0 0 C0.33 0.99 0.66 1.98 1 3 C1.66 3 2.32 3 3 3 C3 4.65 3 6.3 3 8 C2.34 8 1.68 8 1 8 C0.34 5.69 -0.32 3.38 -1 1 C-0.67 0.67 -0.34 0.34 0 0 Z " fill="#96452E" transform="translate(213,187)"/>
</svg>
