<?xml version="1.0" encoding="UTF-8"?>
<svg version="1.1" xmlns="http://www.w3.org/2000/svg" width="500" height="500">
<path d="M0 0 C1.65 0 3.3 0 5 0 C5.67154933 1.28913487 6.33708859 2.58140204 7 3.875 C7.37125 4.59429687 7.7425 5.31359375 8.125 6.0546875 C9 8 9 8 9 10 C9.5775 10.268125 10.155 10.53625 10.75 10.8125 C13 12 13 12 14.70703125 13.4765625 C17.71579353 15.47556981 20.3904083 15.91114528 23.9375 16.5625 C24.5977417 16.68834473 25.2579834 16.81418945 25.93823242 16.94384766 C30.21467866 17.74187176 34.49651196 18.32653121 38.8125 18.875 C47.7607362 20.21284904 54.2267094 24.25664989 61.2734375 29.703125 C65.8280011 33.12419992 69.21009899 33.17773967 74.6640625 32.42578125 C76.87493108 32.02279684 79.01662824 31.51556738 81.1875 30.9375 C85.31153438 29.92339318 89.08530529 29.04265265 93 31 C93.042721 32.66611905 93.04063832 34.33382885 93 36 C91.50858915 37.49141085 89.92634277 37.51680089 87.875 37.9375 C85.00952221 38.53767094 82.35447702 39.21126207 79.5625 40.125 C74.98423097 41.24948713 70.68786439 41.16978181 66 41 C66.04640625 41.94488281 66.0928125 42.88976562 66.140625 43.86328125 C66.13565797 48.80671415 64.93841979 53.41363445 63.75 58.1875 C63.52256104 59.11715576 63.29512207 60.04681152 63.06079102 61.00463867 C60.61752076 70.81278238 57.80585848 80.07483425 53 89 C52.34 89 51.68 89 51 89 C50.7215625 90.051875 50.7215625 90.051875 50.4375 91.125 C47.59232383 96.81535235 41.94513182 100.67781736 36.234375 103.30078125 C31.08321293 104.91277078 25.81441782 105.0511681 20.73046875 103.15234375 C14.70975647 99.75633969 10.85702086 94.53718258 7.6875 88.5 C4.9029076 78.37420945 5.82126499 67.38976087 6 57 C6.01675781 55.90042969 6.03351563 54.80085938 6.05078125 53.66796875 C6.42597445 46.17482448 8.33794933 39.07005512 10.2722168 31.85131836 C10.60346558 30.61007202 10.60346558 30.61007202 10.94140625 29.34375 C11.14451416 28.60318359 11.34762207 27.86261719 11.55688477 27.09960938 C12.13766523 24.70534512 12.13766523 24.70534512 12 21 C10.41774281 19.30496261 10.41774281 19.30496261 8.3125 17.8125 C4.02587184 14.2657347 0.73424322 10.36383421 -1 5 C-0.62109375 2.2265625 -0.62109375 2.2265625 0 0 Z " fill="#FCADA7" transform="translate(203,247)"/>
<path d="M0 0 C7.72913196 -0.30155612 14.95630839 0.63345296 22.5625 1.9375 C29.96688496 3.15112919 37.24690702 4.25399695 44.75 4.5 C55.01969217 4.932938 64.94742613 6.94747667 75 9 C75.83789062 9.1640332 76.67578125 9.32806641 77.5390625 9.49707031 C79.86440913 9.95597111 82.18241222 10.44105749 84.5 10.9375 C85.17546875 11.07067627 85.8509375 11.20385254 86.546875 11.34106445 C91.59210069 12.48636658 94.31463049 14.54780974 98 18 C97.505 20.475 97.505 20.475 97 23 C92.56222526 22.42926257 88.2588432 21.64134868 83.89916992 20.64257812 C75.36331119 18.69990281 66.8900907 17.43703153 58.1875 16.5 C50.1386679 15.62644116 42.79405027 14.39808759 35.078125 11.91796875 C27.88529889 9.77290005 20.49080259 8.86623567 13 9 C18.08193977 13.79071113 23.36697006 17.57666773 29.3125 21.2265625 C32.61901444 23.40847755 35.46934985 25.90112295 38.34375 28.6171875 C40.06342509 30.22406539 40.06342509 30.22406539 43 31 C45.1166025 30.03526745 45.1166025 30.03526745 47.375 28.625 C55.63408649 24.302825 64.81880099 24.07757714 73.79296875 26.28125 C81.23133968 28.70365752 87.2998302 33.65624858 91.4375 40.3125 C92.32662624 44.56054759 92.19439413 48.67943365 92 53 C91.95552734 54.31677734 91.95552734 54.31677734 91.91015625 55.66015625 C91.36744559 64.4361847 87.2662514 69.27339544 81.05859375 75.23046875 C75.56066947 79.95638848 70.06227559 80.56311617 63.0546875 80.3359375 C54.59877664 79.40600357 48.71954565 75.812862 42.9765625 69.61328125 C36.7181816 61.33886065 33.65315138 50.18599186 34.15234375 39.84375 C34.26545177 37.01362616 34.26545177 37.01362616 32.6796875 35.2421875 C32.08414063 34.79101562 31.48859375 34.33984375 30.875 33.875 C30.24207031 33.38257813 29.60914063 32.89015625 28.95703125 32.3828125 C27.18263143 31.12904496 25.38858468 29.92671328 23.5625 28.75 C22.716875 28.1725 21.87125 27.595 21 27 C21 26.34 21 25.68 21 25 C20.43539063 24.73960937 19.87078125 24.47921875 19.2890625 24.2109375 C16.77787898 22.88249571 14.62997345 21.35205325 12.375 19.625 C11.59898437 19.03976563 10.82296875 18.45453125 10.0234375 17.8515625 C7.99426121 15.99474868 7.03349366 14.52261355 6 12 C5.34 12 4.68 12 4 12 C1.95236653 9.90404479 0.34364191 7.60129074 -1 5 C-0.8125 2.0625 -0.8125 2.0625 0 0 Z " fill="#883B29" transform="translate(255,205)"/>
<path d="M0 0 C6.99145512 -0.52765699 13.23826116 1.40271411 19.9375 3.25 C21.64969727 3.70052734 21.64969727 3.70052734 23.39648438 4.16015625 C29.01272664 5.68507471 34.18300867 7.33171639 39.30688477 10.10253906 C41.77944169 11.41315467 44.36728111 12.3117438 47 13.25 C54.12611427 15.95188296 60.86092343 19.22931913 67.6015625 22.7578125 C69.34207474 23.65925043 71.09058755 24.54529378 72.84375 25.421875 C75.88821738 26.94410869 78.91340971 28.50023663 81.9375 30.0625 C82.91581787 30.54468994 83.89413574 31.02687988 84.90209961 31.52368164 C91.58097319 35.04246679 91.58097319 35.04246679 92.84423828 37.92919922 C93.12890625 39.87109375 93.12890625 39.87109375 93 43 C89.80364746 45.13090169 88.82552422 45.27195585 85.1328125 45.37890625 C84.16996338 45.41250244 83.20711426 45.44609863 82.21508789 45.48071289 C81.19535889 45.50770264 80.17562988 45.53469238 79.125 45.5625 C77.04291173 45.63376992 74.96087888 45.70667821 72.87890625 45.78125 C71.87102051 45.81605469 70.86313477 45.85085937 69.82470703 45.88671875 C64.53713874 46.09876989 59.27009932 46.52457837 54 47 C54.20625 47.94875 54.4125 48.8975 54.625 49.875 C55.34063461 54.72541235 54.30880327 59.32058008 53 64 C52 65 52 65 49.4375 65.0625 C48.633125 65.041875 47.82875 65.02125 47 65 C47 65.66 47 66.32 47 67 C41.81274114 72.79752461 37.17434595 76.38113641 29.36328125 76.90625 C28.58339844 76.9371875 27.80351562 76.968125 27 77 C26.23042969 77.0515625 25.46085937 77.103125 24.66796875 77.15625 C19.33352114 77.37435348 15.66179697 76.66388398 11 74 C9.8125 71.9375 9.8125 71.9375 9 70 C8.401875 69.731875 7.80375 69.46375 7.1875 69.1875 C3.80068558 67.3489436 1.81162663 64.36060106 0 61 C-2.37355086 51.86182919 -1.53832348 43.27327914 3 35 C5.89025593 30.45939082 9.09842555 27.07261929 14.40234375 25.4375 C23.20173729 23.95549688 32.37644217 23.81072373 40.49609375 27.83203125 C42 29 42 29 43 32 C43.66 32 44.32 32 45 32 C45 32.66 45 33.32 45 34 C45.66 34 46.32 34 47 34 C47.66 35.98 48.32 37.96 49 40 C50.051875 39.71125 51.10375 39.4225 52.1875 39.125 C57.15073503 37.86859759 62.17654526 37.17591418 67.2421875 36.46484375 C69.95058463 36.14651169 69.95058463 36.14651169 72 35 C66.08297661 31.40697546 60.09549087 28.82869479 53.609375 26.4375 C50.40300712 25.160505 47.37535846 23.74119946 44.29272461 22.203125 C34.40694343 17.28800014 24.19679739 13.98344923 13.65234375 10.76171875 C11.76761427 10.17645568 9.88345267 9.58935909 8 9 C7.17902832 8.75072754 6.35805664 8.50145508 5.51220703 8.24462891 C3.31640625 7.51953125 3.31640625 7.51953125 0 6 C-0.76977539 4.0300293 -0.76977539 4.0300293 -1 2 C-0.67 1.34 -0.34 0.68 0 0 Z " fill="#F06363" transform="translate(123,167)"/>
<path d="M0 0 C1.65 0 3.3 0 5 0 C5.67154933 1.28913487 6.33708859 2.58140204 7 3.875 C7.37125 4.59429687 7.7425 5.31359375 8.125 6.0546875 C9 8 9 8 9 10 C9.5775 10.268125 10.155 10.53625 10.75 10.8125 C13 12 13 12 14.70703125 13.4765625 C17.71579353 15.47556981 20.3904083 15.91114528 23.9375 16.5625 C24.5977417 16.68834473 25.2579834 16.81418945 25.93823242 16.94384766 C30.21467866 17.74187176 34.49651196 18.32653121 38.8125 18.875 C47.7607362 20.21284904 54.2267094 24.25664989 61.2734375 29.703125 C65.8280011 33.12419992 69.21009899 33.17773967 74.6640625 32.42578125 C76.87493108 32.02279684 79.01662824 31.51556738 81.1875 30.9375 C85.31153438 29.92339318 89.08530529 29.04265265 93 31 C93.042721 32.66611905 93.04063832 34.33382885 93 36 C91.50858915 37.49141085 89.92634277 37.51680089 87.875 37.9375 C85.00952221 38.53767094 82.35447702 39.21126207 79.5625 40.125 C74.98423097 41.24948713 70.68786439 41.16978181 66 41 C66.04640625 41.94488281 66.0928125 42.88976562 66.140625 43.86328125 C66.13565797 48.80671415 64.93841979 53.41363445 63.75 58.1875 C63.52256104 59.11715576 63.29512207 60.04681152 63.06079102 61.00463867 C60.61752076 70.81278238 57.80585848 80.07483425 53 89 C52.34 89 51.68 89 51 89 C50.7215625 90.051875 50.7215625 90.051875 50.4375 91.125 C47.59232383 96.81535235 41.94513182 100.67781736 36.234375 103.30078125 C31.08321293 104.91277078 25.81441782 105.0511681 20.73046875 103.15234375 C14.70975647 99.75633969 10.85702086 94.53718258 7.6875 88.5 C4.9029076 78.37420945 5.82126499 67.38976087 6 57 C6.01675781 55.90042969 6.03351563 54.80085938 6.05078125 53.66796875 C6.42597445 46.17482448 8.33794933 39.07005512 10.2722168 31.85131836 C10.60346558 30.61007202 10.60346558 30.61007202 10.94140625 29.34375 C11.14451416 28.60318359 11.34762207 27.86261719 11.55688477 27.09960938 C12.13766523 24.70534512 12.13766523 24.70534512 12 21 C10.41774281 19.30496261 10.41774281 19.30496261 8.3125 17.8125 C4.02587184 14.2657347 0.73424322 10.36383421 -1 5 C-0.62109375 2.2265625 -0.62109375 2.2265625 0 0 Z M19 23 C19.0515625 24.09054687 19.103125 25.18109375 19.15625 26.3046875 C19.15625 30.75388718 18.24917201 34.75872423 17.2199707 39.0703125 C14.63363981 50.04358213 13.43419968 60.75799223 13.3125 72 C13.2815625 73.25699707 13.250625 74.51399414 13.21875 75.80908203 C13.25685023 82.88715269 14.11711777 87.61213621 18.28442383 93.40136719 C20.86588564 95.80686198 23.23321121 96.23846678 26.6953125 96.2734375 C33.29239783 95.49073246 37.73493899 93.18723637 42 88 C46.41651951 81.92682753 48.80097114 75.55376997 51.0625 68.4375 C51.40539062 67.38135498 51.74828125 66.32520996 52.1015625 65.23706055 C57.69173439 50.84264026 57.69173439 50.84264026 59 36 C56.54423757 33.44585138 56.54423757 33.44585138 53.3125 31.25 C52.25675781 30.47140625 51.20101562 29.6928125 50.11328125 28.890625 C47.23652049 27.14363352 45.30442128 26.3678391 42 26 C41.83564453 27.23363281 41.83564453 27.23363281 41.66796875 28.4921875 C39.39089948 44.52423617 39.39089948 44.52423617 37 49 C35.68 49.33 34.36 49.66 33 50 C34.65 41.75 36.3 33.5 38 25 C34.6896875 24.505 34.6896875 24.505 31.3125 24 C30.07113281 23.814375 28.82976562 23.62875 27.55078125 23.4375 C24.64113629 23.07899589 21.92299978 22.91057744 19 23 Z " fill="#99412E" transform="translate(203,247)"/>
<path d="M0 0 C6.99145512 -0.52765699 13.23826116 1.40271411 19.9375 3.25 C21.64969727 3.70052734 21.64969727 3.70052734 23.39648438 4.16015625 C29.01272664 5.68507471 34.18300867 7.33171639 39.30688477 10.10253906 C41.77944169 11.41315467 44.36728111 12.3117438 47 13.25 C54.12611427 15.95188296 60.86092343 19.22931913 67.6015625 22.7578125 C69.34207474 23.65925043 71.09058755 24.54529378 72.84375 25.421875 C75.88821738 26.94410869 78.91340971 28.50023663 81.9375 30.0625 C82.91581787 30.54468994 83.89413574 31.02687988 84.90209961 31.52368164 C91.58097319 35.04246679 91.58097319 35.04246679 92.84423828 37.92919922 C93.12890625 39.87109375 93.12890625 39.87109375 93 43 C89.80364746 45.13090169 88.82552422 45.27195585 85.1328125 45.37890625 C84.16996338 45.41250244 83.20711426 45.44609863 82.21508789 45.48071289 C81.19535889 45.50770264 80.17562988 45.53469238 79.125 45.5625 C77.04291173 45.63376992 74.96087888 45.70667821 72.87890625 45.78125 C71.87102051 45.81605469 70.86313477 45.85085937 69.82470703 45.88671875 C64.53713874 46.09876989 59.27009932 46.52457837 54 47 C54.20625 47.94875 54.4125 48.8975 54.625 49.875 C55.35715457 54.75937364 54.15362951 59.2615383 53 64 C50.525 64.495 50.525 64.495 48 65 C48 64.34 48 63.68 48 63 C48.66 63 49.32 63 50 63 C50.309375 62.01 50.61875 61.02 50.9375 60 C51.11152344 59.443125 51.28554687 58.88625 51.46484375 58.3125 C52.25377007 54.90341694 52.59813815 51.47556192 53 48 C51.61554688 48.19916016 51.61554688 48.19916016 50.203125 48.40234375 C41.52679942 49.57690561 32.93047917 50.30093907 24.18286133 50.67114258 C18.50429364 50.91168956 12.86860842 51.31380628 7.21484375 51.9140625 C5 52 5 52 2 51 C2.25 49.125 2.25 49.125 3 47 C5.8602167 45.21162023 8.26991558 44.70085868 11.60546875 44.47265625 C12.49927246 44.4041748 13.39307617 44.33569336 14.31396484 44.26513672 C15.73636475 44.16483154 15.73636475 44.16483154 17.1875 44.0625 C26.9330258 43.28822452 36.41684344 41.90646351 46 40 C45.67 39.01 45.34 38.02 45 37 C44.01 36.505 44.01 36.505 43 36 C41 35 41 35 40 32 C39.01 31.67 38.02 31.34 37 31 C37 30.34 37 29.68 37 29 C36.34 29 35.68 29 35 29 C35 28.34 35 27.68 35 27 C37.875 27.25 37.875 27.25 41 28 C42.375 30.0625 42.375 30.0625 43 32 C43.66 32 44.32 32 45 32 C45 32.66 45 33.32 45 34 C45.66 34 46.32 34 47 34 C47.66 35.98 48.32 37.96 49 40 C50.051875 39.71125 51.10375 39.4225 52.1875 39.125 C57.15073503 37.86859759 62.17654526 37.17591418 67.2421875 36.46484375 C69.95058463 36.14651169 69.95058463 36.14651169 72 35 C66.08297661 31.40697546 60.09549087 28.82869479 53.609375 26.4375 C50.40300712 25.160505 47.37535846 23.74119946 44.29272461 22.203125 C34.40694343 17.28800014 24.19679739 13.98344923 13.65234375 10.76171875 C11.76761427 10.17645568 9.88345267 9.58935909 8 9 C7.17902832 8.75072754 6.35805664 8.50145508 5.51220703 8.24462891 C3.31640625 7.51953125 3.31640625 7.51953125 0 6 C-0.76977539 4.0300293 -0.76977539 4.0300293 -1 2 C-0.67 1.34 -0.34 0.68 0 0 Z " fill="#9A422C" transform="translate(123,167)"/>
<path d="M0 0 C4.46591479 0.51039026 6.65448494 2.06247458 10 5 C22.28950922 15.32841732 35.67155879 23.8905196 51 29 C49.58164226 32.30222778 47.89324118 34.27623041 45.1875 36.625 C44.52105469 37.21539062 43.85460937 37.80578125 43.16796875 38.4140625 C37.22736409 42.75980213 31.10178627 42.68354693 24 42 C15.78233176 40.2203015 10.05082153 35.60186121 5 29 C-0.82551912 19.74450233 -0.56094205 10.52077983 0 0 Z " fill="#F16363" transform="translate(291,243)"/>
<path d="M0 0 C2.64590014 -0.02684679 5.29153096 -0.04676357 7.9375 -0.0625 C8.69224609 -0.07087891 9.44699219 -0.07925781 10.22460938 -0.08789062 C12.14994313 -0.09652441 14.07535581 -0.05224333 16 0 C16.33 0.33 16.66 0.66 17 1 C18.4540625 0.7525 18.4540625 0.7525 19.9375 0.5 C24.09193857 0.4224275 26.23849832 2.42955074 29.3125 5.0625 C33.8906728 9.50867692 35.81968334 12.74753221 36.09375 19.2109375 C36.12083422 21.14068796 36.06767556 23.07124641 36 25 C35.34 25 34.68 25 34 25 C34 28.96 34 32.92 34 37 C33.31292969 36.43023437 32.62585938 35.86046875 31.91796875 35.2734375 C28.82636414 32.86471744 25.61788113 30.72194758 22.3125 28.625 C21.69600586 28.23143311 21.07951172 27.83786621 20.44433594 27.43237305 C15.35134617 24.19396783 10.19385097 21.07373804 5 18 C2.40807395 16.43357513 -0.18325056 14.86617393 -2.7734375 13.296875 C-4.8144791 12.10805779 -6.87461305 11.0287261 -9 10 C-8.60856977 7.72970466 -8.11258722 6.16591802 -6.8125 4.25 C-4.21312784 2.45732954 -2.07660784 2.79489281 1 3 C0.67 2.01 0.34 1.02 0 0 Z " fill="#F56564" transform="translate(310,232)"/>
<path d="M0 0 C1.65 0 3.3 0 5 0 C5.67154933 1.28913487 6.33708859 2.58140204 7 3.875 C7.37125 4.59429687 7.7425 5.31359375 8.125 6.0546875 C9 8 9 8 9 10 C9.5775 10.268125 10.155 10.53625 10.75 10.8125 C13 12 13 12 14.70703125 13.4765625 C17.71579353 15.47556981 20.3904083 15.91114528 23.9375 16.5625 C24.5977417 16.68834473 25.2579834 16.81418945 25.93823242 16.94384766 C30.21467866 17.74187176 34.49651196 18.32653121 38.8125 18.875 C47.7607362 20.21284904 54.2267094 24.25664989 61.2734375 29.703125 C65.8280011 33.12419992 69.21009899 33.17773967 74.6640625 32.42578125 C76.87493108 32.02279684 79.01662824 31.51556738 81.1875 30.9375 C85.31153438 29.92339318 89.08530529 29.04265265 93 31 C93.042721 32.66611905 93.04063832 34.33382885 93 36 C91.50858915 37.49141085 89.92634277 37.51680089 87.875 37.9375 C85.00952221 38.53767094 82.35447702 39.21126207 79.5625 40.125 C74.98423097 41.24948713 70.68786439 41.16978181 66 41 C66 43.31 66 45.62 66 48 C65.67 48 65.34 48 65 48 C64.505 43.545 64.505 43.545 64 39 C67.01490557 37.99503148 69.04181692 37.89664697 72.1875 37.9375 C73.08855469 37.94652344 73.98960937 37.95554687 74.91796875 37.96484375 C75.60503906 37.97644531 76.29210937 37.98804688 77 38 C77 37.34 77 36.68 77 36 C76.21496094 36.04640625 75.42992187 36.0928125 74.62109375 36.140625 C67.74995939 36.37668851 63.60180988 36.07404355 58 32 C57.67 32.99 57.34 33.98 57 35 C56.41992188 34.60167969 55.83984375 34.20335937 55.2421875 33.79296875 C50.9360712 30.87248393 46.725837 28.18115554 42 26 C41.96261719 26.82242187 41.92523438 27.64484375 41.88671875 28.4921875 C41.46019124 35.73479187 40.45264219 42.1665378 38 49 C35.525 49.495 35.525 49.495 33 50 C33.48061979 41.73002496 35.01143429 34.04072223 37 26 C31.06 25.01 25.12 24.02 19 23 C19.33 25.64 19.66 28.28 20 31 C19.67 30.01 19.34 29.02 19 28 C18.34 28 17.68 28 17 28 C16.67 27.01 16.34 26.02 16 25 C15.34 25 14.68 25 14 25 C14 23.68 14 22.36 14 21 C13.319375 20.835 12.63875 20.67 11.9375 20.5 C5.98233367 17.459064 1.22589429 11.26032768 -1 5 C-0.6875 2.125 -0.6875 2.125 0 0 Z " fill="#913E2C" transform="translate(203,247)"/>
<path d="M0 0 C-1.65 0.33 -3.3 0.66 -5 1 C-5 0.34 -5 -0.32 -5 -1 C-9.95 -0.67 -14.9 -0.34 -20 0 C-20 0.66 -20 1.32 -20 2 C-21.98 2 -23.96 2 -26 2 C-26.33 2.99 -26.66 3.98 -27 5 C-27.66 5.66 -28.32 6.32 -29 7 C-29 7.66 -29 8.32 -29 9 C-28.31035156 9.37511719 -27.62070312 9.75023437 -26.91015625 10.13671875 C-24.93642773 11.21157502 -22.96384853 12.28854342 -20.9921875 13.3671875 C-19.25133761 14.31715519 -17.50784465 15.26236853 -15.7578125 16.1953125 C-6.10058815 21.40656942 3.17561775 27.48676548 12 34 C11.979375 32.72125 11.95875 31.4425 11.9375 30.125 C11.875 26.25 11.875 26.25 13 24 C13.66 24 14.32 24 15 24 C14.505 18.06 14.505 18.06 14 12 C17.87687067 17.815306 16.01410385 25.92149262 15.51171875 32.67578125 C14.88189895 35.53641318 13.60423431 37.5699936 12 40 C-1.64347873 35.15444373 -13.48489898 28.8142276 -25 20 C-26.64439974 18.75821877 -28.29128295 17.51981202 -29.93920898 16.28271484 C-31.48470854 15.12097521 -33.025682 13.95322158 -34.56640625 12.78515625 C-36.85058117 11.00452873 -36.85058117 11.00452873 -39 10 C-39.6875 8 -39.6875 8 -40 6 C-38.33657163 4.33657163 -36.2174291 4.63951903 -33.9375 4.4375 C-32.55884766 4.31181641 -32.55884766 4.31181641 -31.15234375 4.18359375 C-30.44207031 4.12300781 -29.73179687 4.06242188 -29 4 C-28.87753906 3.36449219 -28.75507813 2.72898438 -28.62890625 2.07421875 C-28 0 -28 0 -25.9375 -1.1875 C-17.97377002 -3.39023382 -7.14683074 -4.76455383 0 0 Z " fill="#A4402D" transform="translate(331,233)"/>
<path d="M0 0 C55.38125535 -1.58736082 55.38125535 -1.58736082 70 12 C69.67 13.65 69.34 15.3 69 17 C64.5616257 16.42918546 60.25768603 15.64118383 55.89746094 14.64208984 C46.17263983 12.42924379 36.45835368 11.07636037 26.54150391 10.03955078 C19.1528416 9.24533744 12.72681074 8.25638165 6.1875 4.5 C5.43855469 4.0771875 4.68960937 3.654375 3.91796875 3.21875 C2 2 2 2 0 0 Z " fill="#9F412A" transform="translate(283,211)"/>
<path d="M0 0 C4.75 1.875 4.75 1.875 7 3 C9.0374763 3.22858114 11.08040303 3.41024278 13.125 3.5625 C14.76855469 3.68818359 14.76855469 3.68818359 16.4453125 3.81640625 C17.70988281 3.90728516 17.70988281 3.90728516 19 4 C19 4.66 19 5.32 19 6 C12.565 6.495 12.565 6.495 6 7 C6.33 7.66 6.66 8.32 7 9 C8.51622565 20.93486187 4.72611768 34.06809228 0 45 C-1.32 44.67 -2.64 44.34 -4 44 C-4 46.31 -4 48.62 -4 51 C-4.66 51 -5.32 51 -6 51 C-6 51.66 -6 52.32 -6 53 C-6.99 53 -7.98 53 -9 53 C-9.33 55.64 -9.66 58.28 -10 61 C-12.31 61.66 -14.62 62.32 -17 63 C-16.01 60.03 -16.01 60.03 -15 57 C-15.66 56.67 -16.32 56.34 -17 56 C-16.25878906 54.91847656 -15.51757812 53.83695312 -14.75390625 52.72265625 C-11.54990094 47.58654207 -9.76274502 42.18093159 -7.9375 36.4375 C-7.42316406 34.85328247 -7.42316406 34.85328247 -6.8984375 33.23706055 C-0.60400589 17.65313807 -0.60400589 17.65313807 -1 2 C-0.67 1.34 -0.34 0.68 0 0 Z " fill="#9E422E" transform="translate(261,279)"/>
<path d="M0 0 C6.99145512 -0.52765699 13.23826116 1.40271411 19.9375 3.25 C21.64969727 3.70052734 21.64969727 3.70052734 23.39648438 4.16015625 C28.99103169 5.67918412 34.14248253 7.31459816 39.24536133 10.07617188 C43.05692988 12.08298632 47.20245103 13.38001116 51.2421875 14.8515625 C54 16 54 16 56 18 C54.9790625 17.7834375 54.9790625 17.7834375 53.9375 17.5625 C50.63726918 16.93054091 47.32855574 16.45686059 44 16 C43.34 16.99 42.68 17.98 42 19 C45.96 19.99 49.92 20.98 54 22 C54 22.66 54 23.32 54 24 C54.66 24 55.32 24 56 24 C56 24.66 56 25.32 56 26 C57.65 26 59.3 26 61 26 C61 26.99 61 27.98 61 29 C54.83449942 27.12060399 49.23572339 24.72794406 43.5 21.8125 C33.84659777 17.05688793 23.86043011 13.84714369 13.58203125 10.7265625 C11.72068454 10.15321107 9.85995688 9.57784413 8 9 C7.18192871 8.75217773 6.36385742 8.50435547 5.52099609 8.24902344 C3.32421875 7.5234375 3.32421875 7.5234375 0 6 C-0.77026367 4.02978516 -0.77026367 4.02978516 -1 2 C-0.67 1.34 -0.34 0.68 0 0 Z " fill="#913F2F" transform="translate(123,167)"/>
<path d="M0 0 C2.875 0.25 2.875 0.25 6 1 C7.375 3.0625 7.375 3.0625 8 5 C8.66 5 9.32 5 10 5 C10 5.66 10 6.32 10 7 C10.66 7 11.32 7 12 7 C13.4606285 9.64738916 14 10.89448334 14 14 C15.47906892 14.02689216 16.95827483 14.04634621 18.4375 14.0625 C19.67306641 14.07990234 19.67306641 14.07990234 20.93359375 14.09765625 C22.99163938 14.23267348 22.99163938 14.23267348 24 13 C26.33297433 12.95907063 28.66705225 12.95758277 31 13 C30.67 13.66 30.34 14.32 30 15 C30.99 15.99 30.99 15.99 32 17 C31.00097656 17.12117188 30.00195312 17.24234375 28.97265625 17.3671875 C27.68230469 17.53476563 26.39195312 17.70234375 25.0625 17.875 C23.13083984 18.11863281 23.13083984 18.11863281 21.16015625 18.3671875 C20.11730469 18.57601562 19.07445312 18.78484375 18 19 C17.67 19.66 17.34 20.32 17 21 C7.12524484 23.20560225 -3.21768641 23.35526614 -13.2890625 23.77734375 C-18.13933619 23.98649113 -22.95758309 24.40152245 -27.78515625 24.9140625 C-30 25 -30 25 -33 24 C-32.75 22.125 -32.75 22.125 -32 20 C-29.1397833 18.21162023 -26.73008442 17.70085868 -23.39453125 17.47265625 C-22.50072754 17.4041748 -21.60692383 17.33569336 -20.68603516 17.26513672 C-19.26363525 17.16483154 -19.26363525 17.16483154 -17.8125 17.0625 C-8.0669742 16.28822452 1.41684344 14.90646351 11 13 C10.505 11.515 10.505 11.515 10 10 C9.34 9.67 8.68 9.34 8 9 C6 8 6 8 5 5 C4.01 4.67 3.02 4.34 2 4 C2 3.34 2 2.68 2 2 C1.34 2 0.68 2 0 2 C0 1.34 0 0.68 0 0 Z " fill="#AB4231" transform="translate(158,194)"/>
<path d="M0 0 C0.75 2.21484375 0.75 2.21484375 1 5 C-2.53773526 10.04297358 -7.52628103 14.10255846 -13.01953125 16.85546875 C-15.72623394 18.41969733 -18.05295531 20.368586 -20.5 22.3125 C-25.1272296 25.83550435 -29.74549209 28.63551668 -35 31.125 C-35.63486328 31.43219971 -36.26972656 31.73939941 -36.92382812 32.0559082 C-39.60155273 33.26840195 -41.48274656 34.06797241 -44.4375 33.6796875 C-44.953125 33.45539063 -45.46875 33.23109375 -46 33 C-46.33 31.35 -46.66 29.7 -47 28 C-45.74509766 27.41605469 -45.74509766 27.41605469 -44.46484375 26.8203125 C-31.38364958 20.53322693 -19.66613114 12.75862535 -8.56640625 3.40332031 C-5.33613433 0.74795988 -4.3461359 0 0 0 Z " fill="#813929" transform="translate(308,151)"/>
<path d="M0 0 C2.375 0 2.375 0 5 1 C6.9744115 4.58319123 7.90628097 7.57664853 8.79296875 11.58203125 C10.32734164 17.8345465 13.22187035 23.56910413 15.8984375 29.3984375 C17.98545209 34.0874443 19.61107814 37.74472799 19 43 C17.25 43.75 17.25 43.75 15 44 C11.21804214 40.98648776 9.81897153 37.70983464 8.125 33.25 C7.87669434 32.59894287 7.62838867 31.94788574 7.37255859 31.27709961 C6.84715884 29.89640175 6.3259279 28.51411127 5.80859375 27.13037109 C4.99507632 24.98702777 4.14324127 22.86254368 3.28125 20.73828125 C2.72861308 19.34657386 2.17651425 17.95465267 1.625 16.5625 C1.36219238 15.92538086 1.09938477 15.28826172 0.82861328 14.63183594 C-1.02714669 9.83851635 -1.31894387 6.05361059 -1 1 C-0.67 0.67 -0.34 0.34 0 0 Z " fill="#6B3023" transform="translate(203,139)"/>
<path d="M0 0 C1.65 0 3.3 0 5 0 C5.433125 1.216875 5.86625 2.43375 6.3125 3.6875 C8.53875473 9.90520738 8.53875473 9.90520738 13.1875 14.3125 C13.785625 14.539375 14.38375 14.76625 15 15 C15 14.34 15 13.68 15 13 C15.66 13 16.32 13 17 13 C17.33 11.35 17.66 9.7 18 8 C20.375 7.375 20.375 7.375 23 7 C23.66 7.66 24.32 8.32 25 9 C24.67896556 12.95942471 23.39904975 15.85641758 21 19 C17.63715635 21.34616999 14.9875542 22.26882352 10.9375 22.0625 C7.32106325 21.3999467 5.22332767 20.01617002 3.03515625 16.9453125 C0.07696465 11.38614489 -1.60998644 6.18631775 0 0 Z " fill="#7C392A" transform="translate(136,244)"/>
<path d="M0 0 C1.32 0 2.64 0 4 0 C5.62367846 2.56370283 6.1024266 4.38138391 5.60546875 7.3828125 C4.25362117 12.22633058 2.91961283 16.64033186 -1 20 C-3.9375 20.625 -3.9375 20.625 -7 20 C-9.87365973 17.95650863 -11.62116858 16.3899194 -12.56640625 12.921875 C-12.875 10.75 -12.875 10.75 -13 7 C-12 6 -12 6 -9.625 5.625 C-8.75875 5.74875 -7.8925 5.8725 -7 6 C-5.1875 8.5 -5.1875 8.5 -4 11 C-3.79503906 10.28972656 -3.59007812 9.57945312 -3.37890625 8.84765625 C-3.10949219 7.92855469 -2.84007812 7.00945312 -2.5625 6.0625 C-2.29566406 5.14597656 -2.02882812 4.22945313 -1.75390625 3.28515625 C-1 1 -1 1 0 0 Z " fill="#733326" transform="translate(168,270)"/>
<path d="M0 0 C0.042721 1.66611905 0.04063832 3.33382885 0 5 C-1.49141085 6.49141085 -3.07365723 6.51680089 -5.125 6.9375 C-7.99047779 7.53767094 -10.64552298 8.21126207 -13.4375 9.125 C-18.01576903 10.24948713 -22.31213561 10.16978181 -27 10 C-27 12.31 -27 14.62 -27 17 C-27.33 17 -27.66 17 -28 17 C-28.33 14.03 -28.66 11.06 -29 8 C-25.98509443 6.99503148 -23.95818308 6.89664697 -20.8125 6.9375 C-19.91144531 6.94652344 -19.01039063 6.95554687 -18.08203125 6.96484375 C-17.39496094 6.97644531 -16.70789063 6.98804688 -16 7 C-16 6.34 -16 5.68 -16 5 C-16.81984375 5.04640625 -17.6396875 5.0928125 -18.484375 5.140625 C-19.56203125 5.17671875 -20.6396875 5.2128125 -21.75 5.25 C-23.35101563 5.31960938 -23.35101563 5.31960938 -24.984375 5.390625 C-28.63802112 4.91735478 -29.72228105 3.80844958 -32 1 C-31.34 0.67 -30.68 0.34 -30 0 C-29.319375 0.33 -28.63875 0.66 -27.9375 1 C-22.5699869 2.8272385 -17.17661127 1.36587446 -11.8125 -0.0625 C-7.68846562 -1.07660682 -3.91469471 -1.95734735 0 0 Z " fill="#8F4434" transform="translate(296,278)"/>
<path d="M0 0 C1.65 0 3.3 0 5 0 C5.67154933 1.28913487 6.33708859 2.58140204 7 3.875 C7.37125 4.59429687 7.7425 5.31359375 8.125 6.0546875 C9 8 9 8 9 10 C9.5775 10.268125 10.155 10.53625 10.75 10.8125 C13 12 13 12 14.65625 13.46875 C17.82213998 15.53713145 21.0880098 16.05409338 24.75 16.6875 C25.79607422 16.88182617 25.79607422 16.88182617 26.86328125 17.08007812 C28.57375889 17.39639933 30.28666725 17.69952747 32 18 C32 18.33 32 18.66 32 19 C25.56688704 19.09507063 19.34241995 19.15316726 13 18 C12.67 18.66 12.34 19.32 12 20 C6.36673991 17.51795884 3.24237407 13.00382914 0.0625 7.875 C-1.11006429 4.70217898 -1.02818238 3.17801826 0 0 Z " fill="#863E2C" transform="translate(203,247)"/>
<path d="M0 0 C3.87687067 5.815306 2.01410385 13.92149262 1.51171875 20.67578125 C0.88189895 23.53641318 -0.39576569 25.5699936 -2 28 C-8.97185099 25.4419073 -15.69569275 22.95851851 -22 19 C-18.25 17 -18.25 17 -16 17 C-16.33 15.35 -16.66 13.7 -17 12 C-15.24870343 13.10210905 -13.49901536 14.20677432 -11.75 15.3125 C-10.77546875 15.92738281 -9.8009375 16.54226563 -8.796875 17.17578125 C-6.45266287 18.70475759 -4.21215968 20.28820977 -2 22 C-2.020625 20.72125 -2.04125 19.4425 -2.0625 18.125 C-2.125 14.25 -2.125 14.25 -1 12 C-0.34 12 0.32 12 1 12 C0.67 8.04 0.34 4.08 0 0 Z " fill="#A9412E" transform="translate(345,245)"/>
<path d="M0 0 C5.52384018 0.61307195 10.84994965 1.50355243 16.25 2.8125 C16.94351562 2.96525391 17.63703125 3.11800781 18.3515625 3.27539062 C22.61949004 4.30966808 25.36080418 5.41921609 28 9 C27.75 11.75 27.75 11.75 27 14 C21.28462574 13.26328283 15.69457444 12.14957381 10.0625 10.9375 C9.18787109 10.75123047 8.31324219 10.56496094 7.41210938 10.37304688 C5.27429472 9.91744703 3.13708418 9.45901408 1 9 C1 8.67 1 8.34 1 8 C1.83144531 8.01160156 2.66289062 8.02320313 3.51953125 8.03515625 C5.14955078 8.04869141 5.14955078 8.04869141 6.8125 8.0625 C8.43091797 8.07990234 8.43091797 8.07990234 10.08203125 8.09765625 C13.06512169 8.13624766 13.06512169 8.13624766 16 7 C16 6.34 16 5.68 16 5 C13.02148438 5.09765625 13.02148438 5.09765625 10.04296875 5.1953125 C8 5 8 5 5 3 C3.34450469 2.61500109 1.6777567 2.27206865 0 2 C0 1.34 0 0.68 0 0 Z " fill="#833826" transform="translate(325,214)"/>
<path d="M0 0 C-1.65 0.33 -3.3 0.66 -5 1 C-5 0.34 -5 -0.32 -5 -1 C-9.95 -0.67 -14.9 -0.34 -20 0 C-20 0.66 -20 1.32 -20 2 C-21.98 2 -23.96 2 -26 2 C-26.33 2.99 -26.66 3.98 -27 5 C-27.66 5.66 -28.32 6.32 -29 7 C-29 7.66 -29 8.32 -29 9 C-28.01 9.33 -27.02 9.66 -26 10 C-26.33 10.66 -26.66 11.32 -27 12 C-27.66 11.67 -28.32 11.34 -29 11 C-28.42655063 13.86724686 -28.1385485 14.8614515 -26 17 C-29.58351346 17 -30.32105732 16.24028157 -33.0625 14.0625 C-35.89484916 11.81660545 -35.89484916 11.81660545 -39 10 C-39.6875 8 -39.6875 8 -40 6 C-38.33657163 4.33657163 -36.2174291 4.63951903 -33.9375 4.4375 C-32.55884766 4.31181641 -32.55884766 4.31181641 -31.15234375 4.18359375 C-30.44207031 4.12300781 -29.73179687 4.06242188 -29 4 C-28.87753906 3.36449219 -28.75507813 2.72898438 -28.62890625 2.07421875 C-28 0 -28 0 -25.9375 -1.1875 C-17.97377002 -3.39023382 -7.14683074 -4.76455383 0 0 Z " fill="#AE4131" transform="translate(331,233)"/>
<path d="M0 0 C4.97306516 0.49730652 8.63799813 1.55302334 13 4 C13 4.66 13 5.32 13 6 C13.70125 6.0825 14.4025 6.165 15.125 6.25 C18.6903452 7.18009005 21.09015572 8.76686369 24 11 C24 11.66 24 12.32 24 13 C25.32 13.33 26.64 13.66 28 14 C26 16 26 16 23.125 16.375 C19.30333666 15.9164004 18.52349305 14.77584236 16 12 C13.8618034 11.2127322 13.8618034 11.2127322 12 11 C12 10.34 12 9.68 12 9 C11.34 9 10.68 9 10 9 C10 8.34 10 7.68 10 7 C9.319375 7.061875 8.63875 7.12375 7.9375 7.1875 C4.08063875 6.94131737 1.48920406 5.64197838 -2 4 C-1.34 2.68 -0.68 1.36 0 0 Z " fill="#99402D" transform="translate(167,182)"/>
<path d="M0 0 C0.99 0 1.98 0 3 0 C4.0625 1.875 4.0625 1.875 5 4 C4 6 4 6 2 7 C0.13571588 9.64924585 -0.00761569 10.90289998 0.25 14.1875 C0.4975 15.115625 0.745 16.04375 1 17 C1.66 17.33 2.32 17.66 3 18 C2.34 18 1.68 18 1 18 C1 18.66 1 19.32 1 20 C0.01 20 -0.98 20 -2 20 C-2.33 22.64 -2.66 25.28 -3 28 C-5.31 28.66 -7.62 29.32 -10 30 C-9.34 28.02 -8.68 26.04 -8 24 C-8.66 23.67 -9.32 23.34 -10 23 C-9.278125 21.989375 -8.55625 20.97875 -7.8125 19.9375 C-3.94325154 13.82408744 -2.10133388 6.86733796 0 0 Z " fill="#A34734" transform="translate(254,312)"/>
<path d="M0 0 C3.67611515 0.8058479 7.11111382 2.10095413 10.625 3.4375 C11.77226562 3.86933594 12.91953125 4.30117187 14.1015625 4.74609375 C17 6 17 6 19 8 C17.9790625 7.7834375 17.9790625 7.7834375 16.9375 7.5625 C13.63726918 6.93054091 10.32855574 6.45686059 7 6 C6.01 7.485 6.01 7.485 5 9 C10.94 10.485 10.94 10.485 17 12 C17 12.66 17 13.32 17 14 C17.66 14 18.32 14 19 14 C19 14.66 19 15.32 19 16 C20.65 16 22.3 16 24 16 C24 16.99 24 17.98 24 19 C17.4305178 16.99117459 11.30521497 14.42525377 5.125 11.4375 C4.28453125 11.03853516 3.4440625 10.63957031 2.578125 10.22851562 C-0.77677247 8.62341692 -3.89840406 7.06773063 -7 5 C-5.824375 4.87625 -5.824375 4.87625 -4.625 4.75 C-1.85250896 4.27193661 -1.85250896 4.27193661 -0.6875 1.9375 C-0.460625 1.298125 -0.23375 0.65875 0 0 Z " fill="#61291D" transform="translate(160,177)"/>
<path d="M0 0 C3.99776602 0.6144013 8.02760458 0.97423142 12.05029297 1.38720703 C12.92492187 1.47808594 13.79955078 1.56896484 14.70068359 1.66259766 C16.83792947 1.8844975 18.97534424 2.10476975 21.11279297 2.32470703 C21.11279297 2.65470703 21.11279297 2.98470703 21.11279297 3.32470703 C19.13279297 3.32470703 17.15279297 3.32470703 15.11279297 3.32470703 C15.11279297 4.31470703 15.11279297 5.30470703 15.11279297 6.32470703 C16.10279297 6.65470703 17.09279297 6.98470703 18.11279297 7.32470703 C12.20018952 7.58177675 6.87361138 6.62291963 1.11279297 5.32470703 C1.44279297 7.96470703 1.77279297 10.60470703 2.11279297 13.32470703 C1.78279297 12.33470703 1.45279297 11.34470703 1.11279297 10.32470703 C0.45279297 10.32470703 -0.20720703 10.32470703 -0.88720703 10.32470703 C-1.21720703 9.33470703 -1.54720703 8.34470703 -1.88720703 7.32470703 C-2.54720703 7.32470703 -3.20720703 7.32470703 -3.88720703 7.32470703 C-3.88720703 6.00470703 -3.88720703 4.68470703 -3.88720703 3.32470703 C-5.30388173 1.57354974 -5.30388173 1.57354974 -6.88720703 0.32470703 C-4.35597625 -0.94090836 -2.71985614 -0.43932341 0 0 Z " fill="#9C4434" transform="translate(220.88720703125,264.67529296875)"/>
<path d="M0 0 C10.94971197 3.23106255 20.31381753 9.07482981 30 15 C28 16 28 16 25.8359375 15.44140625 C24.61777344 15.00634766 24.61777344 15.00634766 23.375 14.5625 C22.14910156 14.13130859 22.14910156 14.13130859 20.8984375 13.69140625 C20.27195313 13.46324219 19.64546875 13.23507813 19 13 C19.33 15.31 19.66 17.62 20 20 C14.58461538 21.23076923 14.58461538 21.23076923 11.625 20.0625 C10.820625 19.5365625 10.820625 19.5365625 10 19 C11.98 18.34 13.96 17.68 16 17 C14.35 16.01 12.7 15.02 11 14 C12.32 13.01 13.64 12.02 15 11 C14.01 10.67 13.02 10.34 12 10 C11.52820313 9.525625 11.05640625 9.05125 10.5703125 8.5625 C8.29948705 6.30297219 5.6449755 5.33845077 2.7421875 4.0625 C1 3 1 3 0 0 Z " fill="#853A2A" transform="translate(179,185)"/>
<path d="M0 0 C6.67892044 -0.45473501 12.5305703 1.23421677 18.9375 3 C20.00291016 3.28617188 21.06832031 3.57234375 22.16601562 3.8671875 C24.77954752 4.57037994 27.39064415 5.28149557 30 6 C30 6.33 30 6.66 30 7 C25.33939221 7.19419199 21.08674588 7.17440392 16.5625 5.9375 C13.18873967 4.63058241 13.18873967 4.63058241 11 6 C11 6.66 11 7.32 11 8 C12.32 8 13.64 8 15 8 C15 8.66 15 9.32 15 10 C3.17023285 7.84078037 3.17023285 7.84078037 0 6 C-0.875 4 -0.875 4 -1 2 C-0.67 1.34 -0.34 0.68 0 0 Z " fill="#5E271C" transform="translate(123,167)"/>
<path d="M0 0 C1.11181641 0.09087891 1.11181641 0.09087891 2.24609375 0.18359375 C9.6601459 0.77630073 9.6601459 0.77630073 17.0859375 1.18359375 C26.95147312 1.61711764 36.3444765 2.93374396 46 5 C42.14372479 6.38207357 38.92557419 5.68322772 34.9375 5.0625 C25.62012069 3.72235905 16.39272611 3.81622927 7 4 C9.64 5.32 12.28 6.64 15 8 C10.88946106 9.02763473 8.80822215 8.60196173 4.79296875 7.61328125 C-0.74330438 6.39762407 -6.38497542 5.75079987 -12 5 C-12 4.67 -12 4.34 -12 4 C-7.38 4 -2.76 4 2 4 C2 3.01 2 2.02 2 1 C1.34 0.67 0.68 0.34 0 0 Z " fill="#5A251C" transform="translate(278,208)"/>
<path d="M0 0 C0.99 0.66 1.98 1.32 3 2 C2.56615452 9.03128878 1.25678003 15.329015 -1 22 C-2.65 22.33 -4.3 22.66 -6 23 C-4.87090689 7.37097426 -4.87090689 7.37097426 -3 2 C-2.01 1.34 -1.02 0.68 0 0 Z " fill="#A14633" transform="translate(242,274)"/>
<path d="M0 0 C1.75 0.125 1.75 0.125 4 1 C8.28133684 6.54055356 10.32609553 10.98894621 10 18 C8.25 18.75 8.25 18.75 6 19 C3.10794072 17.29878866 2.17005333 15.63053482 1.3046875 12.421875 C0.50459625 8.20730983 0 4.29885412 0 0 Z " fill="#883B2B" transform="translate(212,164)"/>
<path d="M0 0 C2.875 0.25 2.875 0.25 6 1 C7.375 3.0625 7.375 3.0625 8 5 C8.66 5 9.32 5 10 5 C10 5.66 10 6.32 10 7 C10.66 7 11.32 7 12 7 C13.4606285 9.64738916 14 10.89448334 14 14 C15.47906892 14.02689216 16.95827483 14.04634621 18.4375 14.0625 C19.67306641 14.07990234 19.67306641 14.07990234 20.93359375 14.09765625 C22.99163938 14.23267348 22.99163938 14.23267348 24 13 C26.33297433 12.95907063 28.66705225 12.95758277 31 13 C30.67 13.66 30.34 14.32 30 15 C30.66 15.66 31.32 16.32 32 17 C29.58388467 17.22237877 27.1682283 17.42832339 24.75 17.625 C23.72712891 17.72167969 23.72712891 17.72167969 22.68359375 17.8203125 C18.8996374 18.11421202 16.12438549 18.30609405 13 16 C11 13 11 13 10 10 C9.34 9.67 8.68 9.34 8 9 C6 8 6 8 5 5 C4.01 4.67 3.02 4.34 2 4 C2 3.34 2 2.68 2 2 C1.34 2 0.68 2 0 2 C0 1.34 0 0.68 0 0 Z " fill="#A0412B" transform="translate(158,194)"/>
<path d="M0 0 C4.63708939 2.60836278 8.78744458 5.77002574 13 9 C11.66666667 9.33333333 10.33333333 9.66666667 9 10 C7.88625 10.2784375 7.88625 10.2784375 6.75 10.5625 C5.88375 10.7790625 5.88375 10.7790625 5 11 C5.99 12.485 5.99 12.485 7 14 C4.06120516 12.64763423 1.70767089 11.10057341 -0.75 9 C-1.36359375 8.484375 -1.9771875 7.96875 -2.609375 7.4375 C-4 6 -4 6 -4 4 C-4.66 4 -5.32 4 -6 4 C-5.67 3.34 -5.34 2.68 -5 2 C-3.33333333 2 -1.66666667 2 0 2 C0 1.34 0 0.68 0 0 Z " fill="#723024" transform="translate(265,213)"/>
<path d="M0 0 C1.8125 1.5625 1.8125 1.5625 3 3 C2.20722656 3.19722656 2.20722656 3.19722656 1.3984375 3.3984375 C-0.41129783 3.85234506 -2.21811597 4.31790624 -4.0234375 4.7890625 C-5.68246094 5.20285156 -5.68246094 5.20285156 -7.375 5.625 C-8.47585937 5.90601563 -9.57671875 6.18703125 -10.7109375 6.4765625 C-14.13127135 7.02089117 -16.64246717 6.76077028 -20 6 C-20.33 5.01 -20.66 4.02 -21 3 C-14.25 1.875 -14.25 1.875 -12 3 C-12 2.34 -12 1.68 -12 1 C-4.32 -1.56 -4.32 -1.56 0 0 Z " fill="#A13F2A" transform="translate(173,209)"/>
<path d="M0 0 C0.433125 0.474375 0.86625 0.94875 1.3125 1.4375 C3.02309613 3.23686957 3.02309613 3.23686957 6 4 C6 4.66 6 5.32 6 6 C4.04072937 7.7143618 2.04119788 9.38405168 0 11 C-0.66 10.67 -1.32 10.34 -2 10 C-2 15.61 -2 21.22 -2 27 C-1.34 27.33 -0.68 27.66 0 28 C0 28.99 0 29.98 0 31 C-4.1342566 27.39919586 -4.73909977 24.7843615 -5.23828125 19.45703125 C-5.43291342 12.52197971 -4.1679765 7.18327942 -1 1 C-0.67 0.67 -0.34 0.34 0 0 Z " fill="#BE5254" transform="translate(127,201)"/>
<path d="M0 0 C0.99 0 1.98 0 3 0 C3.804375 0.350625 4.60875 0.70125 5.4375 1.0625 C8.21173555 2.07746423 9.2868322 2.00487696 12 1 C12 1.66 12 2.32 12 3 C8.7 3.66 5.4 4.32 2 5 C1.67 9.95 1.34 14.9 1 20 C0.67 20 0.34 20 0 20 C-0.60582325 16.81942795 -1.02901888 14.23215103 -0.625 11 C-1.07433144 7.40534849 -1.82514425 6.91312962 -4.5 4.625 C-5.6533531 3.73252438 -6.81616883 2.85163365 -8 2 C-6.11445352 -1.77109297 -3.46590888 -0.97478687 0 0 Z " fill="#6E2E22" transform="translate(290,234)"/>
<path d="M0 0 C0.7578125 2.2109375 0.7578125 2.2109375 1 5 C-0.6953125 7.3515625 -0.6953125 7.3515625 -3.125 9.625 C-3.91132813 10.38039062 -4.69765625 11.13578125 -5.5078125 11.9140625 C-7.91827843 13.93159982 -10.19002249 15.59028064 -13 17 C-13.66 16.67 -14.32 16.34 -15 16 C-15 15.01 -15 14.02 -15 13 C-13.5459375 12.814375 -13.5459375 12.814375 -12.0625 12.625 C-11.051875 12.41875 -10.04125 12.2125 -9 12 C-8.67 11.34 -8.34 10.68 -8 10 C-8.66 10 -9.32 10 -10 10 C-9 7 -9 7 -8 6 C-8.66 5.67 -9.32 5.34 -10 5 C-4.5 0 -4.5 0 0 0 Z " fill="#682C20" transform="translate(308,151)"/>
<path d="M0 0 C1.32 0 2.64 0 4 0 C5.67050932 2.63764629 6.0946737 4.44400721 5.5703125 7.5234375 C4.15846605 12.60317368 4.15846605 12.60317368 3 15 C2.01 15.33 1.02 15.66 0 16 C-1.70754834 13.02534237 -2.27317355 10.86139168 -2.25 7.4375 C-2.25773438 6.29087891 -2.25773438 6.29087891 -2.265625 5.12109375 C-2 3 -2 3 0 0 Z " fill="#924231" transform="translate(168,270)"/>
<path d="M0 0 C4.75 1.875 4.75 1.875 7 3 C9.0374763 3.22858114 11.08040303 3.41024278 13.125 3.5625 C14.76855469 3.68818359 14.76855469 3.68818359 16.4453125 3.81640625 C17.28835938 3.87699219 18.13140625 3.93757813 19 4 C19 4.66 19 5.32 19 6 C12.565 6.495 12.565 6.495 6 7 C6 9.31 6 11.62 6 14 C5.01 13.01 4.02 12.02 3 11 C2.01 11.33 1.02 11.66 0 12 C0.03255208 9.98177083 0.06510417 7.96354167 0.09765625 5.9453125 C0.12649242 3.91814596 0.12649242 3.91814596 -1 2 C-0.67 1.34 -0.34 0.68 0 0 Z " fill="#A14029" transform="translate(261,279)"/>
<path d="M0 0 C1.66611905 -0.042721 3.33382885 -0.04063832 5 0 C6.99616554 1.99616554 6.40983427 5.81701963 6.5625 8.5625 C6.60568359 9.27341797 6.64886719 9.98433594 6.69335938 10.71679688 C6.79971777 12.47761912 6.90038846 14.2387832 7 16 C1.29964617 12.70986289 1.29964617 12.70986289 -0.05859375 9.4921875 C-0.18363281 8.62851563 -0.30867187 7.76484375 -0.4375 6.875 C-0.58058594 6.00617188 -0.72367188 5.13734375 -0.87109375 4.2421875 C-1 2 -1 2 0 0 Z " fill="#693023" transform="translate(136,244)"/>
<path d="M0 0 C0.72256485 0.0028299 1.4451297 0.00565979 2.18959045 0.00857544 C4.47162241 0.01966864 6.75324522 0.04475162 9.03515625 0.0703125 C10.59309324 0.08035639 12.15103646 0.08947976 13.70898438 0.09765625 C17.50536324 0.11957217 21.30144065 0.15402512 25.09765625 0.1953125 C25.09765625 0.5253125 25.09765625 0.8553125 25.09765625 1.1953125 C24.46899658 1.22036865 23.84033691 1.2454248 23.19262695 1.27124023 C6.12811394 1.95100073 6.12811394 1.95100073 -10.90234375 3.1953125 C-10.59296875 4.6184375 -10.59296875 4.6184375 -10.27734375 6.0703125 C-9.54518918 10.95468614 -10.74871424 15.4568508 -11.90234375 20.1953125 C-13.55234375 20.5253125 -15.20234375 20.8553125 -16.90234375 21.1953125 C-16.90234375 20.5353125 -16.90234375 19.8753125 -16.90234375 19.1953125 C-16.24234375 19.1953125 -15.58234375 19.1953125 -14.90234375 19.1953125 C-13.15933252 13.9662788 -12.52793947 9.71777565 -12.90234375 4.1953125 C-13.56234375 3.5353125 -14.22234375 2.8753125 -14.90234375 2.1953125 C-9.83691582 0.53083419 -5.34595332 -0.08047765 0 0 Z " fill="#6C3024" transform="translate(187.90234375,210.8046875)"/>
<path d="M0 0 C0.66 0.33 1.32 0.66 2 1 C0.625 2.5 0.625 2.5 -1 4 C-1.66 4 -2.32 4 -3 4 C-3 4.66 -3 5.32 -3 6 C-2.34 6.33 -1.68 6.66 -1 7 C-1 6.34 -1 5.68 -1 5 C0.98 5 2.96 5 5 5 C3.55625108 7.88749784 1.58631039 8.3475201 -1.3125 9.6875 C-2.27800781 10.14511719 -3.24351562 10.60273438 -4.23828125 11.07421875 C-7.09874188 12.03310018 -8.24257963 12.08069919 -11 11 C-11.33 9.35 -11.66 7.7 -12 6 C-10.04669132 4.96958487 -8.08718472 3.9509107 -6.125 2.9375 C-5.03445313 2.36902344 -3.94390625 1.80054688 -2.8203125 1.21484375 C-1.42425781 0.61349609 -1.42425781 0.61349609 0 0 Z " fill="#5B281E" transform="translate(273,173)"/>
<path d="M0 0 C0.66 0.33 1.32 0.66 2 1 C2.185625 2.2065625 2.185625 2.2065625 2.375 3.4375 C2.7107436 6.1135866 2.7107436 6.1135866 4.8125 7.125 C5.534375 7.41375 6.25625 7.7025 7 8 C7.54527344 8.47824219 8.09054688 8.95648438 8.65234375 9.44921875 C11.81684451 11.53957948 15.07903455 12.05254095 18.75 12.6875 C19.79607422 12.88182617 19.79607422 12.88182617 20.86328125 13.08007812 C22.57375889 13.39639933 24.28666725 13.69952747 26 14 C26 14.33 26 14.66 26 15 C19.56688704 15.09507063 13.34241995 15.15316726 7 14 C6.67 14.66 6.34 15.32 6 16 C2.63279613 14.60667426 1.0140476 13.0210714 -1 10 C1.97 10.495 1.97 10.495 5 11 C4.67 10.01 4.34 9.02 4 8 C1.98491642 7.26676204 1.98491642 7.26676204 0 7 C0 4.69 0 2.38 0 0 Z " fill="#713322" transform="translate(209,251)"/>
<path d="M0 0 C2.11386464 2.11386464 2.97008322 3.79267603 4.1875 6.5 C4.55230469 7.2940625 4.91710937 8.088125 5.29296875 8.90625 C5.52628906 9.5971875 5.75960937 10.288125 6 11 C5.67 11.66 5.34 12.32 5 13 C3.68 12.34 2.36 11.68 1 11 C1.66 14.96 2.32 18.92 3 23 C-0.12918639 21.43540681 -0.57526452 18.38073691 -1.6875 15.25 C-2.37392578 13.40148437 -2.37392578 13.40148437 -3.07421875 11.515625 C-3.98081959 8.07283701 -4.05225095 6.34169394 -3 3 C-2.67 4.32 -2.34 5.64 -2 7 C-1.34 7 -0.68 7 0 7 C0 4.69 0 2.38 0 0 Z " fill="#672E21" transform="translate(211,153)"/>
<path d="M0 0 C3.33331439 -0.02937438 6.66659483 -0.04692334 10 -0.0625 C10.93457031 -0.07087891 11.86914062 -0.07925781 12.83203125 -0.08789062 C18.32274401 -0.10708892 23.56866481 0.1865807 29 1 C29 1.33 29 1.66 29 2 C24.05 2.33 19.1 2.66 14 3 C14.33 3.99 14.66 4.98 15 6 C9.22621075 5.5188509 5.04140164 3.81532819 0 1 C0 0.67 0 0.34 0 0 Z " fill="#994230" transform="translate(283,211)"/>
<path d="M0 0 C-1.65 0.33 -3.3 0.66 -5 1 C-5 0.34 -5 -0.32 -5 -1 C-9.95 -0.67 -14.9 -0.34 -20 0 C-20 0.66 -20 1.32 -20 2 C-21.98 2 -23.96 2 -26 2 C-26.33 2.99 -26.66 3.98 -27 5 C-29 7 -29 7 -31 8 C-31.99 7.01 -32.98 6.02 -34 5 C-32.35 4.67 -30.7 4.34 -29 4 C-28.938125 3.38125 -28.87625 2.7625 -28.8125 2.125 C-28 0 -28 0 -25.9375 -1.1875 C-17.97377002 -3.39023382 -7.14683074 -4.76455383 0 0 Z " fill="#A64A49" transform="translate(331,233)"/>
<path d="M0 0 C2.29199177 0.14063135 4.58359186 0.28765943 6.875 0.4375 C8.15117187 0.51871094 9.42734375 0.59992188 10.7421875 0.68359375 C14 1 14 1 16 2 C16.33 3.32 16.66 4.64 17 6 C11.06 6 5.12 6 -1 6 C-0.67 4.02 -0.34 2.04 0 0 Z " fill="#9A432F" transform="translate(264,207)"/>
<path d="M0 0 C1.90266081 2.85399122 2.88271039 5.22092796 4 8.4375 C5.15464829 11.7526035 6.35614048 14.89574742 8 18 C5.33333333 18 2.66666667 18 0 18 C-2.125 11.375 -2.125 11.375 -1 8 C-0.34 8 0.32 8 1 8 C0.67 5.36 0.34 2.72 0 0 Z " fill="#98422F" transform="translate(214,323)"/>
<path d="M0 0 C0.33 0 0.66 0 1 0 C1.33 5.28 1.66 10.56 2 16 C2.66 16 3.32 16 4 16 C4.48198463 17.24891614 4.96045677 18.49918808 5.4375 19.75 C5.70433594 20.44609375 5.97117187 21.1421875 6.24609375 21.859375 C7 24 7 24 7.41015625 26.203125 C7.60480469 26.79609375 7.79945313 27.3890625 8 28 C8.99 28.33 9.98 28.66 11 29 C10.67 29.99 10.34 30.98 10 32 C4.04970143 27.71978523 1.83040126 23.01653816 0 16 C-0.53990247 10.66969014 -0.30487134 5.33863599 0 0 Z " fill="#A44C4D" transform="translate(291,244)"/>
<path d="M0 0 C5.69305433 1.23876645 11.35370013 2.56276003 17 4 C16.67 4.99 16.34 5.98 16 7 C11.71 6.67 7.42 6.34 3 6 C3 5.34 3 4.68 3 4 C1.68 4 0.36 4 -1 4 C-0.67 2.68 -0.34 1.36 0 0 Z " fill="#9A432E" transform="translate(135,171)"/>
<path d="M0 0 C0.99 0.33 1.98 0.66 3 1 C2.33501617 5.38889325 0.81242323 8.9811485 -1 13 C-1.66 13 -2.32 13 -3 13 C-3.2475 13.763125 -3.495 14.52625 -3.75 15.3125 C-5.10995558 18.2364045 -6.31585826 19.30004356 -9 21 C-9 19.68 -9 18.36 -9 17 C-8.34 16.67 -7.68 16.34 -7 16 C-6.26924352 13.6859378 -5.59861742 11.35171131 -5 9 C-4.01 9 -3.02 9 -2 9 C-2 8.34 -2 7.68 -2 7 C-1.34 7 -0.68 7 0 7 C0 4.69 0 2.38 0 0 Z " fill="#743428" transform="translate(257,323)"/>
<path d="M0 0 C0.66 0.33 1.32 0.66 2 1 C1.69078116 2.45903258 1.37751201 3.91720722 1.0625 5.375 C0.88847656 6.18710937 0.71445312 6.99921875 0.53515625 7.8359375 C0 10 0 10 -1 12 C-2.32 11.67 -3.64 11.34 -5 11 C-5 12.98 -5 14.96 -5 17 C-5.66 17 -6.32 17 -7 17 C-7.66 14.69 -8.32 12.38 -9 10 C-8.51789063 9.69707031 -8.03578125 9.39414062 -7.5390625 9.08203125 C-3.63056363 6.48965955 -1.22248629 4.75411335 0 0 Z " fill="#9E412B" transform="translate(262,312)"/>
<path d="M0 0 C0.042721 1.66611905 0.04063832 3.33382885 0 5 C-1.52568353 6.52568353 -3.23062993 6.64116113 -5.3125 7.125 C-6.09238281 7.31320312 -6.87226563 7.50140625 -7.67578125 7.6953125 C-10 8 -10 8 -14 7 C-8.555 5.02 -8.555 5.02 -3 3 C-3 2.67 -3 2.34 -3 2 C-8.31282013 1.64486292 -8.31282013 1.64486292 -13.25 3.125 C-13.8275 3.41375 -14.405 3.7025 -15 4 C-17.109375 3.0546875 -17.109375 3.0546875 -19 2 C-4.60579065 -2.30289532 -4.60579065 -2.30289532 0 0 Z " fill="#50221A" transform="translate(296,278)"/>
<path d="M0 0 C5.59257146 0.61650394 10.9731814 1.54074886 16.4375 2.875 C17.51547852 3.11669922 17.51547852 3.11669922 18.61523438 3.36328125 C20.68359375 3.8671875 20.68359375 3.8671875 24 5 C24.33 5.99 24.66 6.98 25 8 C24.01 8.495 24.01 8.495 23 9 C23 8.34 23 7.68 23 7 C21.95199219 6.87882813 20.90398437 6.75765625 19.82421875 6.6328125 C18.44526114 6.46396055 17.06635761 6.29466659 15.6875 6.125 C14.65206055 6.00705078 14.65206055 6.00705078 13.59570312 5.88671875 C10.04360529 5.44056153 8.0302971 5.02019807 5 3 C3.34450469 2.61500109 1.6777567 2.27206865 0 2 C0 1.34 0 0.68 0 0 Z " fill="#642D22" transform="translate(325,214)"/>
<path d="M0 0 C0.08004482 3.5219721 0.04005702 6.61981469 -1 10 C-3.31 10.66 -5.62 11.32 -8 12 C-7.34 10.02 -6.68 8.04 -6 6 C-6.66 5.67 -7.32 5.34 -8 5 C-3.375 0 -3.375 0 0 0 Z " fill="#A0422B" transform="translate(252,330)"/>
<path d="M0 0 C6.41551405 0.95519876 10.423787 2.3064482 15 7 C15 7.66 15 8.32 15 9 C15.66 9 16.32 9 17 9 C17 9.66 17 10.32 17 11 C16.01 11 15.02 11 14 11 C14 10.01 14 9.02 14 8 C10.36576791 5.67409146 7.22911669 5.83734167 3 6 C3 5.34 3 4.68 3 4 C2.01 3.67 1.02 3.34 0 3 C0 2.01 0 1.02 0 0 Z " fill="#944235" transform="translate(198,198)"/>
<path d="M0 0 C4.02906728 6.04360093 2.33042987 16.0398808 1 23 C-0.5625 26.125 -0.5625 26.125 -2 28 C-3.32 27.34 -4.64 26.68 -6 26 C-5.34 26 -4.68 26 -4 26 C-2.1566969 23.23504535 -1.88451944 21.11270084 -1.9375 17.875 C-2 14 -2 14 -1 12 C-0.34 12 0.32 12 1 12 C0.67 8.04 0.34 4.08 0 0 Z " fill="#863A3A" transform="translate(345,245)"/>
<path d="M0 0 C2.875 0.25 2.875 0.25 6 1 C7.375 3.0625 7.375 3.0625 8 5 C8.66 5 9.32 5 10 5 C10 5.66 10 6.32 10 7 C10.66 7 11.32 7 12 7 C13.4606285 9.64738916 14 10.89448334 14 14 C13.01 13.67 12.02 13.34 11 13 C10.67 12.01 10.34 11.02 10 10 C9.34 9.67 8.68 9.34 8 9 C6 8 6 8 5 5 C4.01 4.67 3.02 4.34 2 4 C2 3.34 2 2.68 2 2 C1.34 2 0.68 2 0 2 C0 1.34 0 0.68 0 0 Z " fill="#BB5557" transform="translate(158,194)"/>
<path d="M0 0 C0.33 0 0.66 0 1 0 C1.0501123 0.62865967 1.10022461 1.25731934 1.15185547 1.9050293 C2.518051 19.01974418 2.518051 19.01974418 5 36 C-2.73400073 26.65563199 -0.20662917 11.41387757 0 0 Z " fill="#52251B" transform="translate(209,304)"/>
<path d="M0 0 C0.99 0.33 1.98 0.66 3 1 C2.67 2.32 2.34 3.64 2 5 C2.99 4.67 3.98 4.34 5 4 C5 5.32 5 6.64 5 8 C5.66 8.33 6.32 8.66 7 9 C6.1875 10.9375 6.1875 10.9375 5 13 C4.01 13.33 3.02 13.66 2 14 C1.67 13.34 1.34 12.68 1 12 C0.01 12.495 0.01 12.495 -1 13 C-0.67 8.71 -0.34 4.42 0 0 Z " fill="#9E412A" transform="translate(215,267)"/>
<path d="M0 0 C3.28981807 1.35463097 5.53274043 2.97006509 8.1875 5.3125 C7.8575 5.9725 7.5275 6.6325 7.1875 7.3125 C6.61 7.126875 6.0325 6.94125 5.4375 6.75 C2.98057475 6.27226454 1.54352466 6.55520636 -0.8125 7.3125 C-4.8125 2.5625 -4.8125 2.5625 -4.8125 0.3125 C-2.8125 -0.6875 -2.8125 -0.6875 0 0 Z " fill="#98422F" transform="translate(282.8125,227.6875)"/>
<path d="M0 0 C2 2 2 2 3.375 4.4375 C5.01209114 7.01906679 6.46822881 8.34125336 9 10 C7.02 10 5.04 10 3 10 C3 11.65 3 13.3 3 15 C-0.36720387 13.60667426 -1.9859524 12.0210714 -4 9 C-3.67 8.34 -3.34 7.68 -3 7 C-1.515 7.99 -1.515 7.99 0 9 C0 6.03 0 3.06 0 0 Z " fill="#4D1E13" transform="translate(142,250)"/>
<path d="M0 0 C7.85546636 -0.31918373 15.26940505 0.64290496 23 2 C23 2.33 23 2.66 23 3 C21.22925083 3.02705729 19.45838289 3.04642195 17.6875 3.0625 C16.70136719 3.07410156 15.71523438 3.08570313 14.69921875 3.09765625 C12 3 12 3 9 2 C6.66700175 1.96045766 4.33291811 1.95598268 2 2 C1.67 2.99 1.34 3.98 1 5 C1.99 5 2.98 5 4 5 C4 6.65 4 8.3 4 10 C1.4375 7.8125 1.4375 7.8125 -1 5 C-0.8125 2.1875 -0.8125 2.1875 0 0 Z " fill="#522219" transform="translate(255,205)"/>
<path d="M0 0 C2.31 0 4.62 0 7 0 C7 0.66 7 1.32 7 2 C8.32 2.66 9.64 3.32 11 4 C10.67 4.66 10.34 5.32 10 6 C8.68 6 7.36 6 6 6 C5.67 5.67 5.34 5.34 5 5 C5 5.33 5 5.66 5 6 C3.35 6 1.7 6 0 6 C-1.125 2.25 -1.125 2.25 0 0 Z " fill="#773627" transform="translate(123,167)"/>
<path d="M0 0 C1.32 0 2.64 0 4 0 C5.70350804 2.68974954 6.11780853 4.43675482 5.46484375 7.55859375 C4.7009009 10.06361567 3.88956264 12.53696365 3 15 C2.67 15 2.34 15 2 15 C2.33 11.04 2.66 7.08 3 3 C2.01 3 1.02 3 0 3 C-0.33 4.65 -0.66 6.3 -1 8 C-1.33 8 -1.66 8 -2 8 C-1.125 1.125 -1.125 1.125 0 0 Z " fill="#542720" transform="translate(168,270)"/>
<path d="M0 0 C0.33 0.66 0.66 1.32 1 2 C0.01 2.495 0.01 2.495 -1 3 C-1 3.99 -1 4.98 -1 6 C-3.64 6.33 -6.28 6.66 -9 7 C-9.33 5.35 -9.66 3.7 -10 2 C-6.67395049 0.89131683 -3.46941546 0.45822468 0 0 Z " fill="#96432F" transform="translate(154,258)"/>
<path d="M0 0 C4.75 1.875 4.75 1.875 7 3 C7 5 7 5 5.1875 6.9375 C4.465625 7.618125 3.74375 8.29875 3 9 C2.4225 9.5775 1.845 10.155 1.25 10.75 C0.63125 11.36875 0.63125 11.36875 0 12 C0.03255208 9.98177083 0.06510417 7.96354167 0.09765625 5.9453125 C0.12649242 3.91814596 0.12649242 3.91814596 -1 2 C-0.67 1.34 -0.34 0.68 0 0 Z " fill="#A34834" transform="translate(261,279)"/>
<path d="M0 0 C2.31 0 4.62 0 7 0 C7 1.32 7 2.64 7 4 C4.41577541 3.88581333 1.83320487 3.75907638 -0.75 3.625 C-1.47960937 3.5940625 -2.20921875 3.563125 -2.9609375 3.53125 C-7.00797144 3.31050269 -9.29841994 2.85079003 -13 1 C-8.71 1.33 -4.42 1.66 0 2 C0 1.34 0 0.68 0 0 Z " fill="#984330" transform="translate(334,219)"/>
<path d="M0 0 C5.73520439 4.14887126 5.73520439 4.14887126 6.875 7.8125 C7.02164019 11.55182486 7.06451961 15.25786272 7 19 C6.67 19 6.34 19 6 19 C5.7525 17.865625 5.505 16.73125 5.25 15.5625 C4.23144254 11.42184249 2.63784022 7.72306673 0.8046875 3.8828125 C0 2 0 2 0 0 Z " fill="#C35A5D" transform="translate(339,238)"/>
<path d="M0 0 C1.8871875 0.0309375 1.8871875 0.0309375 3.8125 0.0625 C3.8125 1.0525 3.8125 2.0425 3.8125 3.0625 C-2.5875 5.27788462 -2.5875 5.27788462 -5.625 4.1875 C-6.140625 3.81625 -6.65625 3.445 -7.1875 3.0625 C-7.1875 2.4025 -7.1875 1.7425 -7.1875 1.0625 C-4.43671116 0.14557039 -2.82801087 -0.04636083 0 0 Z " fill="#9A432E" transform="translate(289.1875,278.9375)"/>
<path d="M0 0 C0.5775 0.226875 1.155 0.45375 1.75 0.6875 C1.42 2.3375 1.09 3.9875 0.75 5.6875 C0.09 5.6875 -0.57 5.6875 -1.25 5.6875 C-1.58 6.3475 -1.91 7.0075 -2.25 7.6875 C-2.25 6.6975 -2.25 5.7075 -2.25 4.6875 C-4.23 5.3475 -6.21 6.0075 -8.25 6.6875 C-6.65594781 2.8352072 -4.57967475 -0.63606594 0 0 Z " fill="#B34D4C" transform="translate(136.25,194.3125)"/>
<path d="M0 0 C-0.33 1.32 -0.66 2.64 -1 4 C-0.01 4.33 0.98 4.66 2 5 C1.67 5.99 1.34 6.98 1 8 C-1.5625 9.1875 -1.5625 9.1875 -4 10 C-4.66 7.69 -5.32 5.38 -6 3 C-2.25 0 -2.25 0 0 0 Z " fill="#642C1F" transform="translate(286,166)"/>
<path d="M0 0 C6.34339651 1.80610595 11.56938255 4.25627734 17 8 C14.10225041 9.20681097 13.02427735 9.00903639 10.01953125 7.890625 C8.96121094 7.34921875 7.90289062 6.8078125 6.8125 6.25 C5.74644531 5.71890625 4.68039063 5.1878125 3.58203125 4.640625 C1 3 1 3 0 0 Z " fill="#5C2C21" transform="translate(179,185)"/>
<path d="M0 0 C2.5 1.5 2.5 1.5 5 4 C5.45442324 6.80138565 5.23849927 9.13800875 5 12 C4.34 12 3.68 12 3 12 C0.50494038 9.50494038 0.64051624 8.32671112 0.375 4.875 C0.30023438 3.96492187 0.22546875 3.05484375 0.1484375 2.1171875 C0.09945312 1.41851562 0.05046875 0.71984375 0 0 Z " fill="#9C412F" transform="translate(206,148)"/>
<path d="M0 0 C2.35500948 0.11517421 4.70849073 0.24187978 7.0625 0.375 C8.37347656 0.44460937 9.68445313 0.51421875 11.03515625 0.5859375 C14.98136957 0.99805436 18.24117073 1.79756567 22 3 C22 3.33 22 3.66 22 4 C14.21038876 4.46530864 7.47321608 3.15721701 0 1 C0 0.67 0 0.34 0 0 Z " fill="#4C2018" transform="translate(294,217)"/>
<path d="M0 0 C4.51617599 -0.07654536 8.59085217 -0.10228696 13 1 C13 1.66 13 2.32 13 3 C14.65 3 16.3 3 18 3 C18.33 3.66 18.66 4.32 19 5 C12.42465139 4.37968409 6.33307408 2.85102717 0 1 C0 0.67 0 0.34 0 0 Z " fill="#924334" transform="translate(312,213)"/>
<path d="M0 0 C8.91 1.98 8.91 1.98 18 4 C18 4.33 18 4.66 18 5 C5.33029613 5.3690205 5.33029613 5.3690205 0 3 C0 2.01 0 1.02 0 0 Z " fill="#50241B" transform="translate(217,261)"/>
<path d="M0 0 C1.44715727 3.87186448 0.5441918 6.8232328 -0.4375 10.75 C-0.72496094 11.92046875 -1.01242187 13.0909375 -1.30859375 14.296875 C-1.53675781 15.18890625 -1.76492188 16.0809375 -2 17 C-4.08168944 13.65220841 -4.1006308 11.74809609 -3.25 7.9375 C-3.06953125 7.08027344 -2.8890625 6.22304688 -2.703125 5.33984375 C-2 3 -2 3 0 0 Z " fill="#622C1F" transform="translate(267,296)"/>
<path d="M0 0 C0.66 0 1.32 0 2 0 C3.32528788 6.09632423 2.46619907 10.97767819 1 17 C-0.65 17.33 -2.3 17.66 -4 18 C-4 17.34 -4 16.68 -4 16 C-3.34 16 -2.68 16 -2 16 C-0.13216954 10.51324804 0.2358396 5.77807024 0 0 Z " fill="#5E2323" transform="translate(175,214)"/>
<path d="M0 0 C1.16306443 3.54950034 0.92365049 6.55823948 0.5625 10.25 C0.40974609 11.86648438 0.40974609 11.86648438 0.25390625 13.515625 C0.17011719 14.33546875 0.08632812 15.1553125 0 16 C-0.66 16 -1.32 16 -2 16 C-2.33 16.66 -2.66 17.32 -3 18 C-2.41509121 11.85845775 -1.45933748 5.99320151 0 0 Z " fill="#401912" transform="translate(213,280)"/>
<path d="M0 0 C0.928125 0.20625 1.85625 0.4125 2.8125 0.625 C2.8125 0.955 2.8125 1.285 2.8125 1.625 C5.7825 1.955 8.7525 2.285 11.8125 2.625 C11.8125 2.955 11.8125 3.285 11.8125 3.625 C-0.85720387 3.9940205 -0.85720387 3.9940205 -6.1875 1.625 C-3.1875 -0.375 -3.1875 -0.375 0 0 Z " fill="#7D3534" transform="translate(315.1875,281.375)"/>
<path d="M0 0 C3.43950364 0.61198376 5.51564485 1.92058847 8.25 4.0625 C8.95640625 4.61035156 9.6628125 5.15820312 10.390625 5.72265625 C11.18726563 6.35494141 11.18726563 6.35494141 12 7 C10.68 7.33 9.36 7.66 8 8 C7.79375 7.38125 7.5875 6.7625 7.375 6.125 C5.45224112 3.15346355 3.33405473 2.86975341 0 2 C0 1.34 0 0.68 0 0 Z " fill="#5F2C20" transform="translate(252,270)"/>
<path d="M0 0 C1.65 0.33 3.3 0.66 5 1 C5.6875 2.75 5.6875 2.75 6 5 C4.5625 7.25 4.5625 7.25 3 9 C3 7.35 3 5.7 3 4 C0.78918149 3.89459074 0.78918149 3.89459074 -2 5 C-1.34 3.35 -0.68 1.7 0 0 Z " fill="#4B1D16" transform="translate(155,251)"/>
<path d="M0 0 C0.66 0 1.32 0 2 0 C4.42857143 6.28571429 4.42857143 6.28571429 3 10 C1 8.875 1 8.875 -1 7 C-1.3125 3.875 -1.3125 3.875 -1 1 C-0.67 0.67 -0.34 0.34 0 0 Z " fill="#9A422F" transform="translate(139,250)"/>
<path d="M0 0 C0.66 0 1.32 0 2 0 C1.67 1.65 1.34 3.3 1 5 C-4.13503344 4.35812082 -8.9943454 3.31727753 -14 2 C-14 1.67 -14 1.34 -14 1 C-12.22880197 1.14133499 -10.45804713 1.28823208 -8.6875 1.4375 C-7.70136719 1.51871094 -6.71523438 1.59992188 -5.69921875 1.68359375 C-3 2 -3 2 0 3 C0 2.01 0 1.02 0 0 Z " fill="#52251D" transform="translate(351,223)"/>
<path d="M0 0 C1.65 0 3.3 0 5 0 C5.33 1.32 5.66 2.64 6 4 C4.68 4 3.36 4 2 4 C2 5.65 2 7.3 2 9 C1.34 8.67 0.68 8.34 0 8 C-1.27536232 2.55072464 -1.27536232 2.55072464 0 0 Z " fill="#50231C" transform="translate(203,247)"/>
<path d="M0 0 C0.33 0.66 0.66 1.32 1 2 C1.66 2 2.32 2 3 2 C2.67 2.99 2.34 3.98 2 5 C2.38932856 7.14255793 2.38932856 7.14255793 3 9 C0.37812506 7.95125002 -0.79371361 7.35068687 -2.25 4.875 C-2.4975 4.25625 -2.745 3.6375 -3 3 C-2.01 2.01 -1.02 1.02 0 0 Z " fill="#722F20" transform="translate(219,339)"/>
<path d="M0 0 C4.95 0 9.9 0 15 0 C11.68629 2.20914 10.6553979 2.22481553 6.8125 2.125 C5.91144531 2.10695313 5.01039063 2.08890625 4.08203125 2.0703125 C3.39496094 2.04710937 2.70789063 2.02390625 2 2 C2 4.31 2 6.62 2 9 C1.67 9 1.34 9 1 9 C0.67 6.03 0.34 3.06 0 0 Z " fill="#3B150E" transform="translate(267,286)"/>
<path d="M0 0 C2.475 0.495 2.475 0.495 5 1 C5 1.66 5 2.32 5 3 C5.99 3.33 6.98 3.66 8 4 C7.67 4.66 7.34 5.32 7 6 C5.68 6 4.36 6 3 6 C3 5.34 3 4.68 3 4 C2.01 3.67 1.02 3.34 0 3 C0 2.01 0 1.02 0 0 Z " fill="#A2402D" transform="translate(198,198)"/>
<path d="M0 0 C2.88437779 1.29299694 4.87219421 2.65941363 7 5 C7 3.35 7 1.7 7 0 C7.33 0 7.66 0 8 0 C8 1.98 8 3.96 8 6 C6.25 6.75 6.25 6.75 4 7 C1.75 5.25 1.75 5.25 0 3 C0 2.01 0 1.02 0 0 Z " fill="#56271E" transform="translate(214,176)"/>
<path d="M0 0 C1.2065625 0.0309375 1.2065625 0.0309375 2.4375 0.0625 C3.0975 1.3825 3.7575 2.7025 4.4375 4.0625 C1.7708581 5.39582095 0.27069697 4.73352033 -2.5625 4.0625 C-2.8925 3.0725 -3.2225 2.0825 -3.5625 1.0625 C-2.5625 0.0625 -2.5625 0.0625 0 0 Z " fill="#A0402D" transform="translate(294.5625,237.9375)"/>
<path d="M0 0 C1.98 0.66 3.96 1.32 6 2 C6.33 4.31 6.66 6.62 7 9 C5.68 9 4.36 9 3 9 C3.99 8.67 4.98 8.34 6 8 C6 7.34 6 6.68 6 6 C5.34 6 4.68 6 4 6 C4 5.34 4 4.68 4 4 C3.01 3.67 2.02 3.34 1 3 C0.67 2.01 0.34 1.02 0 0 Z " fill="#602C26" transform="translate(209,201)"/>
<path d="M0 0 C4.30764815 1.56641751 8.06171464 3.68336156 12 6 C10 7 10 7 7.6171875 6.22265625 C6.71226562 5.83980469 5.80734375 5.45695313 4.875 5.0625 C3.96492187 4.68222656 3.05484375 4.30195313 2.1171875 3.91015625 C1.41851562 3.60980469 0.71984375 3.30945313 0 3 C0 2.01 0 1.02 0 0 Z " fill="#4D221A" transform="translate(197,194)"/>
<path d="M0 0 C1.91789713 0.28346278 3.83429183 0.5771028 5.75 0.875 C7.35101563 1.11863281 7.35101563 1.11863281 8.984375 1.3671875 C11.67708871 1.93223882 13.63572439 2.63422914 16 4 C9.80112515 4.37952295 5.5522888 3.8352113 0 1 C0 0.67 0 0.34 0 0 Z " fill="#53221B" transform="translate(137,170)"/>
<path d="M0 0 C4.29 0.99 8.58 1.98 13 3 C13 3.33 13 3.66 13 4 C9.98739416 4.59222166 7.0757485 5.05293887 4 5 C1.4375 3.125 1.4375 3.125 0 1 C0 0.67 0 0.34 0 0 Z " fill="#5F2B20" transform="translate(264,278)"/>
<path d="M0 0 C0.99 0.33 1.98 0.66 3 1 C2.67 2.32 2.34 3.64 2 5 C2.66 5 3.32 5 4 5 C1.8 11.6 1.8 11.6 -1 13 C-0.67 8.71 -0.34 4.42 0 0 Z " fill="#501D15" transform="translate(215,267)"/>
<path d="M0 0 C3.33557632 2.9905167 5.15083921 5.93184627 7 10 C4.13302508 8.71480435 2.02392288 7.42870746 0 5 C0 4.34 0 3.68 0 3 C-0.66 3 -1.32 3 -2 3 C-1 1 -1 1 0 0 Z " fill="#57251A" transform="translate(261,214)"/>
<path d="M0 0 C-0.639375 0.474375 -1.27875 0.94875 -1.9375 1.4375 C-3.88293306 2.83738726 -3.88293306 2.83738726 -5 4 C-6.52519276 3.91062197 -8.04681929 3.75462854 -9.5625 3.5625 C-10.80193359 3.40974609 -10.80193359 3.40974609 -12.06640625 3.25390625 C-12.70449219 3.17011719 -13.34257812 3.08632812 -14 3 C-14 2.67 -14 2.34 -14 2 C-9.15758367 0.66416101 -5.06562383 -0.25328119 0 0 Z " fill="#723124" transform="translate(186,205)"/>
<path d="M0 0 C2.97 0 5.94 0 9 0 C9.33 0.99 9.66 1.98 10 3 C10.99 3.33 11.98 3.66 13 4 C8.28596212 3.52060632 4.33420699 3.03165952 0 1 C0 0.67 0 0.34 0 0 Z " fill="#602A1F" transform="translate(138,177)"/>
<path d="M0 0 C1.33332095 2.6666419 0.67102033 4.16680303 0 7 C1.94074861 6.72382467 1.94074861 6.72382467 4 6 C4.66 5.01 5.32 4.02 6 3 C5.67 4.65 5.34 6.3 5 8 C3.35 8 1.7 8 0 8 C-0.33 8.66 -0.66 9.32 -1 10 C-2.15837626 5.94568308 -1.83691257 3.78187881 0 0 Z " fill="#EA978C" transform="translate(236,290)"/>
<path d="M0 0 C0.33 0.66 0.66 1.32 1 2 C2.32 2 3.64 2 5 2 C6.32 4.31 7.64 6.62 9 9 C7 8 5 7 3 6 C3 5.34 3 4.68 3 4 C1.68 3.34 0.36 2.68 -1 2 C-0.67 1.34 -0.34 0.68 0 0 Z " fill="#5D241E" transform="translate(273,226)"/>
<path d="M0 0 C3.63 0 7.26 0 11 0 C11 0.66 11 1.32 11 2 C12.32 2.33 13.64 2.66 15 3 C9.47322267 3.19392201 5.24385089 2.7479503 0 1 C0 0.67 0 0.34 0 0 Z " fill="#783627" transform="translate(310,219)"/>
<path d="M0 0 C2.475 0.495 2.475 0.495 5 1 C5 1.66 5 2.32 5 3 C5.66 3.33 6.32 3.66 7 4 C5.35 4 3.7 4 2 4 C1.67 4.66 1.34 5.32 1 6 C0 5 0 5 -0.0625 2.4375 C-0.041875 1.633125 -0.02125 0.82875 0 0 Z " fill="#8F4030" transform="translate(263,178)"/>
<path d="M0 0 C1.32 0 2.64 0 4 0 C4.33 1.65 4.66 3.3 5 5 C3.35 6.32 1.7 7.64 0 9 C0.33 7.68 0.66 6.36 1 5 C1.66 5 2.32 5 3 5 C3 4.01 3 3.02 3 2 C1.68 1.67 0.36 1.34 -1 1 C-0.67 0.67 -0.34 0.34 0 0 Z " fill="#5A2A1F" transform="translate(304,151)"/>
<path d="M0 0 C0.33 0 0.66 0 1 0 C1.95727848 5.3085443 1.95727848 5.3085443 2 8 C0.6875 9.8125 0.6875 9.8125 -1 11 C-1.66 11.99 -2.32 12.98 -3 14 C-2.48594831 9.03083364 -1.76615118 4.70973649 0 0 Z " fill="#934235" transform="translate(216,274)"/>
<path d="M0 0 C0.99 0.33 1.98 0.66 3 1 C2.39009109 4.55780196 1.4216319 7.6828589 0 11 C-1.26026798 8.47946405 -0.91874445 7.1457902 -0.5625 4.375 C-0.46066406 3.55773437 -0.35882813 2.74046875 -0.25390625 1.8984375 C-0.17011719 1.27195312 -0.08632813 0.64546875 0 0 Z " fill="#682C20" transform="translate(257,323)"/>
<path d="M0 0 C1.1875 1.625 1.1875 1.625 2 4 C0.625 7.25 0.625 7.25 -1 10 C-2.32 9.34 -3.64 8.68 -5 8 C-4.34 8 -3.68 8 -3 8 C-1.58622659 5.36095629 -0.62759865 2.92879371 0 0 Z " fill="#6F2C27" transform="translate(344,263)"/>
<path d="M0 0 C0 0.99 0 1.98 0 3 C-2.5 4.6875 -2.5 4.6875 -5 6 C-5.66 4.68 -6.32 3.36 -7 2 C-2.25 0 -2.25 0 0 0 Z " fill="#CD5D59" transform="translate(170,231)"/>
<path d="M0 0 C0.66 0.33 1.32 0.66 2 1 C1.71758359 2.46015291 1.42373386 3.91809793 1.125 5.375 C0.96257812 6.18710937 0.80015625 6.99921875 0.6328125 7.8359375 C0 10 0 10 -2 12 C-1.85831863 10.56208484 -1.71148957 9.1246763 -1.5625 7.6875 C-1.48128906 6.88699219 -1.40007812 6.08648437 -1.31640625 5.26171875 C-1 3 -1 3 0 0 Z " fill="#662D22" transform="translate(262,312)"/>
<path d="M0 0 C2.64 0.33 5.28 0.66 8 1 C7.67 1.99 7.34 2.98 7 4 C4.03 3.505 4.03 3.505 1 3 C0.67 2.01 0.34 1.02 0 0 Z " fill="#9F4127" transform="translate(221,266)"/>
<path d="M0 0 C3.16717283 1.58358642 4.73268318 2.45263699 6.3125 5.6875 C6.539375 6.450625 6.76625 7.21375 7 8 C3.64379729 6.61122646 1.92701272 5.08322035 0 2 C0 1.34 0 0.68 0 0 Z " fill="#51261E" transform="translate(138,257)"/>
<path d="M0 0 C0.99 0.495 0.99 0.495 2 1 C2.185625 2.2065625 2.185625 2.2065625 2.375 3.4375 C2.58125 4.283125 2.7875 5.12875 3 6 C4.95021083 7.22527948 4.95021083 7.22527948 7 8 C7.33 8.66 7.66 9.32 8 10 C7.4225 9.690625 6.845 9.38125 6.25 9.0625 C4.15705816 8.07416636 2.25464725 7.4831387 0 7 C0 4.69 0 2.38 0 0 Z " fill="#4E2017" transform="translate(209,251)"/>
<path d="M0 0 C1.5 1.3125 1.5 1.3125 3 3 C3 3.99 3 4.98 3 6 C2.01 6.495 2.01 6.495 1 7 C1 6.34 1 5.68 1 5 C-0.32 4.67 -1.64 4.34 -3 4 C-2.01 2.68 -1.02 1.36 0 0 Z " fill="#7E3624" transform="translate(166,282)"/>
<path d="M0 0 C1.485 0.99 1.485 0.99 3 2 C2.67 5.3 2.34 8.6 2 12 C1.67 12 1.34 12 1 12 C0.67 8.04 0.34 4.08 0 0 Z " fill="#AA4E3F" transform="translate(242,274)"/>
<path d="M0 0 C0.99 0.99 1.98 1.98 3 3 C3.66 2.34 4.32 1.68 5 1 C4.67 2.98 4.34 4.96 4 7 C3.01 7 2.02 7 1 7 C0.67 4.69 0.34 2.38 0 0 Z " fill="#431C12" transform="translate(161,278)"/>
<path d="M0 0 C2.4375 0.375 2.4375 0.375 5 1 C5.33 1.66 5.66 2.32 6 3 C4.02 3.66 2.04 4.32 0 5 C0 3.35 0 1.7 0 0 Z " fill="#F39E92" transform="translate(245,273)"/>
<path d="M0 0 C0.66 0 1.32 0 2 0 C2.125 3.375 2.125 3.375 2 7 C1.34 7.66 0.68 8.32 0 9 C-0.84454356 5.62182575 -1.10844919 3.32534757 0 0 Z " fill="#9E412B" transform="translate(169,273)"/>
<path d="M0 0 C0.66 0.33 1.32 0.66 2 1 C1.67 1.99 1.34 2.98 1 4 C1.99 4 2.98 4 4 4 C4 5.65 4 7.3 4 9 C1.4375 6.75 1.4375 6.75 -1 4 C-0.8125 1.6875 -0.8125 1.6875 0 0 Z " fill="#68342B" transform="translate(255,206)"/>
<path d="M0 0 C2.875 0.3125 2.875 0.3125 6 1 C6.66 1.99 7.32 2.98 8 4 C6.02 4 4.04 4 2 4 C2 3.34 2 2.68 2 2 C1.34 2 0.68 2 0 2 C0 1.34 0 0.68 0 0 Z " fill="#953F40" transform="translate(158,194)"/>
<path d="M0 0 C-1.98 1.32 -3.96 2.64 -6 4 C-6.66 3.67 -7.32 3.34 -8 3 C-8 2.01 -8 1.02 -8 0 C-4.94736336 -0.98120464 -3.05263664 -0.98120464 0 0 Z " fill="#662D21" transform="translate(248,345)"/>
<path d="M0 0 C1.65 0 3.3 0 5 0 C5 0.99 5 1.98 5 3 C3.35 3.66 1.7 4.32 0 5 C0 3.35 0 1.7 0 0 Z " fill="#642F26" transform="translate(156,276)"/>
<path d="M0 0 C2.64 1.65 5.28 3.3 8 5 C7.67 5.66 7.34 6.32 7 7 C4.20171644 6.61402985 3.1794116 6.19863427 1.25 4.0625 C0 2 0 2 0 0 Z " fill="#E7645E" transform="translate(311,256)"/>
<path d="M0 0 C3.93774177 -0.36630156 5.56539771 -0.30233203 8.875 2 C9.926875 2.99 9.926875 2.99 11 4 C7.0507432 3.44894091 3.65079826 2.61064629 0 1 C0 0.67 0 0.34 0 0 Z " fill="#6A3226" transform="translate(282,213)"/>
<path d="M0 0 C0 0.66 0 1.32 0 2 C-5.41538462 3.23076923 -5.41538462 3.23076923 -8.375 2.0625 C-8.91125 1.711875 -9.4475 1.36125 -10 1 C-8.71073008 0.63720544 -7.41846728 0.28503302 -6.125 -0.0625 C-5.40570313 -0.25972656 -4.68640625 -0.45695313 -3.9453125 -0.66015625 C-2 -1 -2 -1 0 0 Z " fill="#5E241C" transform="translate(199,203)"/>
<path d="M0 0 C1.32 0 2.64 0 4 0 C4 3 4 3 2.5 4.6875 C2.005 5.120625 1.51 5.55375 1 6 C0.01 5.67 -0.98 5.34 -2 5 C-1.34 4.01 -0.68 3.02 0 2 C0 1.34 0 0.68 0 0 Z " fill="#97442E" transform="translate(303,153)"/>
<path d="M0 0 C0.99 0.33 1.98 0.66 3 1 C3.33 3.64 3.66 6.28 4 9 C3.67 8.01 3.34 7.02 3 6 C2.34 6 1.68 6 1 6 C0.67 4.02 0.34 2.04 0 0 Z " fill="#A54B3C" transform="translate(219,269)"/>
<path d="M0 0 C2.475 0.495 2.475 0.495 5 1 C5 1.99 5 2.98 5 4 C3.68 4 2.36 4 1 4 C0.67 2.68 0.34 1.36 0 0 Z " fill="#9C4133" transform="translate(209,258)"/>
<path d="M0 0 C3.65316671 1.24976756 4.78065836 1.67098753 7 5 C2.25 4.125 2.25 4.125 0 3 C0 2.01 0 1.02 0 0 Z " fill="#A14649" transform="translate(332,233)"/>
<path d="M0 0 C2.125 0.9375 2.125 0.9375 4 2 C1 4 1 4 -3 4 C-2.67 3.01 -2.34 2.02 -2 1 C-1.34 0.67 -0.68 0.34 0 0 Z " fill="#99432D" transform="translate(163,179)"/>
</svg>
