<?xml version="1.0" encoding="UTF-8"?>
<svg version="1.1" xmlns="http://www.w3.org/2000/svg" width="500" height="500">
<path d="M0 0 C3.77552716 0.01042365 7.55106157 0.01483742 11.32659912 0.01983643 C18.67036814 0.0304058 26.01410254 0.04736055 33.35784912 0.06866455 C37.59612588 21.12817062 39.45056671 41.39557293 37.73284912 62.88116455 C37.29025055 68.63878239 37.29025055 68.63878239 38.29534912 74.25616455 C40.13093867 80.84269176 40.7204446 88.05959953 37.85784912 94.38116455 C37.03284912 95.26803955 36.20784912 96.15491455 35.35784912 97.06866455 C34.74038818 97.73639893 34.12292725 98.4041333 33.48675537 99.09210205 C26.78534038 106.11021908 20.57351982 110.03370852 10.60784912 110.38116455 C5.71948828 110.30641897 1.42964593 109.1446912 -3.19683838 107.6272583 C-5.89287758 107.01138992 -7.03488594 107.30327427 -9.64215088 108.06866455 C-23.04113172 109.01276618 -33.00795312 106.42524832 -43.27886963 97.6741333 C-45.55120507 95.51899568 -46.63819622 94.08052853 -47.64215088 91.06866455 C-48.30215088 91.06866455 -48.96215088 91.06866455 -49.64215088 91.06866455 C-50.05465088 90.07866455 -50.46715088 89.08866455 -50.89215088 88.06866455 C-51.98978985 85.47143432 -53.21279885 83.03223974 -54.57965088 80.56866455 C-64.0247702 61.6422377 -63.9287722 38.21009269 -60.16949463 17.9319458 C-59.80588143 15.95766082 -59.48822561 13.9745471 -59.20855713 11.9866333 C-59.06289307 11.00307861 -58.917229 10.01952393 -58.76715088 9.00616455 C-58.645979 8.12831299 -58.52480713 7.25046143 -58.39996338 6.3460083 C-57.3746176 3.26468567 -56.49674915 2.65283402 -53.64215088 1.06866455 C-50.60952624 0.52357315 -47.58513436 0.46229014 -44.50933838 0.3850708 C-43.08353958 0.33522789 -43.08353958 0.33522789 -41.62893677 0.28437805 C-27.75910854 -0.1366374 -13.87458399 -0.04250487 0 0 Z " fill="#9F422C" transform="translate(306.64215087890625,175.93133544921875)"/>
<path d="M0 0 C0.52799496 2.56454697 1.00988893 5.08504481 1.3125 7.6875 C1.90612753 10.54770538 2.6626792 12.66252237 3.8125 15.3125 C9.23260042 28.38799773 11.52050522 42.89904031 11 57 C10.97164063 57.83015625 10.94328125 58.6603125 10.9140625 59.515625 C10.14964304 71.96474187 6.85442024 83.35534584 -1.55859375 92.73828125 C-3 94 -3 94 -5 94 C-5 94.66 -5 95.32 -5 96 C-5.66 96 -6.32 96 -7 96 C-7 96.66 -7 97.32 -7 98 C-7.66 98 -8.32 98 -9 98 C-9 98.66 -9 99.32 -9 100 C-9.66 100 -10.32 100 -11 100 C-11 100.66 -11 101.32 -11 102 C-15.70682402 104.23972061 -20.15925098 106.0805036 -25.25 107.25 C-29.13766517 108.34190596 -30.70874011 109.38130518 -32.75 112.875 C-33.11480469 113.57625 -33.47960937 114.2775 -33.85546875 115 C-36.30200387 119.27517399 -40.4898002 122.14716116 -45 124 C-54.60284963 125.21091652 -62.29638279 122.91729762 -70.5 118.0625 C-73.1951709 115.83898401 -74.07479443 114.33074004 -75 111 C-75.66 111 -76.32 111 -77 111 C-77.79831456 109.62884903 -78.5883061 108.25285116 -79.375 106.875 C-80.03628906 105.72644531 -80.03628906 105.72644531 -80.7109375 104.5546875 C-84.34674144 97.34918515 -84.15339646 91.21547965 -83.921875 83.34375 C-83.83212505 78.37758621 -84.24408952 74.70378938 -86 70 C-86.44600205 67.36253111 -86.82763981 64.77796742 -87.125 62.125 C-87.2077417 61.38902588 -87.2904834 60.65305176 -87.37573242 59.89477539 C-89.66681925 37.81510303 -89.66681925 37.81510303 -85 29 C-82.38757927 25.92001533 -79.74060775 25.19192259 -75.9140625 24.0078125 C-72.24579066 22.73916085 -68.73331469 21.19910784 -65.1875 19.625 C-64.49188965 19.31812256 -63.7962793 19.01124512 -63.07958984 18.69506836 C-59.99142168 17.33090552 -56.90739702 15.95837428 -53.828125 14.57421875 C-47.29989275 11.72473359 -40.78564986 9.7824896 -33.8828125 8.0390625 C-29.87696813 7.00261365 -25.97590043 5.71411748 -22.0625 4.375 C-14.57454736 1.83737267 -7.96398211 -0.33183259 0 0 Z " fill="#9E412B" transform="translate(205,184)"/>
<path d="M0 0 C1.32211739 0.00226593 1.32211739 0.00226593 2.67094421 0.00457764 C5.56087713 0.01398118 8.45008645 0.04555565 11.33984375 0.078125 C13.32519037 0.09004606 15.31054233 0.10110813 17.29589844 0.11132812 C34.63056911 0.22525057 51.95522558 0.67182548 69.27734375 1.328125 C69.7568704 4.03639504 70.23597606 6.74473844 70.71484375 9.453125 C70.84955078 10.21367187 70.98425781 10.97421875 71.12304688 11.7578125 C71.38878537 13.26150349 71.65239571 14.76557221 71.91381836 16.27001953 C72.21585209 17.9799889 72.5405915 19.68592917 72.87109375 21.390625 C73.37097139 25.00512489 73.38568743 28.56384212 73.33984375 32.203125 C73.33533203 32.89148438 73.33082031 33.57984375 73.32617188 34.2890625 C73.31450711 35.96878835 73.29657646 37.64846875 73.27734375 39.328125 C71.50999729 36.67710531 70.77549895 34.98948889 69.90234375 32.015625 C67.0006501 23.15330942 60.54380792 15.47568147 52.40234375 10.828125 C46.8334278 8.40260106 41.46847251 8.32243594 35.69921875 10.140625 C27.04468576 13.9634862 20.38036864 20.98993811 16.89453125 29.8125 C14.79830464 38.35661351 15.388168 48.79899952 19.5 56.66796875 C23.40832121 62.93170487 28.77643334 69.58372723 36.27734375 71.328125 C45.27577393 72.26016579 54.74305529 70.67623867 62.77734375 66.515625 C65.66949365 63.98499383 67.92875949 61.36746933 70.27734375 58.328125 C71.47091247 61.90883116 70.7475196 63.01193179 69.12109375 66.27539062 C68.80140625 66.89091797 68.48171875 67.50644531 68.15234375 68.140625 C67.85585938 68.74455078 67.559375 69.34847656 67.25390625 69.97070312 C60.30966015 83.63850954 46.43560703 91.60870391 32.27734375 96.328125 C21.16176097 97.56788582 12.5565478 96.07451486 3.27734375 89.328125 C0.04047868 85.93520578 -2.39138532 82.38560417 -4.72265625 78.328125 C-5.31240234 77.37679687 -5.31240234 77.37679687 -5.9140625 76.40625 C-16.78905717 57.12978886 -17.13808493 31.53368367 -13.41015625 10.328125 C-13.2925293 9.64766113 -13.17490234 8.96719727 -13.05371094 8.26611328 C-11.40021559 0.14453319 -7.58685778 -0.11126414 0 0 Z " fill="#FDFBFA" transform="translate(265.72265625,181.671875)"/>
<path d="M0 0 C-1.23363281 0.60134766 -1.23363281 0.60134766 -2.4921875 1.21484375 C-12.41888132 6.26989222 -22.33684127 11.88694795 -26.39453125 22.87890625 C-30.1359529 35.98595112 -27.22488317 50.08613622 -21.3125 62.125 C-18.22341361 67.35208002 -14.32037367 70.22373229 -9 73 C-8.32710937 73.36738281 -7.65421875 73.73476563 -6.9609375 74.11328125 C-4.06969997 75.42067352 -1.13077853 75.63875632 2 76 C-0.63780058 82.47460143 -5.79747687 85.72853086 -11.875 88.6875 C-13.04804688 89.26886719 -14.22109375 89.85023438 -15.4296875 90.44921875 C-23.66767684 94.02742637 -33.24128697 96.43607172 -42.02392578 93.27050781 C-55.21787173 87.3343361 -63.48278027 79.81237039 -68.8125 66.25 C-71.89276478 57.99608661 -72.30629871 50.33306398 -72.4050293 41.59790039 C-72.42670698 40.15560099 -72.46092534 38.7134365 -72.50756836 37.27172852 C-72.57449873 35.17926131 -72.60199424 33.08947909 -72.62109375 30.99609375 C-72.6461499 29.75013428 -72.67120605 28.5041748 -72.69702148 27.22045898 C-72 24 -72 24 -69.36669922 21.71777344 C-66.11241435 20.05735659 -62.96387269 18.71140904 -59.51171875 17.51953125 C-58.89935364 17.30518936 -58.28698853 17.09084747 -57.65606689 16.87001038 C-55.66917253 16.17632932 -53.67848813 15.49433176 -51.6875 14.8125 C-49.60387567 14.08923812 -47.52118989 13.36331432 -45.43849182 12.63739014 C-44.02905434 12.14647931 -42.61925206 11.65661461 -41.20909119 11.16778564 C-36.66106239 9.58931897 -32.13092414 7.96926727 -27.609375 6.31640625 C-26.47927002 5.90350342 -25.34916504 5.49060059 -24.18481445 5.06518555 C-22.07011509 4.29011905 -19.95660413 3.51179986 -17.84448242 2.72973633 C-5.31398999 -1.83945807 -5.31398999 -1.83945807 0 0 Z " fill="#FDFCFB" transform="translate(198,193)"/>
<path d="M0 0 C0.78117187 0.01804687 1.56234375 0.03609375 2.3671875 0.0546875 C2.94726562 0.07789063 3.52734375 0.10109375 4.125 0.125 C5.17471725 20.23291706 5.17471725 20.23291706 -2.41796875 28.8828125 C-3.875 30.125 -3.875 30.125 -5.875 30.125 C-5.875 30.785 -5.875 31.445 -5.875 32.125 C-16.18157455 41.17745597 -27.39536037 45.18094701 -40.92578125 44.55859375 C-47.34246368 43.85409152 -51.60562678 41.63791548 -56.875 38.125 C-56.875 37.465 -56.875 36.805 -56.875 36.125 C-57.535 36.125 -58.195 36.125 -58.875 36.125 C-58.875 35.465 -58.875 34.805 -58.875 34.125 C-59.535 34.125 -60.195 34.125 -60.875 34.125 C-61.535 33.465 -62.195 32.805 -62.875 32.125 C-66.45843976 31.95822718 -66.45843976 31.95822718 -69.875 32.125 C-68.39782775 27.79003046 -65.2590161 26.2508454 -61.4375 24.1875 C-60.80787354 23.83905029 -60.17824707 23.49060059 -59.52954102 23.1315918 C-51.16257756 18.55979905 -42.53517332 14.94610675 -33.62109375 11.5859375 C-28.18726139 9.50094925 -22.8463402 7.18493598 -17.49804688 4.89135742 C-5.62631231 -0.17049431 -5.62631231 -0.17049431 0 0 Z " fill="#974735" transform="translate(298.875,288.875)"/>
<path d="M0 0 C2.12060432 2.57501953 4.0785285 5.12302799 5.875 7.9375 C7.58492552 10.40180443 9.12219346 12.19711622 11.25 14.25 C12.1575 15.1575 13.065 16.065 14 17 C14 17.66 14 18.32 14 19 C14.69867188 19.26683594 15.39734375 19.53367187 16.1171875 19.80859375 C19.20599862 21.08513493 22.14799347 22.54415206 25.125 24.0625 C30.82300717 26.96834156 35.32540307 28.20013967 41.6875 28.5625 C42.38939453 28.60568359 43.09128906 28.64886719 43.81445312 28.69335938 C45.54275206 28.7991736 47.2713511 28.90006581 49 29 C49.45904075 35.38831706 49.45904075 35.38831706 47.390625 38.14453125 C46.33101562 38.97017578 46.33101562 38.97017578 45.25 39.8125 C44.55390625 40.37582031 43.8578125 40.93914062 43.140625 41.51953125 C37.22011209 45.61419255 32.10258392 45.71725601 25 45 C19.16912351 43.42012564 13.66482603 40.84848147 9 37 C7.625 34.25 7.625 34.25 7 32 C6.34 32 5.68 32 5 32 C4.18162558 30.58671871 3.37053781 29.16921654 2.5625 27.75 C2.11003906 26.96109375 1.65757813 26.1721875 1.19140625 25.359375 C-0.56121409 21.88861209 -1.12638121 18.82981659 -1.1328125 14.9609375 C-1.13410156 14.21585937 -1.13539062 13.47078125 -1.13671875 12.703125 C-1.13285156 11.93484375 -1.12898438 11.1665625 -1.125 10.375 C-1.12886719 9.59898437 -1.13273437 8.82296875 -1.13671875 8.0234375 C-1.12670133 2.25340266 -1.12670133 2.25340266 0 0 Z " fill="#F36464" transform="translate(123,263)"/>
<path d="M0 0 C3.77552716 0.01042365 7.55106157 0.01483742 11.32659912 0.01983643 C18.67036814 0.0304058 26.01410254 0.04736055 33.35784912 0.06866455 C34.02746732 3.34050012 34.57324424 6.55887495 34.92034912 9.88116455 C35.00413818 10.67135986 35.08792725 11.46155518 35.17425537 12.2756958 C35.23484131 12.86737549 35.29542725 13.45905518 35.35784912 14.06866455 C34.36784912 13.57366455 34.36784912 13.57366455 33.35784912 13.06866455 C32.95055685 10.74709858 32.61346235 8.41178585 32.35784912 6.06866455 C31.03784912 5.73866455 29.71784912 5.40866455 28.35784912 5.06866455 C28.35784912 4.40866455 28.35784912 3.74866455 28.35784912 3.06866455 C18.71724549 3.02221828 9.0766807 2.98673305 -0.56401062 2.96504021 C-5.04110684 2.95462603 -9.51812622 2.94051024 -13.99517822 2.91778564 C-18.31995392 2.89597264 -22.64465593 2.88407814 -26.96948242 2.87891006 C-28.61520547 2.87522945 -30.26092473 2.86804227 -31.90661621 2.85720444 C-34.22089186 2.84257687 -36.53486731 2.84069127 -38.84918213 2.84161377 C-40.16378418 2.83717255 -41.47838623 2.83273132 -42.83282471 2.82815552 C-47.03730964 3.09361365 -50.59517692 3.93299321 -54.64215088 5.06866455 C-54.77492432 5.90655518 -54.90769775 6.7444458 -55.04449463 7.60772705 C-55.6724161 11.24392592 -56.42222274 14.8376914 -57.20465088 18.44366455 C-57.47406494 19.68889893 -57.743479 20.9341333 -58.02105713 22.21710205 C-58.32849854 23.62862549 -58.32849854 23.62862549 -58.64215088 25.06866455 C-57.98215088 24.73866455 -57.32215088 24.40866455 -56.64215088 24.06866455 C-56.62756836 24.67637695 -56.61298584 25.28408936 -56.59796143 25.91021729 C-56.02364571 47.45618886 -55.07392087 71.37958787 -41.15777588 89.0881958 C-39.64215088 91.06866455 -39.64215088 91.06866455 -38.56793213 93.2678833 C-37.18463216 95.95860603 -35.48569018 96.10065117 -32.64215088 97.06866455 C-32.04789307 97.40124268 -31.45363525 97.7338208 -30.84136963 98.07647705 C-22.59406876 102.51852611 -12.62026007 102.17612148 -3.64215088 100.06866455 C-3.64215088 101.05866455 -3.64215088 102.04866455 -3.64215088 103.06866455 C-10.90215088 103.06866455 -18.16215088 103.06866455 -25.64215088 103.06866455 C-25.64215088 103.72866455 -25.64215088 104.38866455 -25.64215088 105.06866455 C-18.38215088 105.06866455 -11.12215088 105.06866455 -3.64215088 105.06866455 C-7.12230518 108.54881886 -11.00489857 108.24981271 -15.76715088 108.31866455 C-27.34571703 108.18915039 -36.23225907 104.35730836 -44.64215088 96.38116455 C-46.64215088 94.06866455 -46.64215088 94.06866455 -47.64215088 91.06866455 C-48.30215088 91.06866455 -48.96215088 91.06866455 -49.64215088 91.06866455 C-50.05465088 90.07866455 -50.46715088 89.08866455 -50.89215088 88.06866455 C-51.98978985 85.47143432 -53.21279885 83.03223974 -54.57965088 80.56866455 C-64.0247702 61.6422377 -63.9287722 38.21009269 -60.16949463 17.9319458 C-59.80588143 15.95766082 -59.48822561 13.9745471 -59.20855713 11.9866333 C-59.06289307 11.00307861 -58.917229 10.01952393 -58.76715088 9.00616455 C-58.645979 8.12831299 -58.52480713 7.25046143 -58.39996338 6.3460083 C-57.3746176 3.26468567 -56.49674915 2.65283402 -53.64215088 1.06866455 C-50.60952624 0.52357315 -47.58513436 0.46229014 -44.50933838 0.3850708 C-43.08353958 0.33522789 -43.08353958 0.33522789 -41.62893677 0.28437805 C-27.75910854 -0.1366374 -13.87458399 -0.04250487 0 0 Z " fill="#9F4C38" transform="translate(306.64215087890625,175.93133544921875)"/>
<path d="M0 0 C0 2.31 0 4.62 0 7 C-2.31 7.66 -4.62 8.32 -7 9 C-7.33 10.32 -7.66 11.64 -8 13 C-6.35 13 -4.7 13 -3 13 C-6.64796745 21.41838641 -15.3448429 26.46493896 -23.46484375 29.921875 C-30.68117736 32.1226574 -37.99925743 32.5720802 -45.1015625 29.78125 C-49.42941375 27.33670001 -51.89141313 25.51648709 -54 21 C-41.14537512 15.23649873 -28.24919222 9.59269703 -15.1875 4.3125 C-14.12732666 3.8788916 -13.06715332 3.4452832 -11.97485352 2.99853516 C-10.98670654 2.60327637 -9.99855957 2.20801758 -8.98046875 1.80078125 C-8.11317139 1.45184814 -7.24587402 1.10291504 -6.35229492 0.7434082 C-4 0 -4 0 0 0 Z " fill="#FCF7F5" transform="translate(297,296)"/>
<path d="M0 0 C0 0.66 0 1.32 0 2 C-4.455 2.495 -4.455 2.495 -9 3 C-9 3.66 -9 4.32 -9 5 C-11.64 5.66 -14.28 6.32 -17 7 C-17.23783203 8.63195312 -17.23783203 8.63195312 -17.48046875 10.296875 C-18.16794077 12.69427522 -18.56456694 13.71672146 -20.67822266 15.09179688 C-22.8679618 15.94091118 -25.04937039 16.62229822 -27.3125 17.25 C-28.83095862 17.7084998 -30.34793705 18.1719347 -31.86328125 18.640625 C-32.53657471 18.83172852 -33.20986816 19.02283203 -33.90356445 19.21972656 C-36.64296406 20.23930513 -38.70242766 21.15790871 -41 23 C-41.7570065 26.06534902 -41.7570065 26.06534902 -41.62890625 29.6171875 C-41.63131821 30.27018829 -41.63373016 30.92318909 -41.63621521 31.59597778 C-41.63523561 32.98299199 -41.62181413 34.37004473 -41.59692383 35.75683594 C-41.56316446 37.83411475 -41.57610991 39.90699794 -41.59570312 41.984375 C-41.58188783 54.29647695 -38.361573 64.96314494 -33 76 C-33.99 76 -34.98 76 -36 76 C-36.66 74.68 -37.32 73.36 -38 72 C-38.66 72.99 -39.32 73.98 -40 75 C-40 74.34 -40 73.68 -40 73 C-40.99 73 -41.98 73 -43 73 C-43.66 72.34 -44.32 71.68 -45 71 C-45.33 75.95 -45.66 80.9 -46 86 C-46.33 86 -46.66 86 -47 86 C-46.98952637 85.42556152 -46.97905273 84.85112305 -46.96826172 84.25927734 C-46.92642901 81.63123023 -46.900588 79.00325346 -46.875 76.375 C-46.85824219 75.47136719 -46.84148437 74.56773437 -46.82421875 73.63671875 C-46.78743807 68.59776534 -47.22002717 64.76404493 -49 60 C-49.44600205 57.36253111 -49.82763981 54.77796742 -50.125 52.125 C-50.2077417 51.38902588 -50.2904834 50.65305176 -50.37573242 49.89477539 C-52.66681925 27.81510303 -52.66681925 27.81510303 -48 19 C-45.38757927 15.92001533 -42.74060775 15.19192259 -38.9140625 14.0078125 C-35.24586745 12.7391874 -31.73297777 11.19974576 -28.1875 9.625 C-27.49986572 9.32029785 -26.81223145 9.0155957 -26.10375977 8.70166016 C-24.72775431 8.09172006 -23.35185775 7.48153424 -21.97607422 6.87109375 C-19.07914863 5.59406997 -16.16777963 4.35353879 -13.25 3.125 C-12.32703125 2.73570312 -11.4040625 2.34640625 -10.453125 1.9453125 C-6.68986557 0.49513928 -4.08648753 0 0 0 Z " fill="#9A5040" transform="translate(168,194)"/>
<path d="M0 0 C0.125 2.375 0.125 2.375 0 5 C-2.31562057 7.31562057 -4.51511124 7.9427866 -7.55078125 9.02734375 C-10.32149929 10.12767675 -12.91421061 11.44368106 -15.5625 12.8125 C-20.64654815 15.40874542 -25.80685065 17.54806459 -31.13085938 19.59985352 C-36.7810181 21.82110463 -42.16554915 24.47793234 -47.54589844 27.28466797 C-53.84037358 30.54216425 -58.85105898 32.42052594 -66 32 C-67 31 -67 31 -67.0625 27.4375 C-67.041875 26.303125 -67.02125 25.16875 -67 24 C-66.34 24 -65.68 24 -65 24 C-65 23.34 -65 22.68 -65 22 C-61.535 21.505 -61.535 21.505 -58 21 C-58 21.66 -58 22.32 -58 23 C-53.69216569 21.12529433 -49.41349196 19.24210583 -45.25 17.0625 C-41.97256939 15.38850902 -38.64892168 14.12216205 -35.1875 12.875 C-28.37546694 10.35526315 -22.14876747 6.97349841 -15.88745117 3.30224609 C-10.28073756 0.16903031 -6.41762244 -0.47940407 0 0 Z " fill="#893D2B" transform="translate(300,132)"/>
<path d="M0 0 C0.99 0 1.98 0 3 0 C3 0.66 3 1.32 3 2 C3.66 2 4.32 2 5 2 C6.7615933 7.87197767 7.21310186 15.24978223 5.31640625 21.11328125 C3.5658168 24.04061548 1.87051554 25.05478189 -1.25 26.375 C-2.1575 26.58125 -3.065 26.7875 -4 27 C-4 27.66 -4 28.32 -4 29 C-5.32 29 -6.64 29 -8 29 C-8.268125 29.61875 -8.53625 30.2375 -8.8125 30.875 C-10 33 -10 33 -13 35 C-14.99291992 35.22705078 -14.99291992 35.22705078 -17.23046875 35.1953125 C-18.03291016 35.18886719 -18.83535156 35.18242187 -19.66210938 35.17578125 C-20.49548828 35.15902344 -21.32886719 35.14226562 -22.1875 35.125 C-23.03248047 35.11597656 -23.87746094 35.10695313 -24.74804688 35.09765625 C-26.83215243 35.07410703 -28.91611217 35.03823647 -31 35 C-29.3203125 31.1328125 -29.3203125 31.1328125 -26.4375 29.9375 C-25.2309375 29.4734375 -25.2309375 29.4734375 -24 29 C-23.67 28.01 -23.34 27.02 -23 26 C-21.2578125 24.4296875 -21.2578125 24.4296875 -19.125 22.875 C-18.07699219 22.09769531 -18.07699219 22.09769531 -17.0078125 21.3046875 C-15 20 -15 20 -12 19 C-11.67 18.01 -11.34 17.02 -11 16 C-9.9171875 15.01 -9.9171875 15.01 -8.8125 14 C-4.74035456 10.15408487 -2.51222384 4.9294839 0 0 Z " fill="#EA6160" transform="translate(340,248)"/>
<path d="M0 0 C1.11300224 -0.00021904 1.11300224 -0.00021904 2.24848938 -0.0004425 C4.68872045 0.00025135 7.12887415 0.00801899 9.5690918 0.01586914 C11.26588398 0.01773519 12.96267669 0.01915821 14.6594696 0.02015686 C19.11627704 0.02396729 23.57305168 0.03378496 28.02984619 0.04486084 C32.581335 0.05510669 37.13282914 0.05966128 41.68432617 0.06469727 C50.60816868 0.07540858 59.53198688 0.09246726 68.45581055 0.11352539 C69.53297989 4.17362521 70.03234979 8.26116173 70.51831055 12.42602539 C70.65462891 13.52720703 70.65462891 13.52720703 70.79370117 14.65063477 C71.32744447 19.17340689 71.54604314 23.55978737 71.45581055 28.11352539 C71.12581055 28.11352539 70.79581055 28.11352539 70.45581055 28.11352539 C69.95220832 24.84323608 69.45355101 21.57221158 68.95581055 18.30102539 C68.81272461 17.37225586 68.66963867 16.44348633 68.5222168 15.48657227 C68.38686523 14.59389648 68.25151367 13.7012207 68.11206055 12.78149414 C67.92353516 11.54822388 67.92353516 11.54822388 67.73120117 10.29003906 C67.45581055 8.11352539 67.45581055 8.11352539 67.45581055 5.11352539 C41.05581055 5.11352539 14.65581055 5.11352539 -12.54418945 5.11352539 C-15.07772939 20.47470616 -15.07772939 20.47470616 -16.23168945 35.80102539 C-16.26584961 36.7169043 -16.30000977 37.6327832 -16.33520508 38.57641602 C-16.41505225 40.75510301 -16.48130584 42.9342828 -16.54418945 45.11352539 C-16.87418945 45.11352539 -17.20418945 45.11352539 -17.54418945 45.11352539 C-17.87418945 37.85352539 -18.20418945 30.59352539 -18.54418945 23.11352539 C-18.87418945 25.42352539 -19.20418945 27.73352539 -19.54418945 30.11352539 C-19.87418945 30.11352539 -20.20418945 30.11352539 -20.54418945 30.11352539 C-21.20275543 22.04609221 -18.74249688 14.7767015 -16.54418945 7.11352539 C-16.39852539 6.34524414 -16.25286133 5.57696289 -16.1027832 4.78540039 C-15.54418945 3.11352539 -15.54418945 3.11352539 -12.54418945 1.11352539 C-8.39482726 -0.04348 -4.27493548 -0.02218857 0 0 Z " fill="#9C422E" transform="translate(267.544189453125,177.886474609375)"/>
<path d="M0 0 C2 1 2 1 5 3 C5.1875 5.625 5.1875 5.625 5 8 C5.66 8 6.32 8 7 8 C6.67 9.32 6.34 10.64 6 12 C6 11.34 6 10.68 6 10 C5.01 10 4.02 10 3 10 C2.79375 10.804375 2.5875 11.60875 2.375 12.4375 C-1.11302257 21.47464939 -7.29335475 28.22306941 -15 34 C-16.66244709 34.6771203 -18.32810761 35.3465491 -20 36 C-20.144375 36.639375 -20.28875 37.27875 -20.4375 37.9375 C-20.7159375 38.9584375 -20.7159375 38.9584375 -21 40 C-22.96615661 41.0650015 -24.96726926 42.06833174 -27 43 C-27.33 43.66 -27.66 44.32 -28 45 C-25.24915453 44.88588196 -22.49988053 44.75914051 -19.75 44.625 C-18.97269531 44.5940625 -18.19539063 44.563125 -17.39453125 44.53125 C-11.88540005 44.33282016 -11.88540005 44.33282016 -7 42 C-6.34 41.01 -5.68 40.02 -5 39 C-3.68 39 -2.36 39 -1 39 C-1.33 38.01 -1.66 37.02 -2 36 C0.97 35.505 0.97 35.505 4 35 C-1.32631668 41.72400261 -6.3113036 46.26226072 -15 48 C-21.93556226 48.65668945 -27.56785076 47.61014752 -34 45 C-34 44.34 -34 43.68 -34 43 C-41.26 43 -48.52 43 -56 43 C-56 42.34 -56 41.68 -56 41 C-48.74 41 -41.48 41 -34 41 C-33.67 39.68 -33.34 38.36 -33 37 C-30.375 35.32421875 -30.375 35.32421875 -27 33.6875 C-14.09104265 27.08620802 -5.98205543 18.83904286 -1 5 C-0.30859478 2.22111387 -0.30859478 2.22111387 0 0 Z " fill="#A04532" transform="translate(337,238)"/>
<path d="M0 0 C3.77552716 0.01042365 7.55106157 0.01483742 11.32659912 0.01983643 C18.67036814 0.0304058 26.01410254 0.04736055 33.35784912 0.06866455 C34.02746732 3.34050012 34.57324424 6.55887495 34.92034912 9.88116455 C35.00413818 10.67135986 35.08792725 11.46155518 35.17425537 12.2756958 C35.23484131 12.86737549 35.29542725 13.45905518 35.35784912 14.06866455 C34.36784912 13.57366455 34.36784912 13.57366455 33.35784912 13.06866455 C32.95055685 10.74709858 32.61346235 8.41178585 32.35784912 6.06866455 C31.03784912 5.73866455 29.71784912 5.40866455 28.35784912 5.06866455 C28.35784912 4.40866455 28.35784912 3.74866455 28.35784912 3.06866455 C18.71724549 3.02221828 9.0766807 2.98673305 -0.56401062 2.96504021 C-5.04110684 2.95462603 -9.51812622 2.94051024 -13.99517822 2.91778564 C-18.31995392 2.89597264 -22.64465593 2.88407814 -26.96948242 2.87891006 C-28.61520547 2.87522945 -30.26092473 2.86804227 -31.90661621 2.85720444 C-34.22089186 2.84257687 -36.53486731 2.84069127 -38.84918213 2.84161377 C-40.16378418 2.83717255 -41.47838623 2.83273132 -42.83282471 2.82815552 C-47.03730964 3.09361365 -50.59517692 3.93299321 -54.64215088 5.06866455 C-54.77492432 5.90655518 -54.90769775 6.7444458 -55.04449463 7.60772705 C-55.6724161 11.24392592 -56.42222274 14.8376914 -57.20465088 18.44366455 C-57.47406494 19.68889893 -57.743479 20.9341333 -58.02105713 22.21710205 C-58.32849854 23.62862549 -58.32849854 23.62862549 -58.64215088 25.06866455 C-57.98215088 24.73866455 -57.32215088 24.40866455 -56.64215088 24.06866455 C-56.97215088 32.64866455 -57.30215088 41.22866455 -57.64215088 50.06866455 C-57.97215088 50.06866455 -58.30215088 50.06866455 -58.64215088 50.06866455 C-58.97215088 53.69866455 -59.30215088 57.32866455 -59.64215088 61.06866455 C-59.97215088 61.06866455 -60.30215088 61.06866455 -60.64215088 61.06866455 C-62.573736 46.2385606 -62.91566185 32.7452128 -60.16949463 17.9319458 C-59.80588143 15.95766082 -59.48822561 13.9745471 -59.20855713 11.9866333 C-59.06289307 11.00307861 -58.917229 10.01952393 -58.76715088 9.00616455 C-58.645979 8.12831299 -58.52480713 7.25046143 -58.39996338 6.3460083 C-57.3746176 3.26468567 -56.49674915 2.65283402 -53.64215088 1.06866455 C-50.60952624 0.52357315 -47.58513436 0.46229014 -44.50933838 0.3850708 C-43.08353958 0.33522789 -43.08353958 0.33522789 -41.62893677 0.28437805 C-27.75910854 -0.1366374 -13.87458399 -0.04250487 0 0 Z " fill="#77382B" transform="translate(306.64215087890625,175.93133544921875)"/>
<path d="M0 0 C2 2 2 2 4 5 C9.84409404 10.77933954 16.83720895 15.28698036 24 19.25 C27 21 27 21 28 23 C33.28 23 38.56 23 44 23 C44 23.66 44 24.32 44 25 C43.34 25 42.68 25 42 25 C42 25.66 42 26.32 42 27 C28.27112651 28.03831816 18.38517333 25.22000066 7 17 C2.71244892 12.81412998 -0.83107871 8.07027406 -4 3 C-2.68 2.01 -1.36 1.02 0 0 Z " fill="#A3412E" transform="translate(130,265)"/>
<path d="M0 0 C28.35018083 -0.10888437 56.66972756 -0.17990501 85 1 C85.33851178 3.68693722 85.670936 6.37440289 86 9.0625 C86.09539062 9.81466797 86.19078125 10.56683594 86.2890625 11.34179688 C86.84571902 15.93421317 87.09829028 20.3742135 87 25 C86.67 25 86.34 25 86 25 C85.49639777 21.72971069 84.99774046 18.45868619 84.5 15.1875 C84.35691406 14.25873047 84.21382813 13.32996094 84.06640625 12.37304688 C83.93105469 11.48037109 83.79570312 10.58769531 83.65625 9.66796875 C83.46772461 8.43469849 83.46772461 8.43469849 83.27539062 7.17651367 C83 5 83 5 83 2 C56.6 2 30.2 2 3 2 C0.46646006 17.36118077 0.46646006 17.36118077 -0.6875 32.6875 C-0.72166016 33.60337891 -0.75582031 34.51925781 -0.79101562 35.46289062 C-0.87086279 37.64157762 -0.93711638 39.82075741 -1 42 C-1.33 42 -1.66 42 -2 42 C-2.33 34.74 -2.66 27.48 -3 20 C-3.33 22.31 -3.66 24.62 -4 27 C-4.33 27 -4.66 27 -5 27 C-5.65856597 18.93256682 -3.19830743 11.6631761 -1 4 C-0.66223989 2.66778118 -0.327842 1.33469416 0 0 Z " fill="#975546" transform="translate(252,181)"/>
<path d="M0 0 C4.95 0.99 4.95 0.99 10 2 C10.33 2.99 10.66 3.98 11 5 C11.66 5 12.32 5 13 5 C13 4.34 13 3.68 13 3 C14.25103516 3.24363281 14.25103516 3.24363281 15.52734375 3.4921875 C19.25341816 4.03705777 22.79788959 4.1325976 26.5625 4.125 C27.84253906 4.12757813 29.12257813 4.13015625 30.44140625 4.1328125 C33.44307844 4.02078522 36.09086189 3.70355355 39 3 C39 3.99 39 4.98 39 6 C31.74 6 24.48 6 17 6 C17 6.66 17 7.32 17 8 C24.26 8 31.52 8 39 8 C35.51984569 11.48015431 31.63725231 11.18114816 26.875 11.25 C16.73732627 11.1366032 8.89582023 8.45694638 1 2 C0.67 1.34 0.34 0.68 0 0 Z " fill="#7E3D2E" transform="translate(264,273)"/>
<path d="M0 0 C0.66 0.33 1.32 0.66 2 1 C1.21625 1.4125 0.4325 1.825 -0.375 2.25 C-3.15311242 4.10207495 -4.01599812 4.86908491 -5 8 C-5.16724737 11.16695956 -5.16724737 11.16695956 -5 14 C-4.05125 14.37125 -3.1025 14.7425 -2.125 15.125 C1 17 1 17 2.375 20.1875 C2.58125 21.115625 2.7875 22.04375 3 23 C-0.48330216 22.35494404 -3.09432866 21.01782732 -6 19 C-6 18.34 -6 17.68 -6 17 C-6.66 17 -7.32 17 -8 17 C-8 16.34 -8 15.68 -8 15 C-8.66 15 -9.32 15 -10 15 C-10.66 14.34 -11.32 13.68 -12 13 C-15.58343976 12.83322718 -15.58343976 12.83322718 -19 13 C-17.52917477 8.48608808 -13.99952249 6.93427249 -10.0625 4.8125 C-9.11213867 4.27979492 -9.11213867 4.27979492 -8.14257812 3.73632812 C-5.45898529 2.2492057 -2.91639317 0.97213106 0 0 Z " fill="#7B392B" transform="translate(248,308)"/>
<path d="M0 0 C0 0.66 0 1.32 0 2 C-4.455 2.495 -4.455 2.495 -9 3 C-9 3.66 -9 4.32 -9 5 C-11.64 5.66 -14.28 6.32 -17 7 C-17.226875 8.11375 -17.45375 9.2275 -17.6875 10.375 C-19 14 -19 14 -21.21875 15.1875 C-24.13213059 16.03859995 -26.78796313 16.40635878 -29.8125 16.625 C-30.78832031 16.69976562 -31.76414063 16.77453125 -32.76953125 16.8515625 C-33.87361328 16.92503906 -33.87361328 16.92503906 -35 17 C-35 16.34 -35 15.68 -35 15 C-35.66 14.67 -36.32 14.34 -37 14 C-10.1183432 0 -10.1183432 0 0 0 Z " fill="#8E3E2D" transform="translate(168,194)"/>
<path d="M0 0 C3.288638 2.86429761 4.59452899 4.64118669 5 9 C5.12782974 12.70706238 5.17554079 15.47337764 4 19 C3.34 19 2.68 19 2 19 C1.67 20.65 1.34 22.3 1 24 C0.67 24 0.34 24 0 24 C-0.33 26.97 -0.66 29.94 -1 33 C-1.33 33 -1.66 33 -2 33 C-3.54129013 22.2109691 -5.0033384 10.00667681 0 0 Z " fill="#733121" transform="translate(120,213)"/>
<path d="M0 0 C0.94324258 4.31196609 1.48041715 8.62065881 2 13 C1.34 13 0.68 13 0 13 C0 12.01 0 11.02 0 10 C-0.99 9.67 -1.98 9.34 -3 9 C-2.67 6.69 -2.34 4.38 -2 2 C-3.65 2 -5.3 2 -7 2 C-7.33 3.65 -7.66 5.3 -8 7 C-9.32 7 -10.64 7 -12 7 C-12 7.66 -12 8.32 -12 9 C-15.63 9 -19.26 9 -23 9 C-22.67 8.34 -22.34 7.68 -22 7 C-22.66 6.34 -23.32 5.68 -24 5 C-21.31578673 4.1545785 -18.62843232 3.32352767 -15.9375 2.5 C-15.18533203 2.26152344 -14.43316406 2.02304688 -13.65820312 1.77734375 C-8.92167379 0.34203183 -4.94781834 -0.26283232 0 0 Z " fill="#91402E" transform="translate(205,184)"/>
<path d="M0 0 C-7.08054989 7.44784066 -13.19135763 11.94809669 -23.875 12.3125 C-28.97113948 12.22652219 -33.30582345 10.90488324 -38 9 C-38 8.34 -38 7.68 -38 7 C-33.38 5.02 -28.76 3.04 -24 1 C-25 4 -25 4 -28 5.5625 C-28.99 6.036875 -29.98 6.51125 -31 7 C-31.33 7.66 -31.66 8.32 -32 9 C-29.24915453 8.88588196 -26.49988053 8.75914051 -23.75 8.625 C-22.97269531 8.5940625 -22.19539063 8.563125 -21.39453125 8.53125 C-15.88540005 8.33282016 -15.88540005 8.33282016 -11 6 C-10.34 5.01 -9.68 4.02 -9 3 C-7.68 3 -6.36 3 -5 3 C-5.495 1.515 -5.495 1.515 -6 0 C-3 -1 -3 -1 0 0 Z " fill="#AA4D4C" transform="translate(341,274)"/>
<path d="M0 0 C2 1 2 1 2.8515625 3.28515625 C3.10679688 4.20167969 3.36203125 5.11820313 3.625 6.0625 C3.88539062 6.98160156 4.14578125 7.90070313 4.4140625 8.84765625 C4.60742188 9.55792969 4.80078125 10.26820313 5 11 C5.66 10.67 6.32 10.34 7 10 C7.65555119 7.47266765 7.65555119 7.47266765 8 5 C9.96630396 7.94945594 11.25740853 10.73697474 12.625 14 C13.07101563 15.051875 13.51703125 16.10375 13.9765625 17.1875 C15 20 15 20 15 23 C12.48916886 21.74458443 12.12874554 20.49936512 11 18 C10.34 18.99 9.68 19.98 9 21 C9 20.34 9 19.68 9 19 C8.01 19 7.02 19 6 19 C5.34 18.34 4.68 17.68 4 17 C3.67 21.95 3.34 26.9 3 32 C2.67 32 2.34 32 2 32 C2.01047363 31.42556152 2.02094727 30.85112305 2.03173828 30.25927734 C2.07357099 27.63123023 2.099412 25.00325346 2.125 22.375 C2.14175781 21.47136719 2.15851563 20.56773437 2.17578125 19.63671875 C2.21234556 14.62740778 1.84462881 10.72686132 0 6 C-0.125 2.625 -0.125 2.625 0 0 Z " fill="#8B4031" transform="translate(119,248)"/>
<path d="M0 0 C-1 3 -1 3 -4.0625 4.71875 C-5.36957499 5.32434912 -6.68247937 5.91747557 -8 6.5 C-9.01634521 6.96345825 -9.01634521 6.96345825 -10.05322266 7.4362793 C-13.77228878 9.10520468 -17.48329587 10.58453511 -21.375 11.8125 C-22.57125 12.204375 -23.7675 12.59625 -25 13 C-25.33 13.66 -25.66 14.32 -26 15 C-25.12127921 10.89930298 -24.32572585 7.94694703 -20.8125 5.4375 C-13.70206247 1.80327637 -7.9860405 -0.18572187 0 0 Z " fill="#98452E" transform="translate(268,304)"/>
<path d="M0 0 C-1.76315518 4.76051898 -5.61150284 7.5426119 -9.84375 10.125 C-16.18610163 12.69870791 -23.58483235 11.47660581 -29.75 9 C-31.17627293 8.35414056 -32.59712908 7.69522807 -34 7 C-33.34 6.67 -32.68 6.34 -32 6 C-32 5.01 -32 4.02 -32 3 C-31.34 3 -30.68 3 -30 3 C-30 3.66 -30 4.32 -30 5 C-29.34 5.33 -28.68 5.66 -28 6 C-28 6.66 -28 7.32 -28 8 C-22.06 8 -16.12 8 -10 8 C-10 7.34 -10 6.68 -10 6 C-9.01 6 -8.02 6 -7 6 C-7 4.35 -7 2.7 -7 1 C-4.53721199 -0.231394 -2.7204945 -0.07159196 0 0 Z " fill="#B95354" transform="translate(172,297)"/>
<path d="M0 0 C7.26772031 13.96167322 3.38452162 36.94770725 1 52 C0.67 52 0.34 52 0 52 C-0.60773115 48.62371584 -1.12725091 45.72887937 -0.53344727 42.32763672 C0.13662742 38.14772002 0.12418114 34.10780096 0.09765625 29.8828125 C0.0962413 29.02565643 0.09482635 28.16850037 0.09336853 27.28536987 C0.08780022 24.5652101 0.07525364 21.84513462 0.0625 19.125 C0.0574809 17.27343869 0.05291871 15.42187609 0.04882812 13.5703125 C0.03784117 9.04684285 0.02059852 4.52343568 0 0 Z " fill="#592C21" transform="translate(342,194)"/>
<path d="M0 0 C2.14953175 3.22429763 3.18562541 6.15047432 4.4375 9.8125 C6.00844096 14.40713296 7.74084747 18.6990478 10 23 C9.34 23 8.68 23 8 23 C8 22.34 8 21.68 8 21 C6.35 21 4.7 21 3 21 C2.15399724 18.9635505 1.3237175 16.92056513 0.5 14.875 C-0.19609375 13.16957031 -0.19609375 13.16957031 -0.90625 11.4296875 C-1.99543712 8.01430789 -2.37075282 5.55304785 -2 2 C-1.34 1.34 -0.68 0.68 0 0 Z " fill="#9E5645" transform="translate(253,240)"/>
<path d="M0 0 C0.33 0 0.66 0 1 0 C3.18137854 22.80127986 3.18137854 22.80127986 4 32 C2.33333333 32 0.66666667 32 -1 32 C-2.14077657 28.57767028 -2.09815117 25.91326783 -2.0625 22.3125 C-2.05347656 21.13300781 -2.04445312 19.95351562 -2.03515625 18.73828125 C-2.02355469 17.83464844 -2.01195312 16.93101562 -2 16 C-1.67 16 -1.34 16 -1 16 C-0.67 10.72 -0.34 5.44 0 0 Z " fill="#964835" transform="translate(249,208)"/>
<path d="M0 0 C0.69222656 0.5053125 1.38445312 1.010625 2.09765625 1.53125 C10.72768108 7.26185937 16.91207313 8.06699226 27 7 C28.34284489 6.70732868 29.68359369 6.39492189 31 6 C31 6.99 31 7.98 31 9 C25.73812945 10.28801006 20.65788364 9.98340138 15.27734375 9.83984375 C12.17505275 9.99144557 10.58008461 10.35929781 8 12 C7.67 11.01 7.34 10.02 7 9 C6.34 8.67 5.68 8.34 5 8 C5 7.34 5 6.68 5 6 C3.02 5.34 1.04 4.68 -1 4 C-0.67 2.68 -0.34 1.36 0 0 Z " fill="#944832" transform="translate(243,319)"/>
<path d="M0 0 C0.99 0 1.98 0 3 0 C4.74514862 1.96888563 6.38263822 3.93280947 8 6 C10.13156181 8.54412216 11.31209625 9.79362888 14.5 10.75 C22.73281897 11.3380585 29.49860444 11.75069778 37 8 C39.125 8.9375 39.125 8.9375 41 10 C31.84760876 13.2338449 21.19074766 16.69868437 11.8125 12.4375 C6.76615129 9.56559423 1.86380317 5.59140952 0 0 Z " fill="#974F3F" transform="translate(286,240)"/>
<path d="M0 0 C-0.88042969 0.45890625 -1.76085937 0.9178125 -2.66796875 1.390625 C-3.82941406 2.00421875 -4.99085938 2.6178125 -6.1875 3.25 C-7.33605469 3.85328125 -8.48460937 4.4565625 -9.66796875 5.078125 C-12.71734251 6.83696661 -15.32486306 8.72285895 -18 11 C-18.33 10.01 -18.66 9.02 -19 8 C-18.01 7.67 -17.02 7.34 -16 7 C-16 6.34 -16 5.68 -16 5 C-20.455 5.495 -20.455 5.495 -25 6 C-22.03050913 4.02033942 -19.55805388 3.05253858 -16.1875 1.9375 C-15.17042969 1.59589844 -14.15335938 1.25429687 -13.10546875 0.90234375 C-4.56348302 -1.5796672 -4.56348302 -1.5796672 0 0 Z " fill="#F7E8E1" transform="translate(198,193)"/>
<path d="M0 0 C4.98928746 4.17870294 5.72501816 11.38767248 6.375 17.5625 C6.189375 18.7690625 6.189375 18.7690625 6 20 C5.01 20.66 4.02 21.32 3 22 C-0.50848663 14.69065285 -0.30372936 8.00945568 0 0 Z " fill="#9C422B" transform="translate(121,238)"/>
<path d="M0 0 C0.33 0.66 0.66 1.32 1 2 C3.31 2 5.62 2 8 2 C4.56318376 4.29121083 1.17256686 5.39718383 -2.72265625 6.70703125 C-5.62759968 8.3563216 -6.08143852 9.8602842 -7 13 C-7.33 13 -7.66 13 -8 13 C-8.33 10.36 -8.66 7.72 -9 5 C-9.99 4.67 -10.98 4.34 -12 4 C-9.57869669 1.57869669 -8.19888623 1.47159496 -4.875 0.875 C-3.50988281 0.62363281 -3.50988281 0.62363281 -2.1171875 0.3671875 C-1.06917969 0.18542969 -1.06917969 0.18542969 0 0 Z " fill="#9B4D3D" transform="translate(133,208)"/>
<path d="M0 0 C0.5775 0.350625 1.155 0.70125 1.75 1.0625 C1.75 2.0525 1.75 3.0425 1.75 4.0625 C0.1 4.0625 -1.55 4.0625 -3.25 4.0625 C-3.37375 4.84625 -3.4975 5.63 -3.625 6.4375 C-4.25 9.0625 -4.25 9.0625 -6.25 11.0625 C-6.29241723 8.72955225 -6.29092937 6.39547433 -6.25 4.0625 C-5.92 3.7325 -5.59 3.4025 -5.25 3.0625 C-10.2 3.0625 -15.15 3.0625 -20.25 3.0625 C-20.25 2.0725 -20.25 1.0825 -20.25 0.0625 C-19.28578125 0.07410156 -18.3215625 0.08570313 -17.328125 0.09765625 C-15.43320313 0.11119141 -15.43320313 0.11119141 -13.5 0.125 C-11.62054688 0.14240234 -11.62054688 0.14240234 -9.703125 0.16015625 C-0.25677966 -0.10699153 -0.25677966 -0.10699153 0 0 Z " fill="#964233" transform="translate(178.25,285.9375)"/>
<path d="M0 0 C0.33 0 0.66 0 1 0 C0.97679687 1.01320312 0.95359375 2.02640625 0.9296875 3.0703125 C0.9109159 4.42186758 0.8927172 5.77343069 0.875 7.125 C0.85824219 7.79015625 0.84148437 8.4553125 0.82421875 9.140625 C0.78102677 13.54620684 1.55271756 16.8774379 3 21 C3.27580863 23.28452807 3.4843786 25.57818383 3.625 27.875 C3.69976562 29.02742188 3.77453125 30.17984375 3.8515625 31.3671875 C3.90054688 32.23601562 3.94953125 33.10484375 4 34 C3.34 34 2.68 34 2 34 C1.32114013 31.50276548 0.65682573 29.00303859 0 26.5 C-0.19078125 25.80390625 -0.3815625 25.1078125 -0.578125 24.390625 C-2.34187455 17.58759103 -2.53912814 11.42607664 -1 4.5 C-0.814375 3.6440625 -0.62875 2.788125 -0.4375 1.90625 C-0.293125 1.2771875 -0.14875 0.648125 0 0 Z " fill="#9F5849" transform="translate(171,215)"/>
<path d="M0 0 C0.125 2.375 0.125 2.375 0 5 C-2.5654594 7.5654594 -4.47686668 7.54046087 -8 8 C-8 7.01 -8 6.02 -8 5 C-7.34 5 -6.68 5 -6 5 C-6 4.34 -6 3.68 -6 3 C-6.79664063 3.34224609 -6.79664063 3.34224609 -7.609375 3.69140625 C-8.31578125 3.97886719 -9.0221875 4.26632813 -9.75 4.5625 C-10.44609375 4.85253906 -11.1421875 5.14257812 -11.859375 5.44140625 C-14.30012784 6.07831803 -15.6403655 5.80248831 -18 5 C-11.74031045 0.85647028 -7.51869512 -0.59672183 0 0 Z " fill="#733828" transform="translate(300,132)"/>
<path d="M0 0 C0 0.66 0 1.32 0 2 C-0.66 2 -1.32 2 -2 2 C-2.061875 2.61875 -2.12375 3.2375 -2.1875 3.875 C-3 6 -3 6 -5.0625 7.1875 C-8.71739237 8.19842768 -12.22696914 8.61630195 -16 9 C-16 7.68 -16 6.36 -16 5 C-15.01 5 -14.02 5 -13 5 C-13 4.34 -13 3.68 -13 3 C-11.58603098 2.49242138 -10.16868271 1.99425075 -8.75 1.5 C-7.96109375 1.2215625 -7.1721875 0.943125 -6.359375 0.65625 C-4 0 -4 0 0 0 Z " fill="#964431" transform="translate(294,135)"/>
<path d="M0 0 C-0.33 1.32 -0.66 2.64 -1 4 C-1.66 4 -2.32 4 -3 4 C-3 4.66 -3 5.32 -3 6 C0.3 5.34 3.6 4.68 7 4 C5.48400735 7.0319853 3.1403567 7.41024437 0.0625 8.6875 C-1.01902344 9.14511719 -2.10054688 9.60273438 -3.21484375 10.07421875 C-6 11 -6 11 -8 10 C-7.67 9.34 -7.34 8.68 -7 8 C-7.66 8 -8.32 8 -9 8 C-8.875 5.6875 -8.875 5.6875 -8 3 C-3.13793103 0 -3.13793103 0 0 0 Z " fill="#692F22" transform="translate(281,138)"/>
<path d="M0 0 C3.11263636 3.11263636 3.58429923 7.00413755 4.6875 11.1875 C4.92533203 12.02603516 5.16316406 12.86457031 5.40820312 13.72851562 C6.79022812 18.92022828 7.17375205 22.74301354 6 28 C3.65953241 25.65953241 3.74715146 25.11014787 3.5625 21.9375 C3.26646961 18.51670442 2.63274593 15.65461055 1.4375 12.4375 C-0.13245329 8.10869675 -0.24990928 4.58167015 0 0 Z " fill="#863E2E" transform="translate(207,197)"/>
<path d="M0 0 C0.33 0.99 0.66 1.98 1 3 C2.32 2.34 3.64 1.68 5 1 C5.33 1.99 5.66 2.98 6 4 C5.67 4.33 5.34 4.66 5 5 C5.05109352 10.95239535 6.54166078 15.65578431 9 21 C9 21.99 9 22.98 9 24 C9.66 24.33 10.32 24.66 11 25 C10.01 25 9.02 25 8 25 C3.68405502 17.13576824 0 9.10944284 0 0 Z " fill="#7A3B2C" transform="translate(247,237)"/>
<path d="M0 0 C0 5.61 0 11.22 0 17 C-0.33 17 -0.66 17 -1 17 C-1 11.72 -1 6.44 -1 1 C-2.32 1.33 -3.64 1.66 -5 2 C-5 3.32 -5 4.64 -5 6 C-6.32 6 -7.64 6 -9 6 C-9 5.34 -9 4.68 -9 4 C-9.928125 4.20625 -10.85625 4.4125 -11.8125 4.625 C-15 5 -15 5 -18 3 C-11.75726932 0.5206176 -6.71700347 -0.31985731 0 0 Z " fill="#57271B" transform="translate(303,289)"/>
<path d="M0 0 C1.98 0 3.96 0 6 0 C0.30083375 5.69916625 -7.2613848 6.37337388 -14.9375 6.375 C-15.68330322 6.3764502 -16.42910645 6.37790039 -17.19750977 6.37939453 C-20.96848211 6.30290073 -22.79556132 6.13629245 -26 4 C-22.9317362 3.10250178 -20.20730024 2.88288232 -17.015625 2.90234375 C-16.08105469 2.90556641 -15.14648438 2.90878906 -14.18359375 2.91210938 C-13.21550781 2.92048828 -12.24742187 2.92886719 -11.25 2.9375 C-10.26644531 2.94201172 -9.28289062 2.94652344 -8.26953125 2.95117188 C-5.84629209 2.96293517 -3.42317727 2.97937316 -1 3 C-0.67 2.01 -0.34 1.02 0 0 Z " fill="#5E2C25" transform="translate(277,327)"/>
<path d="M0 0 C0.99 0 1.98 0 3 0 C2.1875 1.9375 2.1875 1.9375 1 4 C0.01 4.33 -0.98 4.66 -2 5 C-2 5.66 -2 6.32 -2 7 C-3.75 8.5078125 -3.75 8.5078125 -6 10.125 C-6.7425 10.66382813 -7.485 11.20265625 -8.25 11.7578125 C-8.8275 12.16773438 -9.405 12.57765625 -10 13 C-10.66 12.67 -11.32 12.34 -12 12 C-11.34 9.69 -10.68 7.38 -10 5 C-9.01 5.33 -8.02 5.66 -7 6 C-7 5.34 -7 4.68 -7 4 C-5.02 3.67 -3.04 3.34 -1 3 C-0.67 2.01 -0.34 1.02 0 0 Z " fill="#753727" transform="translate(295,314)"/>
<path d="M0 0 C0.94324258 4.31196609 1.48041715 8.62065881 2 13 C1.34 13 0.68 13 0 13 C0 12.01 0 11.02 0 10 C-0.99 9.67 -1.98 9.34 -3 9 C-2.67 6.69 -2.34 4.38 -2 2 C-7.28 2.66 -12.56 3.32 -18 4 C-12.40185694 0.26790462 -6.54467462 -0.27269478 0 0 Z " fill="#4D261E" transform="translate(205,184)"/>
<path d="M0 0 C-0.33 0.33 -0.66 0.66 -1 1 C1.31 1 3.62 1 6 1 C3.53859635 3.46140365 1.21543707 4.30326986 -2 5.625 C-3.0725 6.07101562 -4.145 6.51703125 -5.25 6.9765625 C-8 8 -8 8 -10 8 C-10.33 8.66 -10.66 9.32 -11 10 C-10.07439513 5.68051059 -9.19435532 2.88811036 -5.5625 0.1875 C-3 -1 -3 -1 0 0 Z " fill="#994E3D" transform="translate(253,309)"/>
<path d="M0 0 C-0.33 0.66 -0.66 1.32 -1 2 C-0.34 2 0.32 2 1 2 C0.67 2.99 0.34 3.98 0 5 C-1.65 5 -3.3 5 -5 5 C-5 5.66 -5 6.32 -5 7 C-6.98 7 -8.96 7 -11 7 C-10.875 4.6875 -10.875 4.6875 -10 2 C-6.48038665 -0.3464089 -4.05504805 -1.71559725 0 0 Z " fill="#7A3A2D" transform="translate(273,144)"/>
<path d="M0 0 C0.515625 0.391875 1.03125 0.78375 1.5625 1.1875 C1.2325 2.1775 0.9025 3.1675 0.5625 4.1875 C-3.34018891 5.68990188 -7.74523467 5.54498104 -11.87890625 5.80859375 C-14.67325944 6.03641007 -14.67325944 6.03641007 -17.4375 8.1875 C-19.625 7.8125 -19.625 7.8125 -21.4375 7.1875 C-20.65246094 6.86136719 -19.86742187 6.53523438 -19.05859375 6.19921875 C-18.00800781 5.76222656 -16.95742187 5.32523437 -15.875 4.875 C-14.78058594 4.42382812 -13.68617188 3.97265625 -12.55859375 3.5078125 C-10.14071251 2.48497913 -7.79658742 1.39598995 -5.4375 0.25 C-2.4375 -0.8125 -2.4375 -0.8125 0 0 Z " fill="#703225" transform="translate(271.4375,299.8125)"/>
<path d="M0 0 C0 0.99 0 1.98 0 3 C-0.9590625 3.3403125 -0.9590625 3.3403125 -1.9375 3.6875 C-4.27193661 4.85250896 -4.27193661 4.85250896 -4.75 7.625 C-4.8325 8.40875 -4.915 9.1925 -5 10 C-5.59167969 10.12117188 -6.18335938 10.24234375 -6.79296875 10.3671875 C-11.03803585 11.26744643 -15.02439661 12.20456621 -19 14 C-19 13.34 -19 12.68 -19 12 C-18.13117188 11.55269531 -17.26234375 11.10539062 -16.3671875 10.64453125 C-10.45570332 7.5433164 -4.89172376 4.61219669 0 0 Z " fill="#99503F" transform="translate(323,263)"/>
<path d="M0 0 C0 0.66 0 1.32 0 2 C-4.455 2.495 -4.455 2.495 -9 3 C-9 3.66 -9 4.32 -9 5 C-10.91197039 5.70045456 -12.82980435 6.384919 -14.75 7.0625 C-15.81734375 7.44535156 -16.8846875 7.82820312 -17.984375 8.22265625 C-20.92280042 8.98010011 -22.22348948 9.07151741 -25 8 C-6.31225296 0 -6.31225296 0 0 0 Z " fill="#5A2B22" transform="translate(168,194)"/>
<path d="M0 0 C0.33 0 0.66 0 1 0 C0.67 9.57 0.34 19.14 0 29 C-0.33 29 -0.66 29 -1 29 C-1.33 21.74 -1.66 14.48 -2 7 C-2.33 9.31 -2.66 11.62 -3 14 C-3.33 14 -3.66 14 -4 14 C-4.28571429 5.42857143 -4.28571429 5.42857143 -2 2 C-1.34 2 -0.68 2 0 2 C0 1.34 0 0.68 0 0 Z " fill="#A56355" transform="translate(251,194)"/>
<path d="M0 0 C-0.99 0.495 -0.99 0.495 -2 1 C0.475 1.495 0.475 1.495 3 2 C0.42449182 3.71700545 -1.35577992 4.56997075 -4.23046875 5.5078125 C-5.03291016 5.77207031 -5.83535156 6.03632813 -6.66210938 6.30859375 C-7.49548828 6.57800781 -8.32886719 6.84742188 -9.1875 7.125 C-10.03248047 7.40214844 -10.87746094 7.67929688 -11.74804688 7.96484375 C-13.83073693 8.64730716 -15.91471191 9.32552526 -18 10 C-18 9.34 -18 8.68 -18 8 C-14.04 6.35 -10.08 4.7 -6 3 C-6 2.01 -6 1.02 -6 0 C-3.50907189 -1.24546405 -2.58919267 -0.7767578 0 0 Z " fill="#994C3B" transform="translate(185,191)"/>
<path d="M0 0 C6.28552801 5.77589061 8.28514995 10.70773944 9 19 C6.4345406 16.4345406 6.45953913 14.52313332 6 11 C4.68 10.67 3.36 10.34 2 10 C1.34 6.7 0.68 3.4 0 0 Z " fill="#974F3D" transform="translate(329,202)"/>
<path d="M0 0 C0.33 0.99 0.66 1.98 1 3 C-1.64738916 4.4606285 -2.89448334 5 -6 5 C-6 5.66 -6 6.32 -6 7 C-5.34 7.33 -4.68 7.66 -4 8 C-6 10 -6 10 -8.625 10.125 C-9.40875 10.08375 -10.1925 10.0425 -11 10 C-11 9.34 -11 8.68 -11 8 C-11.99 7.67 -12.98 7.34 -14 7 C-9.38 4.69 -4.76 2.38 0 0 Z " fill="#9E4B3A" transform="translate(193,277)"/>
<path d="M0 0 C0.66 0 1.32 0 2 0 C2.0272415 1.41655793 2.04650467 2.83327045 2.0625 4.25 C2.07410156 5.03890625 2.08570313 5.8278125 2.09765625 6.640625 C2.00385306 8.90691002 1.63241063 10.8288895 1 13 C0.34 13 -0.32 13 -1 13 C-1 13.66 -1 14.32 -1 15 C-1.66 15 -2.32 15 -3 15 C-2.5547115 9.72684667 -1.91626837 4.98229776 0 0 Z " fill="#9B4533" transform="translate(252,181)"/>
<path d="M0 0 C1.32 0 2.64 0 4 0 C4 0.66 4 1.32 4 2 C7.3 1.67 10.6 1.34 14 1 C13 3 13 3 10.1640625 4.0703125 C8.99617187 4.41835938 7.82828125 4.76640625 6.625 5.125 C5.46226562 5.47820312 4.29953125 5.83140625 3.1015625 6.1953125 C0 7 0 7 -3 7 C-3 6.34 -3 5.68 -3 5 C-1.35 5 0.3 5 2 5 C1.34 3.35 0.68 1.7 0 0 Z " fill="#6F3525" transform="translate(178,285)"/>
<path d="M0 0 C1.25683594 0.00322266 2.51367188 0.00644531 3.80859375 0.00976562 C5.12730469 0.01814453 6.44601562 0.02652344 7.8046875 0.03515625 C9.14452961 0.04017136 10.4843735 0.04473424 11.82421875 0.04882812 C15.10941956 0.06064539 18.39453147 0.07712008 21.6796875 0.09765625 C21.6796875 0.42765625 21.6796875 0.75765625 21.6796875 1.09765625 C20.91825439 1.10176514 20.15682129 1.10587402 19.37231445 1.11010742 C15.91149084 1.14306765 12.45242179 1.21371679 8.9921875 1.28515625 C7.19491211 1.29385742 7.19491211 1.29385742 5.36132812 1.30273438 C-1.77144094 1.20786447 -1.77144094 1.20786447 -7.65234375 4.6484375 C-8.20277344 5.45667969 -8.75320312 6.26492187 -9.3203125 7.09765625 C-8.9453125 4.16015625 -8.9453125 4.16015625 -8.3203125 1.09765625 C-5.50207058 -0.31146471 -3.14779968 -0.01417928 0 0 Z " fill="#F9E4DA" transform="translate(263.3203125,181.90234375)"/>
<path d="M0 0 C1.32 0 2.64 0 4 0 C4.33 4.29 4.66 8.58 5 13 C4.34 12.67 3.68 12.34 3 12 C2.59270772 9.67843403 2.25561323 7.3431213 2 5 C0.68 4.67 -0.64 4.34 -2 4 C-1.34 2.68 -0.68 1.36 0 0 Z " fill="#7C3A2B" transform="translate(337,177)"/>
<path d="M0 0 C0.66 0 1.32 0 2 0 C1.67854004 0.52110352 1.35708008 1.04220703 1.02587891 1.57910156 C-0.30257361 4.71402187 -0.3245499 7.33289608 -0.4140625 10.734375 C-0.45273438 12.02988281 -0.49140625 13.32539063 -0.53125 14.66015625 C-0.56270267 16.02343284 -0.59395007 17.38671418 -0.625 18.75 C-0.66320469 20.12893028 -0.70225787 21.50783734 -0.7421875 22.88671875 C-0.83648004 26.25767718 -0.9220822 29.62862978 -1 33 C-1.33 33 -1.66 33 -2 33 C-2.04938149 28.62176083 -2.0857104 24.24366854 -2.10986328 19.86523438 C-2.11993043 18.3752968 -2.13358518 16.88537903 -2.15087891 15.39550781 C-2.17509653 13.25580972 -2.18647564 11.11637247 -2.1953125 8.9765625 C-2.21102295 7.04417725 -2.21102295 7.04417725 -2.22705078 5.07275391 C-2 2 -2 2 0 0 Z " fill="#FAEEE7" transform="translate(128,215)"/>
<path d="M0 0 C-1.78881736 1.00508801 -3.58114696 2.00392736 -5.375 3 C-6.37273437 3.556875 -7.37046875 4.11375 -8.3984375 4.6875 C-11 6 -11 6 -13 6 C-13 4.35 -13 2.7 -13 1 C-11.58622218 0.63447197 -10.16879424 0.28304505 -8.75 -0.0625 C-7.96109375 -0.25972656 -7.1721875 -0.45695313 -6.359375 -0.66015625 C-3.89605178 -1.01497267 -2.34395868 -0.76877544 0 0 Z " fill="#F4DDD5" transform="translate(198,193)"/>
<path d="M0 0 C1.305239 3.91571701 0.32239848 5.03892997 -1.4375 8.6875 C-1.91058594 9.68136719 -2.38367188 10.67523438 -2.87109375 11.69921875 C-3.42990234 12.83810547 -3.42990234 12.83810547 -4 14 C-4.99 12.68 -5.98 11.36 -7 10 C-6.54625 9.4225 -6.0925 8.845 -5.625 8.25 C-3.97503295 6.09273476 -3.97503295 6.09273476 -2.9375 3.875 C-2 2 -2 2 0 0 Z " fill="#F7E6DE" transform="translate(336,240)"/>
<path d="M0 0 C-0.66 0 -1.32 0 -2 0 C-2 0.99 -2 1.98 -2 3 C-1.34 3.33 -0.68 3.66 0 4 C-4.68965706 5.11658501 -7.53763531 4.80619523 -12 3 C-8.61613364 -0.38386636 -4.56431325 -1.75550509 0 0 Z " fill="#823C2A" transform="translate(181,191)"/>
<path d="M0 0 C1.65 0 3.3 0 5 0 C4.67 1.65 4.34 3.3 4 5 C2.68 4.34 1.36 3.68 0 3 C0 2.01 0 1.02 0 0 Z M-1 3 C1 5 1 5 1.125 7.625 C1.08375 8.40875 1.0425 9.1925 1 10 C-0.65 9.67 -2.3 9.34 -4 9 C-3.34 8.34 -2.68 7.68 -2 7 C-2.99 7 -3.98 7 -5 7 C-5 6.34 -5 5.68 -5 5 C-3.68 5 -2.36 5 -1 5 C-1 4.34 -1 3.68 -1 3 Z " fill="#9F4D3A" transform="translate(198,186)"/>
<path d="M0 0 C1.32 0 2.64 0 4 0 C4.33 0.99 4.66 1.98 5 3 C2.69 2.67 0.38 2.34 -2 2 C-1.34 1.34 -0.68 0.68 0 0 Z M9 2 C10.65 2 12.3 2 14 2 C10.2440786 5.42931954 5.76533255 6.56429083 1 8 C1.33 6.35 1.66 4.7 2 3 C4.31 3.33 6.62 3.66 9 4 C9 3.34 9 2.68 9 2 Z " fill="#622D21" transform="translate(259,147)"/>
<path d="M0 0 C0.66 0.99 1.32 1.98 2 3 C2.99 3.33 3.98 3.66 5 4 C0.545 5.485 0.545 5.485 -4 7 C-4 5.68 -4 4.36 -4 3 C-5.4166747 1.2488427 -5.4166747 1.2488427 -7 0 C-4.27584084 -1.36207958 -2.87220643 -0.86166193 0 0 Z " fill="#652D20" transform="translate(251,154)"/>
<path d="M0 0 C0.66 0.33 1.32 0.66 2 1 C2 1.66 2 2.32 2 3 C2.7425 3.268125 3.485 3.53625 4.25 3.8125 C6.86636554 4.94229421 8.80187111 6.20893202 11 8 C10.67 8.66 10.34 9.32 10 10 C9.34 10 8.68 10 8 10 C7.62875 9.54625 7.2575 9.0925 6.875 8.625 C3.95058137 6.09050386 0.75598184 5.80045515 -3 5 C-2.505 4.54625 -2.01 4.0925 -1.5 3.625 C0.22609337 2.12364481 0.22609337 2.12364481 0 0 Z " fill="#9C5241" transform="translate(267,268)"/>
<path d="M0 0 C5.61 0 11.22 0 17 0 C16.67 0.99 16.34 1.98 16 3 C11.05 3 6.1 3 1 3 C0.67 2.01 0.34 1.02 0 0 Z " fill="#954D39" transform="translate(157,286)"/>
<path d="M0 0 C1.29550781 -0.03867188 1.29550781 -0.03867188 2.6171875 -0.078125 C5.125 0.25 5.125 0.25 9.125 3.25 C2.855 3.25 -3.415 3.25 -9.875 3.25 C-6.16615425 0.77743617 -4.39638003 0.07827383 0 0 Z " fill="#A66458" transform="translate(308.875,189.75)"/>
<path d="M0 0 C1.0625 1.875 1.0625 1.875 2 4 C1.67 4.66 1.34 5.32 1 6 C0.92805131 8.88370333 0.90708292 11.74239664 0.9375 14.625 C0.94201172 15.42679687 0.94652344 16.22859375 0.95117188 17.0546875 C0.96296832 19.03649006 0.98090395 21.01825433 1 23 C-1.67639429 19.04359105 -1.26056386 14.95879557 -1.1875 10.375 C-1.18685547 9.59898437 -1.18621094 8.82296875 -1.18554688 8.0234375 C-1.140687 2.28137401 -1.140687 2.28137401 0 0 Z " fill="#C75F5F" transform="translate(123,263)"/>
<path d="M0 0 C2.0625 0.4375 2.0625 0.4375 4 1 C4.33 2.32 4.66 3.64 5 5 C3.125 6.0625 3.125 6.0625 1 7 C0.34 6.67 -0.32 6.34 -1 6 C-1.042721 4.33388095 -1.04063832 2.66617115 -1 1 C-0.67 0.67 -0.34 0.34 0 0 Z " fill="#5C322B" transform="translate(224,160)"/>
<path d="M0 0 C2 1 2 1 5 5 C-0.94 5 -6.88 5 -13 5 C-13 4.34 -13 3.68 -13 3 C-12.22914063 3.03480469 -11.45828125 3.06960938 -10.6640625 3.10546875 C-9.15972656 3.14607422 -9.15972656 3.14607422 -7.625 3.1875 C-6.62726563 3.22230469 -5.62953125 3.25710938 -4.6015625 3.29296875 C-3.31378906 3.14794922 -3.31378906 3.14794922 -2 3 C-1.34 2.01 -0.68 1.02 0 0 Z " fill="#F76569" transform="translate(322,278)"/>
<path d="M0 0 C1.27310312 0.93441535 2.543388 1.87267111 3.8125 2.8125 C4.52019531 3.33457031 5.22789062 3.85664063 5.95703125 4.39453125 C7.78531393 5.83128877 9.39896688 7.31815763 11 9 C9.68 9 8.36 9 7 9 C7 8.34 7 7.68 7 7 C4.03 6.505 4.03 6.505 1 6 C0.67 4.02 0.34 2.04 0 0 Z M-1 6 C-0.34 6 0.32 6 1 6 C1.33 6.99 1.66 7.98 2 9 C1.34 9 0.68 9 0 9 C-0.33 8.01 -0.66 7.02 -1 6 Z " fill="#9F5043" transform="translate(137,273)"/>
<path d="M0 0 C0.66 0.33 1.32 0.66 2 1 C1.67 1.66 1.34 2.32 1 3 C2.32 3.33 3.64 3.66 5 4 C5 4.33 5 4.66 5 5 C0.545 5.495 0.545 5.495 -4 6 C-4 5.34 -4 4.68 -4 4 C-4.66 3.67 -5.32 3.34 -6 3 C-4.03533587 1.93224776 -2.03144641 0.93446535 0 0 Z " fill="#863929" transform="translate(137,205)"/>
<path d="M0 0 C4.95 1.98 9.9 3.96 15 6 C15 6.33 15 6.66 15 7 C11.6875 7.6875 11.6875 7.6875 8 8 C6.25 6.625 6.25 6.625 5 5 C4.01 4.67 3.02 4.34 2 4 C2 3.34 2 2.68 2 2 C1.34 2 0.68 2 0 2 C0 1.34 0 0.68 0 0 Z " fill="#E5665E" transform="translate(142,285)"/>
<path d="M0 0 C5.75 1.75 5.75 1.75 8 4 C7.21625 4.309375 6.4325 4.61875 5.625 4.9375 C3.07669872 5.92875038 3.07669872 5.92875038 1 7 C0.34 6.67 -0.32 6.34 -1 6 C-0.67 4.02 -0.34 2.04 0 0 Z " fill="#A14938" transform="translate(148,282)"/>
<path d="M0 0 C0.33 0 0.66 0 1 0 C1 4.95 1 9.9 1 15 C-0.90389849 12.14415227 -1.69462177 10.0688238 -2.625 6.8125 C-3.01558594 5.46091797 -3.01558594 5.46091797 -3.4140625 4.08203125 C-3.60742188 3.39496094 -3.80078125 2.70789063 -4 2 C-3.01 2.33 -2.02 2.66 -1 3 C-0.67 2.01 -0.34 1.02 0 0 Z " fill="#F6DCD1" transform="translate(338,206)"/>
<path d="M0 0 C0.66 0 1.32 0 2 0 C1.32323265 5.5494923 0.05338899 10.94661101 -4 15 C-4.42316559 10.34517848 -2.93697604 7.18386825 -1 3 C-0.67 2.01 -0.34 1.02 0 0 Z " fill="#653029" transform="translate(211,256)"/>
<path d="M0 0 C1 4 1 4 0.0625 6.25 C-0.288125 6.8275 -0.63875 7.405 -1 8 C-1.66 7.67 -2.32 7.34 -3 7 C-2.67 6.67 -2.34 6.34 -2 6 C-4.31 6.33 -6.62 6.66 -9 7 C-9 6.34 -9 5.68 -9 5 C-6.03 3.35 -3.06 1.7 0 0 Z " fill="#954C3B" transform="translate(284,319)"/>
<path d="M0 0 C0.33 0.66 0.66 1.32 1 2 C1.99 2.33 2.98 2.66 4 3 C4.66015625 5.03125 4.66015625 5.03125 5.0625 7.5 C5.42516952 9.91007019 5.42516952 9.91007019 6 12 C6.66 12.33 7.32 12.66 8 13 C7.01 13 6.02 13 5 13 C4.15930585 11.39967863 3.32768495 9.79458829 2.5 8.1875 C1.80390625 6.84751953 1.80390625 6.84751953 1.09375 5.48046875 C0 3 0 3 0 0 Z " fill="#663026" transform="translate(250,249)"/>
<path d="M0 0 C1.65 0 3.3 0 5 0 C5 0.66 5 1.32 5 2 C3.23141309 2.67260351 1.46003984 3.33788395 -0.3125 4 C-1.29863281 4.37125 -2.28476563 4.7425 -3.30078125 5.125 C-6 6 -6 6 -9 6 C-9 5.34 -9 4.68 -9 4 C-5.62902617 2.50178941 -3.79557881 2 0 2 C0 1.34 0 0.68 0 0 Z " fill="#9A4C3D" transform="translate(158,201)"/>
<path d="M0 0 C-4.50353262 1.75747614 -8.17639811 2.19294408 -13 2 C-13.33 1.34 -13.66 0.68 -14 0 C-12.42074025 -0.39180108 -10.83631206 -0.76280736 -9.25 -1.125 C-8.36828125 -1.33382812 -7.4865625 -1.54265625 -6.578125 -1.7578125 C-3.67124507 -2.03088304 -2.43338652 -1.53508028 0 0 Z " fill="#52291F" transform="translate(247,162)"/>
<path d="M0 0 C0.33 1.32 0.66 2.64 1 4 C-0.65 4.33 -2.3 4.66 -4 5 C-4.33 5.99 -4.66 6.98 -5 8 C-5.99 8 -6.98 8 -8 8 C-7.8125 5.6875 -7.8125 5.6875 -7 3 C-2.96551724 0 -2.96551724 0 0 0 Z " fill="#934439" transform="translate(241,154)"/>
<path d="M0 0 C0 0.66 0 1.32 0 2 C-1.24420647 2.5345256 -2.49570936 3.05208611 -3.75 3.5625 C-4.44609375 3.85253906 -5.1421875 4.14257812 -5.859375 4.44140625 C-8.30012784 5.07831803 -9.6403655 4.80248831 -12 4 C-7.81413519 0.81076967 -5.29441695 -0.50423019 0 0 Z " fill="#A0402B" transform="translate(175,195)"/>
<path d="M0 0 C1.07735006 3.23205018 0.92640423 4.33577435 0.1875 7.5625 C-0.06966797 8.74005859 -0.06966797 8.74005859 -0.33203125 9.94140625 C-1 12 -1 12 -3 14 C-3.29341888 8.32723489 -3.00559652 5.00932754 0 0 Z " fill="#6B3128" transform="translate(249,188)"/>
<path d="M0 0 C-0.66 0 -1.32 0 -2 0 C-2 0.66 -2 1.32 -2 2 C-8.96428571 5.34821429 -8.96428571 5.34821429 -13 4 C-11.59248779 3.13083113 -10.1735479 2.28014851 -8.75 1.4375 C-7.96109375 0.96183594 -7.1721875 0.48617187 -6.359375 -0.00390625 C-3.69155375 -1.13022151 -2.65498232 -1.0169313 0 0 Z " fill="#52291D" transform="translate(295,133)"/>
<path d="M0 0 C1.875 0.1875 1.875 0.1875 4 1 C5.48261414 3.88719595 6.29772585 6.83976631 7 10 C6.01 9.67 5.02 9.34 4 9 C2.8125 6.4375 2.8125 6.4375 2 4 C1.34 4 0.68 4 0 4 C0 2.68 0 1.36 0 0 Z " fill="#5C2C20" transform="translate(257,263)"/>
<path d="M0 0 C0.33 0.99 0.66 1.98 1 3 C0.01 3 -0.98 3 -2 3 C-2 3.66 -2 4.32 -2 5 C-3.98 5 -5.96 5 -8 5 C-7.67 3.68 -7.34 2.36 -7 1 C-4.50935112 0.31292445 -2.62113708 0 0 0 Z " fill="#9B4330" transform="translate(270,146)"/>
<path d="M0 0 C0.66 0.33 1.32 0.66 2 1 C0 4 0 4 -2.12890625 4.44140625 C-3.33353516 4.50134766 -3.33353516 4.50134766 -4.5625 4.5625 C-6.93738847 4.64690135 -6.93738847 4.64690135 -9 5 C-9.33 5.66 -9.66 6.32 -10 7 C-10.66 6.34 -11.32 5.68 -12 5 C-10.04578965 4.13644222 -8.08648653 3.28440066 -6.125 2.4375 C-5.03445313 1.96183594 -3.94390625 1.48617188 -2.8203125 0.99609375 C-1.88960938 0.66738281 -0.95890625 0.33867187 0 0 Z " fill="#4F2519" transform="translate(283,293)"/>
<path d="M0 0 C1.32 0 2.64 0 4 0 C4 0.66 4 1.32 4 2 C3.34 2 2.68 2 2 2 C2 2.66 2 3.32 2 4 C1.34 4 0.68 4 0 4 C0 4.66 0 5.32 0 6 C-0.66 6 -1.32 6 -2 6 C-2 6.66 -2 7.32 -2 8 C-2.66 8 -3.32 8 -4 8 C-3.67 6.68 -3.34 5.36 -3 4 C-2.34 4 -1.68 4 -1 4 C-0.67 2.68 -0.34 1.36 0 0 Z " fill="#76372A" transform="translate(196,278)"/>
<path d="M0 0 C2.29633824 3.44450737 2.54016485 5.93812283 3 10 C2.01 10 1.02 10 0 10 C-0.19412181 8.52168779 -0.38012131 7.04230684 -0.5625 5.5625 C-0.66691406 4.73878906 -0.77132812 3.91507813 -0.87890625 3.06640625 C-0.91886719 2.38449219 -0.95882812 1.70257813 -1 1 C-0.67 0.67 -0.34 0.34 0 0 Z " fill="#9D412E" transform="translate(252,241)"/>
<path d="M0 0 C0.79921875 0.01804688 1.5984375 0.03609375 2.421875 0.0546875 C3.02515625 0.07789063 3.6284375 0.10109375 4.25 0.125 C3.92 0.785 3.59 1.445 3.25 2.125 C0.52734375 2.7578125 0.52734375 2.7578125 -2.8125 3.25 C-3.91722656 3.41757813 -5.02195312 3.58515625 -6.16015625 3.7578125 C-7.44212891 3.93957031 -7.44212891 3.93957031 -8.75 4.125 C-8.75 3.465 -8.75 2.805 -8.75 2.125 C-5.68753253 0.34090198 -3.52920727 -0.10380021 0 0 Z " fill="#8A3D2B" transform="translate(286.75,139.875)"/>
<path d="M0 0 C2.3129482 2.3129482 2.49580975 3.47904875 3.125 6.625 C3.29257813 7.44226563 3.46015625 8.25953125 3.6328125 9.1015625 C3.81457031 10.04128906 3.81457031 10.04128906 4 11 C3.01 11 2.02 11 1 11 C-0.28317892 7.15046324 -0.06643637 4.05261865 0 0 Z " fill="#5D2A20" transform="translate(207,197)"/>
<path d="M0 0 C0.33 0.66 0.66 1.32 1 2 C-0.78524649 3.19713017 -2.5784028 4.38247279 -4.375 5.5625 C-5.87160156 6.55443359 -5.87160156 6.55443359 -7.3984375 7.56640625 C-8.25695312 8.03949219 -9.11546875 8.51257813 -10 9 C-10.66 8.67 -11.32 8.34 -12 8 C-10.5665848 6.84906075 -9.12811091 5.70441965 -7.6875 4.5625 C-6.48673828 3.60537109 -6.48673828 3.60537109 -5.26171875 2.62890625 C-3 1 -3 1 0 0 Z " fill="#9A5548" transform="translate(191,196)"/>
<path d="M0 0 C0 0.66 0 1.32 0 2 C-2 4 -2 4 -3.9453125 4.1953125 C-5.96354167 4.13020833 -7.98177083 4.06510417 -10 4 C-6.83527002 0.53386716 -4.79371499 0 0 0 Z " fill="#9D422D" transform="translate(294,293)"/>
<path d="M0 0 C1.50560497 2.85410334 2.63216796 5.68124642 3.625 8.75 C3.88539063 9.54921875 4.14578125 10.3484375 4.4140625 11.171875 C4.60742188 11.77515625 4.80078125 12.3784375 5 13 C4.01 13 3.02 13 2 13 C0.54815522 8.46298506 -0.23509196 4.81938524 0 0 Z " fill="#F3E3D7" transform="translate(171,242)"/>
<path d="M0 0 C0.33 0 0.66 0 1 0 C0.24205379 7.88264059 0.24205379 7.88264059 -3 11 C-3.99 11 -4.98 11 -6 11 C-6 10.34 -6 9.68 -6 9 C-5.01 9 -4.02 9 -3 9 C-2.67 7.35 -2.34 5.7 -2 4 C-1.34 4 -0.68 4 0 4 C0 2.68 0 1.36 0 0 Z " fill="#A7432E" transform="translate(340,243)"/>
<path d="M0 0 C0.66 0.33 1.32 0.66 2 1 C2.40729228 3.32156597 2.74438677 5.6568787 3 8 C2.01 8.495 2.01 8.495 1 9 C-0.73543126 6.39685311 -1.61121812 5.01305957 -2 2 C-1.34 1.34 -0.68 0.68 0 0 Z " fill="#8A3A26" transform="translate(297,305)"/>
<path d="M0 0 C4.50884026 2.31883213 6.93906776 5.06451569 10 9 C6.66272214 7.82744291 4.22562513 6.81131596 2 4 C2 3.34 2 2.68 2 2 C1.34 2 0.68 2 0 2 C0 1.34 0 0.68 0 0 Z " fill="#9A5545" transform="translate(319,193)"/>
<path d="M0 0 C0 0.99 0 1.98 0 3 C-5.28 3 -10.56 3 -16 3 C-16 2.67 -16 2.34 -16 2 C-15.15695312 1.93941406 -14.31390625 1.87882812 -13.4453125 1.81640625 C-12.34960938 1.73261719 -11.25390625 1.64882813 -10.125 1.5625 C-9.03445313 1.48128906 -7.94390625 1.40007812 -6.8203125 1.31640625 C-4.26398303 1.02961583 -2.50524575 0 0 0 Z " fill="#A66655" transform="translate(274,325)"/>
<path d="M0 0 C0.33 0.66 0.66 1.32 1 2 C1.66 2.33 2.32 2.66 3 3 C2.01 4.485 2.01 4.485 1 6 C1 5.34 1 4.68 1 4 C0.401875 4.515625 -0.19625 5.03125 -0.8125 5.5625 C-1.534375 6.036875 -2.25625 6.51125 -3 7 C-3.99 6.67 -4.98 6.34 -6 6 C-4 4 -2 2 0 0 Z " fill="#994F3B" transform="translate(200,270)"/>
<path d="M0 0 C0.598125 0.350625 1.19625 0.70125 1.8125 1.0625 C1.8125 2.3825 1.8125 3.7025 1.8125 5.0625 C-1.07187779 3.76950306 -3.05969421 2.40308637 -5.1875 0.0625 C-2.1875 -0.9375 -2.1875 -0.9375 0 0 Z " fill="#F7F0E6" transform="translate(143.1875,273.9375)"/>
<path d="M0 0 C2.15266842 2.15266842 2.93474462 3.84773744 4.125 6.625 C4.47820312 7.44226563 4.83140625 8.25953125 5.1953125 9.1015625 C5.46085937 9.72804688 5.72640625 10.35453125 6 11 C5.34 11 4.68 11 4 11 C4 10.34 4 9.68 4 9 C3.01 9 2.02 9 1 9 C0.67 6.03 0.34 3.06 0 0 Z " fill="#9B584A" transform="translate(257,252)"/>
<path d="M0 0 C2 1 2 1 2.703125 2.7421875 C2.88359375 3.44601563 3.0640625 4.14984375 3.25 4.875 C3.44078125 5.57367188 3.6315625 6.27234375 3.828125 6.9921875 C4 9 4 9 2 12 C0.40861915 7.82262526 -0.21278058 4.46839215 0 0 Z " fill="#542920" transform="translate(119,248)"/>
<path d="M0 0 C0.33 0.66 0.66 1.32 1 2 C0.07421875 3.9453125 0.07421875 3.9453125 -1.3125 6.125 C-1.76238281 6.84945312 -2.21226562 7.57390625 -2.67578125 8.3203125 C-3.11277344 8.87460938 -3.54976562 9.42890625 -4 10 C-4.66 10 -5.32 10 -6 10 C-4.79157144 5.56909529 -3.48331435 3.01887244 0 0 Z " fill="#9C5949" transform="translate(178,205)"/>
<path d="M0 0 C3.3 0.66 6.6 1.32 10 2 C6.05555556 4.62962963 6.05555556 4.62962963 3 5 C0.75 4.0625 0.75 4.0625 -1 3 C-0.67 2.01 -0.34 1.02 0 0 Z " fill="#984939" transform="translate(139,205)"/>
<path d="M0 0 C0 0.66 0 1.32 0 2 C0.66 2.33 1.32 2.66 2 3 C1.01 3.33 0.02 3.66 -1 4 C-1 3.01 -1 2.02 -1 1 C-3.31 2.32 -5.62 3.64 -8 5 C-8.33 4.34 -8.66 3.68 -9 3 C-8.34 3 -7.68 3 -7 3 C-7 2.34 -7 1.68 -7 1 C-4.53721199 -0.231394 -2.7204945 -0.07159196 0 0 Z " fill="#512820" transform="translate(242,153)"/>
<path d="M0 0 C-0.33 0.66 -0.66 1.32 -1 2 C-1.99 2.33 -2.98 2.66 -4 3 C-4.33 3.66 -4.66 4.32 -5 5 C-5.99 5 -6.98 5 -8 5 C-7.625 3.0625 -7.625 3.0625 -7 1 C-4.53721199 -0.231394 -2.7204945 -0.07159196 0 0 Z " fill="#A15F4C" transform="translate(297,303)"/>
<path d="M0 0 C0.99 0 1.98 0 3 0 C1.71480435 2.86697492 0.42870746 4.97607712 -2 7 C-2.66 7 -3.32 7 -4 7 C-4 6.34 -4 5.68 -4 5 C-3.34 5 -2.68 5 -2 5 C-1.7834375 4.0409375 -1.7834375 4.0409375 -1.5625 3.0625 C-1 1 -1 1 0 0 Z " fill="#612D23" transform="translate(204,271)"/>
<path d="M0 0 C0 0.66 0 1.32 0 2 C-2.64458379 3.32229189 -4.67761301 3.09677194 -7.625 3.0625 C-8.62789063 3.05347656 -9.63078125 3.04445312 -10.6640625 3.03515625 C-11.43492187 3.02355469 -12.20578125 3.01195312 -13 3 C-13 2.67 -13 2.34 -13 2 C-11.39658445 1.66307215 -9.79223445 1.33058907 -8.1875 1 C-7.29417969 0.814375 -6.40085937 0.62875 -5.48046875 0.4375 C-3 0 -3 0 0 0 Z " fill="#F5E3D6" transform="translate(325,251)"/>
<path d="M0 0 C2.64 1.65 5.28 3.3 8 5 C7.34 5.66 6.68 6.32 6 7 C3.69 6.01 1.38 5.02 -1 4 C-0.67 2.68 -0.34 1.36 0 0 Z " fill="#9E4F41" transform="translate(243,319)"/>
<path d="M0 0 C6.75 0.75 6.75 0.75 9 3 C9 3.66 9 4.32 9 5 C5.22454612 3.90931332 2.52956528 3.0916909 0 0 Z " fill="#723529" transform="translate(269,277)"/>
<path d="M0 0 C1.9375 0.3125 1.9375 0.3125 4 1 C4.33 1.99 4.66 2.98 5 4 C3.35 4.33 1.7 4.66 0 5 C-0.33 4.01 -0.66 3.02 -1 2 C-0.67 1.34 -0.34 0.68 0 0 Z " fill="#99412E" transform="translate(263,267)"/>
<path d="M0 0 C1.14926266 0.95421808 2.29430541 1.91352045 3.4375 2.875 C4.07558594 3.40867187 4.71367187 3.94234375 5.37109375 4.4921875 C7 6 7 6 8 8 C5.6875 7.8125 5.6875 7.8125 3 7 C0 2.96551724 0 2.96551724 0 0 Z " fill="#F7ECDF" transform="translate(177,257)"/>
<path d="M0 0 C0 0.66 0 1.32 0 2 C-6.28571429 4.42857143 -6.28571429 4.42857143 -10 3 C-7.02931146 0.02931146 -4.09966187 0 0 0 Z " fill="#5C3026" transform="translate(131,209)"/>
<path d="M0 0 C0.66 0 1.32 0 2 0 C4.09230769 4.43076923 4.09230769 4.43076923 3.625 7.3125 C3.41875 7.869375 3.2125 8.42625 3 9 C0.90250005 6.64031256 0.03094296 5.45383006 -0.1875 2.25 C-0.125625 1.5075 -0.06375 0.765 0 0 Z " fill="#763B2F" transform="translate(209,208)"/>
<path d="M0 0 C0.99 0 1.98 0 3 0 C3.66 2.64 4.32 5.28 5 8 C4.34 8 3.68 8 3 8 C3 7.01 3 6.02 3 5 C2.01 4.67 1.02 4.34 0 4 C0 2.68 0 1.36 0 0 Z " fill="#602C20" transform="translate(202,189)"/>
<path d="M0 0 C0.66 0.33 1.32 0.66 2 1 C-0.75 3.0625 -0.75 3.0625 -4 5 C-6.203125 4.62109375 -6.203125 4.62109375 -8 4 C-6.71349294 3.30289269 -5.42059335 2.61757124 -4.125 1.9375 C-3.40570313 1.55464844 -2.68640625 1.17179687 -1.9453125 0.77734375 C-1.30335938 0.52082031 -0.66140625 0.26429688 0 0 Z " fill="#441E19" transform="translate(248,308)"/>
<path d="M0 0 C-0.625 1.875 -0.625 1.875 -2 4 C-5.125 5.25 -5.125 5.25 -8 6 C-6.72879117 2.18637351 -4.19078006 0 0 0 Z " fill="#9D422C" transform="translate(300,302)"/>
<path d="M0 0 C0.66 0 1.32 0 2 0 C2 0.66 2 1.32 2 2 C2.66 2.33 3.32 2.66 4 3 C4 3.99 4 4.98 4 6 C2.02 5.34 0.04 4.68 -2 4 C-1.34 3.67 -0.68 3.34 0 3 C0 2.01 0 1.02 0 0 Z " fill="#A4494A" transform="translate(140,300)"/>
<path d="M0 0 C0.33 0.99 0.66 1.98 1 3 C-1.35438733 4.42944945 -2.48032433 5.08661261 -5.25 4.625 C-5.8275 4.41875 -6.405 4.2125 -7 4 C-4.69 2.68 -2.38 1.36 0 0 Z " fill="#9A5545" transform="translate(193,277)"/>
<path d="M0 0 C2.475 0.99 2.475 0.99 5 2 C4.34 3.32 3.68 4.64 3 6 C2.34 6 1.68 6 1 6 C1 5.34 1 4.68 1 4 C0.34 3.67 -0.32 3.34 -1 3 C-0.67 2.01 -0.34 1.02 0 0 Z " fill="#904433" transform="translate(244,155)"/>
<path d="M0 0 C2.9375 0.75 2.9375 0.75 6 2 C6.875 4.125 6.875 4.125 7 6 C2.32307692 4.52307692 2.32307692 4.52307692 0.6875 1.875 C0.460625 1.25625 0.23375 0.6375 0 0 Z " fill="#7A3234" transform="translate(131,297)"/>
<path d="M0 0 C0.33 0 0.66 0 1 0 C1.33 3.3 1.66 6.6 2 10 C1.34 10 0.68 10 0 10 C-0.95024979 6.30458414 -0.95024979 3.69541586 0 0 Z " fill="#994230" transform="translate(256,251)"/>
<path d="M0 0 C0.66 0 1.32 0 2 0 C1.5359375 0.7734375 1.5359375 0.7734375 1.0625 1.5625 C-0.29059287 4.66665423 -0.61359424 7.65115007 -1 11 C-1.33 11 -1.66 11 -2 11 C-2.05399736 9.54207116 -2.09279177 8.08357288 -2.125 6.625 C-2.15980469 5.40683594 -2.15980469 5.40683594 -2.1953125 4.1640625 C-2 2 -2 2 0 0 Z " fill="#F9E4DC" transform="translate(128,215)"/>
<path d="M0 0 C0.66 0 1.32 0 2 0 C2 0.99 2 1.98 2 3 C2.66 3 3.32 3 4 3 C3.67 3.66 3.34 4.32 3 5 C1.68 5 0.36 5 -1 5 C-0.67 3.35 -0.34 1.7 0 0 Z " fill="#964235" transform="translate(203,194)"/>
</svg>
