<?xml version="1.0" encoding="UTF-8"?>
<svg version="1.1" xmlns="http://www.w3.org/2000/svg" width="500" height="500">
<path d="M0 0 C0 0.66 0 1.32 0 2 C0.556875 2.2475 1.11375 2.495 1.6875 2.75 C6.48277451 5.34204027 9.37939297 7.69619518 11 13 C11.66 13 12.32 13 13 13 C27.08648468 42.17319313 29.0074563 75.14046291 26 107 C25.93409668 107.71800781 25.86819336 108.43601562 25.80029297 109.17578125 C24.54467452 122.11069055 24.54467452 122.11069055 21 126 C18.87792969 126.95727539 18.87792969 126.95727539 16.421875 127.59765625 C15.51590576 127.84032227 14.60993652 128.08298828 13.67651367 128.33300781 C12.71076416 128.57374023 11.74501465 128.81447266 10.75 129.0625 C9.75653564 129.31999023 8.76307129 129.57748047 7.73950195 129.84277344 C-11.53893498 134.76652086 -11.53893498 134.76652086 -20.44921875 135.3046875 C-28.31993477 135.50737668 -28.31993477 135.50737668 -35.13671875 138.80859375 C-36.18616351 140.3338573 -37.18694549 141.89356655 -38.140625 143.48046875 C-43.33786132 150.52294234 -53.7189488 155.820776 -62 158 C-68.39574228 158.8290777 -73.27861305 156.57865327 -79 154 C-79 153.34 -79 152.68 -79 152 C-80.98 151.34 -82.96 150.68 -85 150 C-85 149.34 -85 148.68 -85 148 C-85.59683594 147.74347656 -86.19367188 147.48695313 -86.80859375 147.22265625 C-92.42437503 144.08943069 -95.7867317 137.55382473 -97.53515625 131.54296875 C-99.09626786 123.00276993 -98.592815 113.30532719 -96 105 C-95.49831299 104.46415283 -94.99662598 103.92830566 -94.47973633 103.3762207 C-92.3344163 99.93117866 -92.57854913 96.57633303 -92.59375 92.640625 C-92.58291382 91.81858582 -92.57207764 90.99654663 -92.56091309 90.14959717 C-92.52669286 87.51631978 -92.51109947 84.88346999 -92.5 82.25 C-92.4333654 66.82264118 -91.73106615 52.02772971 -86.3125 37.375 C-86.06266357 36.68188721 -85.81282715 35.98877441 -85.55541992 35.2746582 C-82.35372547 26.77595001 -77.9384308 17.9086533 -72 11 C-71.34 11 -70.68 11 -70 11 C-69.65775391 10.14728516 -69.65775391 10.14728516 -69.30859375 9.27734375 C-64.16902133 0.33295353 -53.04168418 -4.67226719 -43.6484375 -7.77734375 C-29.27744952 -11.45420188 -12.26947341 -7.98942455 0 0 Z " fill="#FDFBFA" transform="translate(258,188)"/>
<path d="M0 0 C4.49414199 2.99346189 8.59355117 6.48073166 12.22265625 10.48046875 C12.22265625 11.14046875 12.22265625 11.80046875 12.22265625 12.48046875 C12.88265625 12.48046875 13.54265625 12.48046875 14.22265625 12.48046875 C14.22265625 13.14046875 14.22265625 13.80046875 14.22265625 14.48046875 C14.88265625 14.48046875 15.54265625 14.48046875 16.22265625 14.48046875 C16.22265625 15.14046875 16.22265625 15.80046875 16.22265625 16.48046875 C16.88265625 16.48046875 17.54265625 16.48046875 18.22265625 16.48046875 C35.83649424 46.69108842 42.20019474 74.69987305 42.96557617 109.49462891 C43.03572735 112.50497595 43.13173859 115.5138424 43.22851562 118.5234375 C43.27630888 120.46740997 43.32258775 122.41142039 43.3671875 124.35546875 C43.41381279 125.68227661 43.41381279 125.68227661 43.46138 127.03588867 C43.61773625 136.61980139 40.86920767 144.48928133 34.22265625 151.48046875 C28.86075338 155.56572808 22.6687135 155.05019603 16.22265625 154.48046875 C7.37564367 153.1839238 2.35918608 148.81460701 -3.02368164 141.87329102 C-5.54555343 139.87032867 -7.3398139 140.17034375 -10.52734375 140.2578125 C-11.68524414 140.27779297 -12.84314453 140.29777344 -14.03613281 140.31835938 C-15.27073242 140.35123047 -16.50533203 140.38410156 -17.77734375 140.41796875 C-29.2804649 140.58961296 -40.38788966 140.05142793 -51.77734375 138.48046875 C-64.55937843 110.45968519 -63.99098259 63.17765922 -55.1015625 33.96484375 C-49.8857917 20.24075066 -43.19069178 5.36449826 -29.640625 -1.62109375 C-20.95115255 -4.34766764 -8.19001413 -4.00111802 0 0 Z " fill="#FDFCFB" transform="translate(377.77734375,164.51953125)"/>
<path d="M0 0 C4.49414199 2.99346189 8.59355117 6.48073166 12.22265625 10.48046875 C12.22265625 11.14046875 12.22265625 11.80046875 12.22265625 12.48046875 C12.88265625 12.48046875 13.54265625 12.48046875 14.22265625 12.48046875 C14.22265625 13.14046875 14.22265625 13.80046875 14.22265625 14.48046875 C14.88265625 14.48046875 15.54265625 14.48046875 16.22265625 14.48046875 C16.22265625 15.14046875 16.22265625 15.80046875 16.22265625 16.48046875 C16.88265625 16.48046875 17.54265625 16.48046875 18.22265625 16.48046875 C35.83649424 46.69108842 42.20019474 74.69987305 42.96557617 109.49462891 C43.03572735 112.50497595 43.13173859 115.5138424 43.22851562 118.5234375 C43.27630888 120.46740997 43.32258775 122.41142039 43.3671875 124.35546875 C43.41381279 125.68227661 43.41381279 125.68227661 43.46138 127.03588867 C43.61773625 136.61980139 40.86920767 144.48928133 34.22265625 151.48046875 C28.86075338 155.56572808 22.6687135 155.05019603 16.22265625 154.48046875 C7.37564367 153.1839238 2.35918608 148.81460701 -3.02368164 141.87329102 C-5.54555343 139.87032867 -7.3398139 140.17034375 -10.52734375 140.2578125 C-11.68524414 140.27779297 -12.84314453 140.29777344 -14.03613281 140.31835938 C-15.27073242 140.35123047 -16.50533203 140.38410156 -17.77734375 140.41796875 C-29.2804649 140.58961296 -40.38788966 140.05142793 -51.77734375 138.48046875 C-64.55937843 110.45968519 -63.99098259 63.17765922 -55.1015625 33.96484375 C-49.8857917 20.24075066 -43.19069178 5.36449826 -29.640625 -1.62109375 C-20.95115255 -4.34766764 -8.19001413 -4.00111802 0 0 Z M-36.77734375 10.48046875 C-37.44830078 11.20556641 -37.44830078 11.20556641 -38.1328125 11.9453125 C-50.92969098 27.07513397 -53.99233574 47.39665328 -54.77734375 66.48046875 C-52.22434181 62.65096583 -50.43656591 58.56355797 -48.5078125 54.390625 C-46.11581344 50.36796293 -43.73617178 48.01043568 -39.1640625 46.7734375 C-35.16016017 46.6169898 -32.06685257 46.67944532 -28.6015625 48.83203125 C-16.2575646 61.25024156 -11.419214 80.05270174 -11.40234375 96.85546875 C-11.37785156 98.13164062 -11.35335937 99.4078125 -11.328125 100.72265625 C-11.30628996 107.76809589 -11.34433346 114.6406474 -15.77734375 120.48046875 C-21.4048724 123.93499129 -28.36167571 123.22484882 -34.609375 121.86328125 C-40.16856002 119.97965934 -43.17334117 117.57077166 -46.23046875 112.578125 C-47.01609225 109.5646977 -46.19644195 108.22460389 -44.77734375 105.48046875 C-43.50753826 103.45309353 -42.19167732 101.45409542 -40.83984375 99.48046875 C-39.47841593 97.48540443 -38.12388283 95.4856121 -36.77734375 93.48046875 C-36.17792969 92.61421875 -35.57851563 91.74796875 -34.9609375 90.85546875 C-33.63104484 88.61083343 -33.63104484 88.61083343 -33.734375 86.390625 C-35.32868943 83.47070082 -37.57994843 82.50412891 -40.46484375 80.91796875 C-41.49996094 80.33917969 -42.53507812 79.76039063 -43.6015625 79.1640625 C-44.64957031 78.60847656 -45.69757813 78.05289063 -46.77734375 77.48046875 C-47.81503906 76.91457031 -48.85273438 76.34867187 -49.921875 75.765625 C-52.86338484 74.20685772 -52.86338484 74.20685772 -56.77734375 74.48046875 C-56.04524529 89.70041035 -54.57477193 104.7275326 -52.27734375 119.79296875 C-52.15891113 120.58751465 -52.04047852 121.38206055 -51.91845703 122.20068359 C-51.28231514 126.21001747 -50.49838084 129.76391883 -48.77734375 133.48046875 C-48.00648438 133.54105469 -47.235625 133.60164062 -46.44140625 133.6640625 C-45.43851562 133.74785156 -44.435625 133.83164062 -43.40234375 133.91796875 C-41.90574219 134.03978516 -41.90574219 134.03978516 -40.37890625 134.1640625 C-37.77734375 134.48046875 -37.77734375 134.48046875 -35.77734375 135.48046875 C-19.20764903 136.8916437 -3.67879813 135.04633282 12.22265625 130.48046875 C13.22570801 130.20082275 13.22570801 130.20082275 14.24902344 129.91552734 C26.56404753 127.20186392 26.56404753 127.20186392 37.22265625 121.48046875 C37.32395187 119.05032939 37.36233556 116.64934381 37.35546875 114.21875 C37.35690384 113.10538521 37.35690384 113.10538521 37.35836792 111.9695282 C37.35905074 110.38650427 37.35718939 108.80347759 37.35302734 107.22045898 C37.34777818 104.84807628 37.35291685 102.4758916 37.359375 100.10351562 C37.38666325 81.22554382 37.38666325 81.22554382 33.97265625 62.73046875 C33.75158203 61.91755371 33.53050781 61.10463867 33.30273438 60.26708984 C31.85348561 55.14853205 30.07128692 50.5137378 27.46484375 45.859375 C25.97206819 43.00056897 24.93411439 40.07866062 23.84765625 37.04296875 C20.15341323 27.35407986 14.98668183 19.91852429 7.78515625 12.54296875 C7.25986328 11.99898437 6.73457031 11.455 6.19335938 10.89453125 C-0.49211237 4.31569893 -7.69175573 1.37813009 -17.02734375 1.16796875 C-25.77871389 1.24645637 -31.04910019 3.84776568 -36.77734375 10.48046875 Z " fill="#9F432E" transform="translate(377.77734375,164.51953125)"/>
<path d="M0 0 C0 0.66 0 1.32 0 2 C0.556875 2.2475 1.11375 2.495 1.6875 2.75 C6.48277451 5.34204027 9.37939297 7.69619518 11 13 C11.66 13 12.32 13 13 13 C27.08648468 42.17319313 29.0074563 75.14046291 26 107 C25.93409668 107.71800781 25.86819336 108.43601562 25.80029297 109.17578125 C24.54467452 122.11069055 24.54467452 122.11069055 21 126 C18.87792969 126.95727539 18.87792969 126.95727539 16.421875 127.59765625 C15.51590576 127.84032227 14.60993652 128.08298828 13.67651367 128.33300781 C12.71076416 128.57374023 11.74501465 128.81447266 10.75 129.0625 C9.75653564 129.31999023 8.76307129 129.57748047 7.73950195 129.84277344 C-11.53893498 134.76652086 -11.53893498 134.76652086 -20.44921875 135.3046875 C-28.31993477 135.50737668 -28.31993477 135.50737668 -35.13671875 138.80859375 C-36.18616351 140.3338573 -37.18694549 141.89356655 -38.140625 143.48046875 C-43.33786132 150.52294234 -53.7189488 155.820776 -62 158 C-68.39574228 158.8290777 -73.27861305 156.57865327 -79 154 C-79 153.34 -79 152.68 -79 152 C-80.98 151.34 -82.96 150.68 -85 150 C-85 149.34 -85 148.68 -85 148 C-85.59683594 147.74347656 -86.19367188 147.48695313 -86.80859375 147.22265625 C-92.42437503 144.08943069 -95.7867317 137.55382473 -97.53515625 131.54296875 C-99.09626786 123.00276993 -98.592815 113.30532719 -96 105 C-95.49831299 104.46415283 -94.99662598 103.92830566 -94.47973633 103.3762207 C-92.3344163 99.93117866 -92.57854913 96.57633303 -92.59375 92.640625 C-92.58291382 91.81858582 -92.57207764 90.99654663 -92.56091309 90.14959717 C-92.52669286 87.51631978 -92.51109947 84.88346999 -92.5 82.25 C-92.4333654 66.82264118 -91.73106615 52.02772971 -86.3125 37.375 C-86.06266357 36.68188721 -85.81282715 35.98877441 -85.55541992 35.2746582 C-82.35372547 26.77595001 -77.9384308 17.9086533 -72 11 C-71.34 11 -70.68 11 -70 11 C-69.65775391 10.14728516 -69.65775391 10.14728516 -69.30859375 9.27734375 C-64.16902133 0.33295353 -53.04168418 -4.67226719 -43.6484375 -7.77734375 C-29.27744952 -11.45420188 -12.26947341 -7.98942455 0 0 Z M-55 3 C-56.19625 3.556875 -57.3925 4.11375 -58.625 4.6875 C-63.93203556 7.74190896 -67.39836454 13.19122298 -71 18 C-71.55945313 18.72316406 -72.11890625 19.44632813 -72.6953125 20.19140625 C-85.75420423 38.20720714 -88.23014045 62.2017475 -88.3125 83.75 C-88.31545074 84.43064514 -88.31840149 85.11129028 -88.32144165 85.81256104 C-88.3365617 101.21199175 -86.10941792 115.4662575 -81 130 C-80.34515625 130.02505615 -79.6903125 130.0501123 -79.015625 130.07592773 C-76.01026764 130.19292655 -73.00514515 130.31517635 -70 130.4375 C-68.97003906 130.47681641 -67.94007813 130.51613281 -66.87890625 130.55664062 C-58.22455207 130.91494191 -58.22455207 130.91494191 -54.00390625 131.51953125 C-40.47749428 133.37640528 -25.59787522 133.09668021 -12.38671875 129.59960938 C-9.25195458 128.81207042 -6.09585501 128.13979551 -2.9375 127.453125 C-0.35368421 126.86670504 2.22964552 126.27813959 4.8125 125.6875 C6.07296143 125.41607178 7.33342285 125.14464355 8.63208008 124.86499023 C9.81181396 124.58341064 10.99154785 124.30183105 12.20703125 124.01171875 C13.2741333 123.76897217 14.34123535 123.52622559 15.44067383 123.27612305 C18.29667224 122.19206448 18.29667224 122.19206448 19.32519531 118.99951172 C19.54788086 118.00967285 19.77056641 117.01983398 20 116 C20.19464844 115.33871094 20.38929688 114.67742187 20.58984375 113.99609375 C22.69592592 103.74649387 22.10325058 92.71992751 22.125 82.3125 C22.12959229 81.08990479 22.13418457 79.86730957 22.13891602 78.60766602 C22.12081668 67.8747609 21.63988977 57.45895485 19.125 47 C18.94501465 46.23163818 18.7650293 45.46327637 18.57958984 44.67163086 C18.22052002 43.14470484 17.85817575 41.61854425 17.4921875 40.09326172 C17.06050888 38.25734284 16.6676659 36.41238223 16.28125 34.56640625 C13.11882757 20.09079404 5.53395995 9.58353593 -6.765625 1.54296875 C-15.04229345 -2.40544192 -23.40204887 -3.58385669 -32.5 -3.5625 C-33.50740234 -3.5615332 -34.51480469 -3.56056641 -35.55273438 -3.55957031 C-43.40052675 -3.37368814 -48.68008632 -1.75782181 -55 3 Z " fill="#844030" transform="translate(258,188)"/>
<path d="M0 0 C8.50245821 3.01967527 13.4986741 10.90114335 17.3203125 18.69140625 C19.15438041 22.99441173 20.20887282 26.27947437 20 31 C18.7625 31.20625 17.525 31.4125 16.25 31.625 C10.00073924 32.98050154 4.59379403 35.99014129 -1 39 C-1.01750055 41.33108884 -1.01750055 41.33108884 0 44 C2.23046818 45.89473017 4.3215962 47.47223962 6.75 49.0625 C7.99565028 49.90628593 9.24045654 50.75131933 10.484375 51.59765625 C11.08056641 51.99871582 11.67675781 52.39977539 12.29101562 52.81298828 C14.61976465 54.43047082 16.81517441 56.19460022 19 58 C18.25405992 64.15400569 15.50405677 68.56133701 11.125 72.75 C6.0121042 76.43128498 1.93308716 78.72016217 -4.4375 78.47265625 C-12.47170739 76.9907369 -19.5346442 72.5990157 -24.5390625 66.203125 C-32.24468271 54.58288489 -34.89283704 43.00645743 -32.27734375 29.1796875 C-29.67538966 18.75080268 -26.20364805 9.02640097 -18.359375 1.40625 C-13.24172335 -1.64400595 -5.77262567 -0.87612269 0 0 Z " fill="#9F422D" transform="translate(252,226)"/>
<path d="M0 0 C2.30642383 1.47770877 3.99379074 3.0871028 6 5 C17.55506161 13.21017535 35.48606265 11.86564512 48.7578125 9.7109375 C52.85096416 8.81340304 56.5891474 7.35931848 60.4765625 5.8203125 C64.137116 4.63034929 67.18425957 4.71201959 71 5 C71 6.65 71 8.3 71 10 C64.63304721 12.76824034 64.63304721 12.76824034 61.6953125 13.84375 C52.80801333 17.13744554 45.31480987 21.9937671 38.0625 28.0625 C28.47628334 35.92380825 18.0131694 40.19476694 5.6484375 40.265625 C2.78746865 39.97868417 0.60656131 39.18565605 -2 38 C-2 37.34 -2 36.68 -2 36 C-3.32 35.34 -4.64 34.68 -6 34 C-6 33.34 -6 32.68 -6 32 C-6.66 32 -7.32 32 -8 32 C-8.98592155 29.94072044 -9.96347494 27.87743312 -10.9375 25.8125 C-11.48277344 24.66394531 -12.02804688 23.51539063 -12.58984375 22.33203125 C-15.35523117 15.79775018 -15.83322477 9.03281384 -15 2 C-11.25386548 -3.74407293 -5.6837816 -2.11999571 0 0 Z " fill="#974430" transform="translate(250,345)"/>
<path d="M0 0 C2.07768286 3.1165243 2.27716229 4.16231281 2.5 7.75 C2.7540604 10.88946061 3.12765739 13.44680086 4 16.5 C5.27757118 20.97149915 5.64647915 25.37631941 6 30 C6.928125 30.2165625 6.928125 30.2165625 7.875 30.4375 C10 31 10 31 12 32 C17.60703213 32.21377721 17.60703213 32.21377721 23 31 C29.93098073 30.6820651 36.63717877 31.58878809 43.5 32.5 C44.60859375 32.64308594 45.7171875 32.78617187 46.859375 32.93359375 C49.57353546 33.28456278 52.28700665 33.64013917 55 34 C55.59472656 36.34228516 55.59472656 36.34228516 56 39 C53.35506714 43.40367688 49.53364292 45.95953311 45.25 48.625 C44.31401978 49.21365845 44.31401978 49.21365845 43.35913086 49.81420898 C36.83882148 53.8348546 30.92101134 56.95598413 23 56 C19.58371174 54.84117094 16.28785743 53.48185123 13 52 C13 51.34 13 50.68 13 50 C11.02 49.34 9.04 48.68 7 48 C7 47.34 7 46.68 7 46 C6.10474609 45.61521484 6.10474609 45.61521484 5.19140625 45.22265625 C-0.42437503 42.08943069 -3.7867317 35.55382473 -5.53515625 29.54296875 C-7.04803023 21.26665817 -6.9415759 10.96445549 -4 3 C-1.921875 1.1953125 -1.921875 1.1953125 0 0 Z " fill="#EB6161" transform="translate(166,290)"/>
<path d="M0 0 C-0.33 0.33 -0.66 0.66 -1 1 C-0.35933594 0.90460938 0.28132813 0.80921875 0.94140625 0.7109375 C6.59859035 -0.01412633 10.64097591 0.0194911 16 2 C16 2.99 16 3.98 16 5 C15.20940186 4.9685791 14.41880371 4.9371582 13.60424805 4.90478516 C9.96563204 4.7788116 6.32747644 4.70163108 2.6875 4.625 C1.44419922 4.57472656 0.20089844 4.52445313 -1.08007812 4.47265625 C-10.88535456 4.31824245 -17.46679636 6.55733771 -25.11450195 12.69775391 C-27 14 -27 14 -30 14 C-30.26296875 14.58523437 -30.5259375 15.17046875 -30.796875 15.7734375 C-32.05390368 18.09975681 -33.43839018 19.70730492 -35.25 21.625 C-51.87821856 40.35761967 -55.21711521 66.65114127 -55.3125 90.75 C-55.31578308 91.43064514 -55.31906616 92.11129028 -55.32244873 92.81256104 C-55.33998479 104.10148187 -54.2231517 114.80363033 -51.54003906 125.78808594 C-50.9490411 128.20871956 -50.40460266 130.63725303 -49.8671875 133.0703125 C-49.7007373 133.82328613 -49.53428711 134.57625977 -49.36279297 135.35205078 C-49.24307129 135.89587402 -49.12334961 136.43969727 -49 137 C-48.42894531 136.98952637 -47.85789063 136.97905273 -47.26953125 136.96826172 C-32.06416323 136.72954469 -17.12937647 137.48887088 -2 139 C-2 139.33 -2 139.66 -2 140 C-4.64 140.33 -7.28 140.66 -10 141 C-7.03 141.33 -4.06 141.66 -1 142 C-1.66 143.65 -2.32 145.3 -3 147 C-3.99 145.02 -3.99 145.02 -5 143 C-5.55945313 143.02320313 -6.11890625 143.04640625 -6.6953125 143.0703125 C-13.18384495 143.21635664 -19.30818478 142.43217731 -25.71484375 141.44921875 C-30.68457185 140.76964832 -35.17924519 140.39308173 -40 142 C-45.61785605 142.368384 -49.20685505 142.34863552 -54 139 C-54.92803061 136.11079142 -55.45673947 133.83014951 -55.8125 130.875 C-56.09459234 126.04435254 -56.09459234 126.04435254 -58 122 C-58.28484531 119.51777659 -58.44806553 117.03531145 -58.62109375 114.54296875 C-58.82091585 112.04604375 -58.82091585 112.04604375 -60.01855469 110.36352539 C-61.47980548 106.84452815 -61.19101526 103.3821606 -61.08203125 99.640625 C-61.06412033 98.81858582 -61.04620941 97.99654663 -61.02775574 97.14959717 C-60.98657326 95.40444964 -60.93999317 93.65942238 -60.88842773 91.91455078 C-60.81395852 89.30118405 -60.76412108 86.68819953 -60.71679688 84.07421875 C-60.40140796 70.50854407 -59.05719498 57.20546681 -54.3125 44.375 C-54.06266357 43.68188721 -53.81282715 42.98877441 -53.55541992 42.2746582 C-50.35372547 33.77595001 -45.9384308 24.9086533 -40 18 C-39.34 18 -38.68 18 -38 18 C-37.65775391 17.14728516 -37.65775391 17.14728516 -37.30859375 16.27734375 C-32.74001909 8.32666009 -22.54387317 2.66396046 -14 0 C-9.12431715 -0.8921997 -4.75007229 -1.58335743 0 0 Z " fill="#8D4535" transform="translate(226,181)"/>
<path d="M0 0 C1.0857364 17.51252607 1.0857364 17.51252607 -4.296875 24.3359375 C-8.77623195 28.71255691 -12.29644151 30.15196519 -18.5625 30.25 C-26.90354176 30.12926116 -33.28479117 29.03382054 -39.5 23.1875 C-42.40535924 20.0185497 -44.14073598 17.29632009 -45 13 C-44.195625 12.85304688 -44.195625 12.85304688 -43.375 12.703125 C-30.44455732 10.23613265 -18.1757546 7.04890247 -6 2 C-1.12244898 0 -1.12244898 0 0 0 Z " fill="#F26363" transform="translate(419,289)"/>
<path d="M0 0 C6.525 1.63125 6.525 1.63125 8.78125 3.3828125 C11.71302507 5.51970489 14.89524227 6.75340791 18.25 8.0625 C19.19552734 8.44631836 19.19552734 8.44631836 20.16015625 8.83789062 C28.61930582 12.18881647 35.93910842 13.28747116 45 13.125 C45.96550781 13.11597656 46.93101562 13.10695313 47.92578125 13.09765625 C50.28412099 13.07430635 52.64192286 13.04156047 55 13 C48.3873162 20.17444092 39.166461 24.944513 30 28 C29.071875 28.556875 28.14375 29.11375 27.1875 29.6875 C22.42877559 31.64697476 18.06440198 31.89804803 13 31 C7.01492429 27.89744237 3.33317238 22.15187969 1.31640625 15.87109375 C-0.03293718 10.52024911 -0.17464212 5.50122683 0 0 Z " fill="#FBACA6" transform="translate(240,349)"/>
<path d="M0 0 C6.72084887 2.37333347 12.12826117 7.19466803 16.87109375 12.421875 C16.87109375 13.081875 16.87109375 13.741875 16.87109375 14.421875 C17.53109375 14.421875 18.19109375 14.421875 18.87109375 14.421875 C18.87109375 15.081875 18.87109375 15.741875 18.87109375 16.421875 C19.53109375 16.421875 20.19109375 16.421875 20.87109375 16.421875 C20.87109375 17.081875 20.87109375 17.741875 20.87109375 18.421875 C21.53109375 18.421875 22.19109375 18.421875 22.87109375 18.421875 C45.89913226 57.91873614 45.89913226 57.91873614 44.87109375 79.421875 C43.38609375 79.916875 43.38609375 79.916875 41.87109375 80.421875 C40.38273792 76.20826488 39.23671815 71.9799969 38.171875 67.64697266 C36.43216989 60.62582202 34.66912353 54.15049961 31.11328125 47.80078125 C29.62050569 44.94197522 28.58255189 42.02006687 27.49609375 38.984375 C22.69997379 26.38164748 13.72497084 13.1075901 1.37109375 6.734375 C-5.9130618 4.00281667 -13.97490757 2.91178622 -21.58203125 5.140625 C-31.74139467 9.94887334 -37.11037595 19.6471682 -41.37890625 29.546875 C-41.72953125 30.33191406 -42.08015625 31.11695313 -42.44140625 31.92578125 C-44.10946828 35.73024581 -45.56212733 39.2710529 -46.12890625 43.421875 C-47.11890625 43.421875 -48.10890625 43.421875 -49.12890625 43.421875 C-49.62390625 45.896875 -49.62390625 45.896875 -50.12890625 48.421875 C-50.78890625 48.091875 -51.44890625 47.761875 -52.12890625 47.421875 C-51.70006617 35.19993276 -46.23103767 24.16072587 -39.12890625 14.421875 C-38.61328125 13.514375 -38.09765625 12.606875 -37.56640625 11.671875 C-29.08808125 -1.59854674 -14.24289828 -2.63164662 0 0 Z " fill="#8B4435" transform="translate(373.12890625,162.578125)"/>
<path d="M0 0 C0.74609375 1.6953125 0.74609375 1.6953125 1 4 C-5.41774345 13.55565732 -15.80792806 20.89491246 -26 26 C-26.99 26 -27.98 26 -29 26 C-29 26.66 -29 27.32 -29 28 C-36.98143544 31.95540163 -45.06356221 33.84062736 -53.796875 31.1328125 C-56 30 -56 30 -56.9375 27.5 C-56.958125 26.675 -56.97875 25.85 -57 25 C-54.31638962 22.31638962 -52.56279639 22.5731237 -48.8125 22.1875 C-36.08869162 20.49446511 -20.95620125 16.60707388 -11.99609375 6.80859375 C-10.97967208 5.439486 -10.00211432 4.03968248 -9.0859375 2.6015625 C-6.78466178 -0.79240529 -3.76159813 -0.08177387 0 0 Z " fill="#8B3B29" transform="translate(281,144)"/>
<path d="M0 0 C-0.33 1.32 -0.66 2.64 -1 4 C-1.99 4 -2.98 4 -4 4 C-4.08507812 5.11181641 -4.08507812 5.11181641 -4.171875 6.24609375 C-5.29399956 9.9776872 -7.05072918 10.91111869 -10.25 13.0625 C-14.46279273 15.93346815 -14.46279273 15.93346815 -18.4921875 19.05078125 C-27.89177252 26.35668923 -39.13836404 30.1896626 -51 29 C-53.8359375 27.984375 -53.8359375 27.984375 -56 27 C-56 26.34 -56 25.68 -56 25 C-56.66 25 -57.32 25 -58 25 C-58 24.34 -58 23.68 -58 23 C-56.0085944 22.61866701 -54.00720923 22.28674418 -52 22 C-51.67 22.33 -51.34 22.66 -51 23 C-43.89186886 23.90302936 -38.67374334 22.94026988 -32.484375 19.38671875 C-30 18 -30 18 -26.63671875 16.59375 C-22.86867228 14.94244714 -19.52481755 13.01073376 -16.0625 10.8125 C-15.17981445 10.26045898 -15.17981445 10.26045898 -14.27929688 9.69726562 C-12.85010587 8.80256882 -11.42464491 7.90191805 -10 7 C-11.97419922 7.05220703 -11.97419922 7.05220703 -13.98828125 7.10546875 C-32.08316867 7.43584326 -32.08316867 7.43584326 -41 4 C-40.401875 3.855625 -39.80375 3.71125 -39.1875 3.5625 C-37.43849596 3.1127561 -35.71322977 2.57107659 -34 2 C-32.29657403 1.9408839 -30.59083787 1.93899948 -28.88671875 1.97265625 C-27.3852832 1.99102539 -27.3852832 1.99102539 -25.85351562 2.00976562 C-23.75448499 2.04472789 -21.65551771 2.0837448 -19.55664062 2.12695312 C-12.74702566 2.20120807 -6.58688345 -0.38746373 0 0 Z " fill="#8D3F2F" transform="translate(304,356)"/>
<path d="M0 0 C0.33 0 0.66 0 1 0 C1.02703562 2.58340384 1.04685611 5.16652308 1.0625 7.75 C1.07087891 8.47960937 1.07925781 9.20921875 1.08789062 9.9609375 C1.10391684 13.48670558 0.95292713 16.61034916 0 20 C0.66 20 1.32 20 2 20 C1.96519531 21.22396484 1.96519531 21.22396484 1.9296875 22.47265625 C1.68623466 38.45359611 3.04878479 54.44913872 6.03442383 70.15356445 C6.96954351 75.16352078 7.72394801 80.18464663 6.4375 85.1875 C5.76338858 87.36651905 5.76338858 87.36651905 7 91 C13.6 91 20.2 91 27 91 C27 91.66 27 92.32 27 93 C33.6 93 40.2 93 47 93 C46.67 93.66 46.34 94.32 46 95 C32.49959855 95.24179823 19.39609967 94.71470076 6 93 C-6.55179564 65.4839466 -2.69658911 29.27878996 0 0 Z " fill="#7E3C2D" transform="translate(320,210)"/>
<path d="M0 0 C2.07768286 3.1165243 2.27716229 4.16231281 2.5 7.75 C2.7540604 10.88946061 3.12765739 13.44680086 4 16.5 C5.27757118 20.97149915 5.64647915 25.37631941 6 30 C7.32 30.33 8.64 30.66 10 31 C7.6921509 32.15392455 5.52769669 32.53437166 3 33 C2.67 33.99 2.34 34.98 2 36 C1.34 35.67 0.68 35.34 0 35 C0 34.34 0 33.68 0 33 C-1.32 33 -2.64 33 -4 33 C-7.38336267 24.01797767 -7.3565054 12.08789668 -4 3 C-1.921875 1.1953125 -1.921875 1.1953125 0 0 Z " fill="#EE6462" transform="translate(166,290)"/>
<path d="M0 0 C1.92859455 2.89289183 2.43725716 4.35497915 3.0703125 7.66796875 C3.33134766 9.00698242 3.33134766 9.00698242 3.59765625 10.37304688 C3.77167969 11.30181641 3.94570312 12.23058594 4.125 13.1875 C4.30675781 14.12787109 4.48851562 15.06824219 4.67578125 16.03710938 C5.12326865 18.35697829 5.56442242 20.67787059 6 23 C6.57105469 22.98952637 7.14210937 22.97905273 7.73046875 22.96826172 C22.93583677 22.72954469 37.87062353 23.48887088 53 25 C53 25.33 53 25.66 53 26 C49.04 26.495 49.04 26.495 45 27 C47.97 27.33 50.94 27.66 54 28 C53.34 29.65 52.68 31.3 52 33 C51.34 31.68 50.68 30.36 50 29 C49.16082031 29.03480469 49.16082031 29.03480469 48.3046875 29.0703125 C41.81615505 29.21635664 35.69181522 28.43217731 29.28515625 27.44921875 C24.31542815 26.76964832 19.82075481 26.39308173 15 28 C9.37579921 28.36880005 5.80858998 28.33307744 1 25 C0.06216598 22.189533 -0.45681299 20.00684366 -0.8125 17.125 C-0.92013672 16.41730469 -1.02777344 15.70960938 -1.13867188 14.98046875 C-1.440883 12.98921263 -1.72107 10.99465049 -2 9 C-2.21914062 8.05511719 -2.43828125 7.11023438 -2.6640625 6.13671875 C-3 4 -3 4 -1.5625 1.6875 C-1.046875 1.130625 -0.53125 0.57375 0 0 Z " fill="#A04A39" transform="translate(171,295)"/>
<path d="M0 0 C0.33 0 0.66 0 1 0 C1 2.64 1 5.28 1 8 C0.34 8 -0.32 8 -1 8 C-0.83799606 8.7066832 -0.67599213 9.41336639 -0.50907898 10.14146423 C0.01245603 13.06994202 0.13381087 15.76376009 0.14526367 18.73657227 C0.15483345 20.42841393 0.15483345 20.42841393 0.16459656 22.1544342 C0.16570938 23.36288498 0.1668222 24.57133575 0.16796875 25.81640625 C0.17129715 27.06501938 0.17462555 28.31363251 0.17805481 29.6000824 C0.1831128 32.23692397 0.18589657 34.8736624 0.18530273 37.51049805 C0.1852009 40.88538635 0.1988838 44.2600653 0.21607494 47.63490391 C0.22987383 50.86206353 0.22928352 54.08922112 0.23046875 57.31640625 C0.23765427 58.52688126 0.24483978 59.73735626 0.25224304 60.98451233 C0.24916641 62.10925461 0.24608978 63.23399689 0.24291992 64.39282227 C0.24434494 65.38145767 0.24576996 66.37009308 0.24723816 67.38868713 C-0.00640843 70.06768544 -0.63127661 71.70741324 -2 74 C-2.30744141 72.95199219 -2.30744141 72.95199219 -2.62109375 71.8828125 C-2.89050781 70.97273438 -3.15992188 70.06265625 -3.4375 69.125 C-3.70433594 68.22007812 -3.97117188 67.31515625 -4.24609375 66.3828125 C-4.92613826 64.01724619 -4.92613826 64.01724619 -6 62 C-6.05331707 59.26768812 -6.04508866 56.5662828 -5.984375 53.8359375 C-5.96787903 53.01106842 -5.95138306 52.18619934 -5.93438721 51.33633423 C-5.8968096 49.57930189 -5.85625382 47.82233117 -5.81298828 46.06542969 C-5.75138867 43.43431436 -5.70917906 40.80337696 -5.66796875 38.171875 C-5.39501068 24.96901193 -3.75023405 12.6991945 0 0 Z " fill="#9A4431" transform="translate(171,227)"/>
<path d="M0 0 C0.99 0.33 1.98 0.66 3 1 C3.33 2.65 3.66 4.3 4 6 C5.15628906 5.98259766 5.15628906 5.98259766 6.3359375 5.96484375 C7.33882813 5.95582031 8.34171875 5.94679688 9.375 5.9375 C10.37273437 5.92589844 11.37046875 5.91429687 12.3984375 5.90234375 C15 6 15 6 17 7 C23.20947216 8.06376748 29.46716443 8.15506141 35.75 8.125 C36.98556641 8.13080078 36.98556641 8.13080078 38.24609375 8.13671875 C42.3256182 8.13014947 46.00364137 7.87961446 50 7 C51.76977761 6.93540958 53.54170152 6.91388935 55.3125 6.9375 C56.63701172 6.95103516 56.63701172 6.95103516 57.98828125 6.96484375 C58.98408203 6.98224609 58.98408203 6.98224609 60 7 C60 6.34 60 5.68 60 5 C62.39469729 4.49395076 64.79051717 3.99500483 67.1875 3.5 C67.86103516 3.35691406 68.53457031 3.21382813 69.22851562 3.06640625 C72.87509793 2.31930158 76.27648957 1.82647718 80 2 C77.09497037 4.90502963 73.58280221 5.16691949 69.6875 6 C64.92211929 7.03472219 60.53285617 8.17717883 56 10 C53.6679198 10.07646165 51.33154122 10.09143299 49 10 C49.495 11.485 49.495 11.485 50 13 C48.8965625 12.84660156 47.793125 12.69320313 46.65625 12.53515625 C41.6148659 11.90498324 36.57313521 11.66239916 31.5 11.4375 C30.5821875 11.39431641 29.664375 11.35113281 28.71875 11.30664062 C26.47927939 11.20166544 24.23971908 11.09950752 22 11 C22 10.34 22 9.68 22 9 C21.42024414 9.16298584 20.84048828 9.32597168 20.24316406 9.49389648 C16.77326877 10.27677556 13.287377 10.10312359 9.75 10.0625 C9.00492187 10.05798828 8.25984375 10.05347656 7.4921875 10.04882812 C5.6614236 10.03709246 3.83070127 10.0191585 2 10 C0.48179307 6.44357039 -0.2220879 3.88653827 0 0 Z " fill="#9E402B" transform="translate(325,292)"/>
<path d="M0 0 C0.99 0 1.98 0 3 0 C4.98362069 2.91708924 4.9876191 4.12380904 4.625 7.75 C4.41875 8.8225 4.2125 9.895 4 11 C4.66 10.67 5.32 10.34 6 10 C6 13.63 6 17.26 6 21 C6.66 21 7.32 21 8 21 C8.04950439 26.88988016 8.0857692 32.7796387 8.10986328 38.66967773 C8.11990963 40.67262889 8.13354909 42.67556542 8.15087891 44.6784668 C8.17518713 47.56042088 8.18649687 50.44218072 8.1953125 53.32421875 C8.20563507 54.21711105 8.21595764 55.11000336 8.22659302 56.029953 C8.22738083 60.41326139 8.2273981 64.08128448 6 68 C5.01 68.495 5.01 68.495 4 69 C4.00523682 67.88141602 4.01047363 66.76283203 4.01586914 65.61035156 C4.03415712 61.40577006 4.04551777 57.20119198 4.05493164 52.99658203 C4.05991803 51.18700568 4.06670954 49.37743326 4.07543945 47.56787109 C4.13510842 34.86891167 4.15133378 22.40540301 1.4375 9.9375 C0 3.27272727 0 3.27272727 0 0 Z " fill="#984834" transform="translate(275,226)"/>
<path d="M0 0 C0.66 0.33 1.32 0.66 2 1 C2.3125 3.1875 2.3125 3.1875 2 6 C-0.25 8.4375 -0.25 8.4375 -3 11 C-6.48342838 15.73005408 -8.84800076 20.71193795 -11.1875 26.0625 C-11.54263672 26.85205078 -11.89777344 27.64160156 -12.26367188 28.45507812 C-13.95191028 32.27683983 -15.43683666 35.82250479 -16 40 C-16.99 40 -17.98 40 -19 40 C-19.495 42.475 -19.495 42.475 -20 45 C-20.66 44.67 -21.32 44.34 -22 44 C-21.57115992 31.77805776 -16.10213142 20.73885087 -9 11 C-8.484375 10.0925 -7.96875 9.185 -7.4375 8.25 C-5.63492474 5.42857785 -3.42372735 3.29616275 -1 1 C-0.67 0.67 -0.34 0.34 0 0 Z " fill="#8B4636" transform="translate(343,166)"/>
<path d="M0 0 C0 1.65 0 3.3 0 5 C-5.62376244 7.44511411 -11.30088827 9.73684791 -17 12 C-18.66682672 12.66626639 -20.33353791 13.33282212 -22 14 C-21.67 12.68 -21.34 11.36 -21 10 C-20.01 10 -19.02 10 -18 10 C-18 9.01 -18 8.02 -18 7 C-22.62 7 -27.24 7 -32 7 C-32 6.67 -32 6.34 -32 6 C-30.78376953 5.85304688 -30.78376953 5.85304688 -29.54296875 5.703125 C-23.8167234 4.92984856 -18.57426419 4.00852177 -13.1875 1.875 C-8.50871602 0.02269549 -5.00192794 -0.377504 0 0 Z " fill="#6A2F24" transform="translate(321,350)"/>
<path d="M0 0 C4.83258751 8.79710614 4.42039639 19.73172821 4.6875 29.5 C4.70712799 30.15719025 4.72675598 30.81438049 4.74697876 31.4914856 C5.20703525 47.20416592 5.29089346 63.53495167 2 79 C1.01 79.99 1.01 79.99 0 81 C0.01160156 80.10796875 0.02320313 79.2159375 0.03515625 78.296875 C0.04417969 77.12640625 0.05320312 75.9559375 0.0625 74.75 C0.07410156 73.58984375 0.08570313 72.4296875 0.09765625 71.234375 C0.13044693 68.12343941 0.13044693 68.12343941 -0.62890625 65.703125 C-0.75136719 65.14109375 -0.87382812 64.5790625 -1 64 C-0.34 63.34 0.32 62.68 1 62 C1.91901314 59.21421208 2.14374159 56.61111319 2.20532227 53.69042969 C2.22526749 52.84986023 2.24521271 52.00929077 2.26576233 51.14324951 C2.28247482 50.24519592 2.29918732 49.34714233 2.31640625 48.421875 C2.33718735 47.4953009 2.35796844 46.56872681 2.37937927 45.61407471 C2.44466961 42.65945728 2.50366431 39.70475232 2.5625 36.75 C2.60570473 34.74478268 2.64931965 32.73957415 2.69335938 30.734375 C2.80032999 25.82300596 2.90165518 20.91154903 3 16 C2.34 16 1.68 16 1 16 C0.814375 14.14375 0.814375 14.14375 0.625 12.25 C0.31938369 9.65910352 0.04250554 8.08053681 -1.1875 5.75 C-1.455625 5.1725 -1.72375 4.595 -2 4 C-1.125 1.75 -1.125 1.75 0 0 Z " fill="#723526" transform="translate(280,231)"/>
<path d="M0 0 C0.99 0.33 1.98 0.66 3 1 C2.93941406 1.58265625 2.87882812 2.1653125 2.81640625 2.765625 C2.12772567 9.50409957 1.54522381 16.24850516 1 23 C1.66 22.34 2.32 21.68 3 21 C2.14285714 29.57142857 2.14285714 29.57142857 0 33 C2.31 33.33 4.62 33.66 7 34 C7 34.66 7 35.32 7 36 C8.65 36.33 10.3 36.66 12 37 C12 37.66 12 38.32 12 39 C7.1008651 37.70022952 2.62440425 36.07626313 -2 34 C-1.505 29.545 -1.505 29.545 -1 25 C-1.66 25 -2.32 25 -3 25 C-2.67 18.4 -2.34 11.8 -2 5 C-1.67 5 -1.34 5 -1 5 C-0.67 3.35 -0.34 1.7 0 0 Z " fill="#9D4231" transform="translate(323,205)"/>
<path d="M0 0 C0.66 0 1.32 0 2 0 C2 2.97 2 5.94 2 9 C2.66 9 3.32 9 4 9 C4.33 8.34 4.66 7.68 5 7 C5.86810513 10.4724205 5.88224157 12.58131391 5 16 C5.33 17.32 5.66 18.64 6 20 C12.6 20 19.2 20 26 20 C26 20.66 26 21.32 26 22 C32.6 22 39.2 22 46 22 C45.67 22.66 45.34 23.32 45 24 C31.49959855 24.24179823 18.39609967 23.71470076 5 22 C3.18860536 17.96034182 1.63453627 14.24514154 0.8125 9.875 C0.65394531 9.06804687 0.49539063 8.26109375 0.33203125 7.4296875 C-0.01058446 4.92254669 -0.05845862 2.52721096 0 0 Z " fill="#642D22" transform="translate(321,281)"/>
<path d="M0 0 C-0.33 0.33 -0.66 0.66 -1 1 C-0.35933594 0.90460938 0.28132813 0.80921875 0.94140625 0.7109375 C6.59859035 -0.01412633 10.64097591 0.0194911 16 2 C16 2.99 16 3.98 16 5 C15.18321777 4.98952637 14.36643555 4.97905273 13.52490234 4.96826172 C9.80829978 4.92657329 6.09174654 4.90063273 2.375 4.875 C1.08980469 4.85824219 -0.19539063 4.84148437 -1.51953125 4.82421875 C-2.76347656 4.81777344 -4.00742188 4.81132812 -5.2890625 4.8046875 C-6.43068848 4.79421387 -7.57231445 4.78374023 -8.74853516 4.77294922 C-12.13566817 5.00947375 -14.84005042 5.7904299 -18 7 C-18.33 6.01 -18.66 5.02 -19 4 C-18.01 4 -17.02 4 -16 4 C-15.78214844 3.35675781 -15.56429687 2.71351563 -15.33984375 2.05078125 C-14 0 -14 0 -11.50390625 -0.64453125 C-10.53324219 -0.69996094 -9.56257812 -0.75539062 -8.5625 -0.8125 C-7.59441406 -0.88082031 -6.62632812 -0.94914063 -5.62890625 -1.01953125 C-3 -1 -3 -1 0 0 Z " fill="#924330" transform="translate(226,181)"/>
<path d="M0 0 C0 0.33 0 0.66 0 1 C3.63 1 7.26 1 11 1 C11 1.33 11 1.66 11 2 C-4.19422731 5.51656789 -18.5727342 7.24643333 -34 4 C-34 3.67 -34 3.34 -34 3 C-29.45890277 2.49473686 -24.91703948 1.99671565 -20.375 1.5 C-18.44720703 1.28537109 -18.44720703 1.28537109 -16.48046875 1.06640625 C-15.23652344 0.93105469 -13.99257812 0.79570312 -12.7109375 0.65625 C-10.99849854 0.46772461 -10.99849854 0.46772461 -9.25146484 0.27539062 C-6.14862366 0.01258804 -3.11205949 -0.0494632 0 0 Z " fill="#904A3B" transform="translate(246,318)"/>
<path d="M0 0 C-0.86625 0.37125 -0.86625 0.37125 -1.75 0.75 C-4.11653922 1.8918301 -4.11653922 1.8918301 -5.75 4.0625 C-8.95257325 6.82027141 -11.941121 6.8494388 -16 7 C-17.07121094 7.0515625 -18.14242188 7.103125 -19.24609375 7.15625 C-27.01104954 7.36036713 -33.65051284 6.51982417 -41 4 C-40.401875 3.855625 -39.80375 3.71125 -39.1875 3.5625 C-37.43849596 3.1127561 -35.71322977 2.57107659 -34 2 C-32.29657403 1.9408839 -30.59083787 1.93899948 -28.88671875 1.97265625 C-27.3852832 1.99102539 -27.3852832 1.99102539 -25.85351562 2.00976562 C-23.75448499 2.04472789 -21.65551771 2.0837448 -19.55664062 2.12695312 C-12.74702566 2.20120807 -6.58688345 -0.38746373 0 0 Z " fill="#A44936" transform="translate(304,356)"/>
<path d="M0 0 C0.33 0 0.66 0 1 0 C1 2.64 1 5.28 1 8 C0.34 8 -0.32 8 -1 8 C-0.835 8.61875 -0.67 9.2375 -0.5 9.875 C0.5519071 16.4494194 0.70059717 22.80451237 -2 29 C-2.33 29.33 -2.66 29.66 -3 30 C-3.15888092 32.28988781 -3.25138073 34.58443441 -3.31640625 36.87890625 C-3.3475779 37.90889992 -3.3475779 37.90889992 -3.37937927 38.95970154 C-3.44494143 41.16052935 -3.50379015 43.36147975 -3.5625 45.5625 C-3.60567892 47.05144514 -3.649293 48.54037773 -3.69335938 50.02929688 C-3.8006293 53.68606553 -3.90187772 57.34297318 -4 61 C-4.33 61 -4.66 61 -5 61 C-5.07534442 55.88121597 -5.12915241 50.7627694 -5.16479492 45.64355469 C-5.1796861 43.90977339 -5.20000587 42.17602839 -5.22631836 40.44238281 C-5.43502085 26.31608849 -4.00865006 13.6008936 0 0 Z " fill="#793426" transform="translate(171,227)"/>
<path d="M0 0 C0.33 0 0.66 0 1 0 C2.12014799 8.03507735 2.11441805 15.95929077 2.0625 24.0625 C2.05747314 25.41861813 2.05291234 26.77473808 2.04882812 28.13085938 C2.03712079 31.42061994 2.02072211 34.71028594 2 38 C1.67 38 1.34 38 1 38 C0.67 34.04 0.34 30.08 0 26 C-0.33 27.98 -0.66 29.96 -1 32 C-1.33 32 -1.66 32 -2 32 C-2 22.76 -2 13.52 -2 4 C-1.34 4 -0.68 4 0 4 C0 2.68 0 1.36 0 0 Z " fill="#7D3626" transform="translate(418,245)"/>
<path d="M0 0 C0 0.66 0 1.32 0 2 C-6.29814139 5.3687733 -10.88128636 6.13958262 -18 6 C-18 6.66 -18 7.32 -18 8 C-29.4103669 9.91025574 -40.44969732 10.22379488 -52 10 C-52 9.67 -52 9.34 -52 9 C-50.54207031 8.97873047 -50.54207031 8.97873047 -49.0546875 8.95703125 C-33.54292538 8.50226414 -18.68126497 4.81662735 -3.828125 0.48046875 C-2 0 -2 0 0 0 Z " fill="#9B5545" transform="translate(403,291)"/>
<path d="M0 0 C1.8461867 2.76928005 2.41196197 4.13698806 3.0703125 7.2734375 C3.24433594 8.0984375 3.41835938 8.9234375 3.59765625 9.7734375 C3.77167969 10.63195312 3.94570313 11.49046875 4.125 12.375 C4.30675781 13.22578125 4.48851562 14.0765625 4.67578125 14.953125 C5.51789399 19.01806019 6.25778745 22.8238433 6 27 C5.01 27.33 4.02 27.66 3 28 C-0.53621961 19.04157698 -0.14667185 9.48477932 0 0 Z " fill="#682E22" transform="translate(412,215)"/>
<path d="M0 0 C0.77734375 1.671875 0.77734375 1.671875 1 4 C-0.87109375 6.578125 -0.87109375 6.578125 -3.4375 9.25 C-4.28183594 10.14203125 -5.12617188 11.0340625 -5.99609375 11.953125 C-6.65738281 12.62859375 -7.31867188 13.3040625 -8 14 C-8.33 12.68 -8.66 11.36 -9 10 C-7.68 9.67 -6.36 9.34 -5 9 C-5.33 8.01 -5.66 7.02 -6 6 C-5.01 6 -4.02 6 -3 6 C-3 5.01 -3 4.02 -3 3 C-6.53372712 4.96318174 -9.24479785 7.04070881 -12 10 C-12.66 9.67 -13.32 9.34 -14 9 C-13.04663979 7.68388323 -12.08714226 6.37221039 -11.125 5.0625 C-10.59132813 4.33160156 -10.05765625 3.60070312 -9.5078125 2.84765625 C-6.72126583 -0.56694627 -4.19518559 -0.09119969 0 0 Z " fill="#6E2C26" transform="translate(281,144)"/>
<path d="M0 0 C-0.66 0.33 -1.32 0.66 -2 1 C-2 1.66 -2 2.32 -2 3 C-8.64217805 2.37337943 -8.64217805 2.37337943 -10.4375 0.5 C-13.09002765 -2.04642654 -16.42660334 -1.70709863 -20 -2 C-20 -1.67 -20 -1.34 -20 -1 C-22.31 -1 -24.62 -1 -27 -1 C-26.67 -1.66 -26.34 -2.32 -26 -3 C-29.3 -3 -32.6 -3 -36 -3 C-36 -3.33 -36 -3.66 -36 -4 C-23.43969364 -6.12583997 -11.84777979 -4.36176825 0 0 Z " fill="#622B1F" transform="translate(251,184)"/>
<path d="M0 0 C-0.639375 0.28875 -1.27875 0.5775 -1.9375 0.875 C-4.15206079 1.82823451 -4.15206079 1.82823451 -5 4 C-5.66 4 -6.32 4 -7 4 C-7 4.99 -7 5.98 -7 7 C-3.37 7 0.26 7 4 7 C4.33 7.66 4.66 8.32 5 9 C3.10448978 9.05441656 1.2085208 9.09298035 -0.6875 9.125 C-1.74324219 9.14820313 -2.79898438 9.17140625 -3.88671875 9.1953125 C-7.06360542 8.9960097 -9.19609273 8.48799411 -12 7 C-12.9375 4.5 -12.9375 4.5 -13 2 C-9.55192297 -1.44807703 -4.50554126 -1.62199485 0 0 Z " fill="#672D21" transform="translate(237,167)"/>
<path d="M0 0 C12.2190681 -0.56299461 23.95195821 1.15400827 36 3 C35.34 4.65 34.68 6.3 34 8 C33.34 6.68 32.68 5.36 32 4 C31.41299316 4.01740234 30.82598633 4.03480469 30.22119141 4.05273438 C23.47943314 4.16357949 17.03657082 3.48722879 10.375 2.5 C9.37082031 2.35691406 8.36664063 2.21382813 7.33203125 2.06640625 C4.88705792 1.71712435 2.44318049 1.36157276 0 1 C0 0.67 0 0.34 0 0 Z " fill="#AB4032" transform="translate(189,320)"/>
<path d="M0 0 C0.33 0 0.66 0 1 0 C1.02703562 2.58340384 1.04685611 5.16652308 1.0625 7.75 C1.07087891 8.47960937 1.07925781 9.20921875 1.08789062 9.9609375 C1.10391684 13.48670558 0.95292713 16.61034916 0 20 C0.66 20 1.32 20 2 20 C1.67 25.94 1.34 31.88 1 38 C-0.96501684 34.06996631 -1.24829066 32.66055646 -1.23046875 28.45703125 C-1.22853516 27.38259766 -1.22660156 26.30816406 -1.22460938 25.20117188 C-1.21236328 24.08291016 -1.20011719 22.96464844 -1.1875 21.8125 C-1.1865332 20.16411133 -1.1865332 20.16411133 -1.18554688 18.48242188 C-1.15206745 12.24408909 -0.81636774 6.18480204 0 0 Z " fill="#753C2E" transform="translate(320,210)"/>
<path d="M0 0 C-0.495 0.433125 -0.99 0.86625 -1.5 1.3125 C-3.33218192 2.99740483 -3.33218192 2.99740483 -3 6 C-4.8984375 7.60546875 -4.8984375 7.60546875 -7.375 9.1875 C-8.18710938 9.71730469 -8.99921875 10.24710938 -9.8359375 10.79296875 C-12 12 -12 12 -14 12 C-14.33 11.01 -14.66 10.02 -15 9 C-12.1870792 4.73524911 -5.61930387 -2.80965194 0 0 Z " fill="#9A503F" transform="translate(211,183)"/>
<path d="M0 0 C1.32 0 2.64 0 4 0 C4 2.31 4 4.62 4 7 C3.34 7 2.68 7 2 7 C2 18.55 2 30.1 2 42 C1.67 42 1.34 42 1 42 C0.505 21.21 0.505 21.21 0 0 Z " fill="#9C5B4A" transform="translate(414,242)"/>
<path d="M0 0 C-2.90502963 2.90502963 -6.41719779 3.16691949 -10.3125 4 C-16.13893559 5.23317341 -16.13893559 5.23317341 -21.7734375 7.1171875 C-24.13759015 8.05455329 -25.78821725 8.21056891 -28.3125 8.125 C-29.529375 8.08375 -30.74625 8.0425 -32 8 C-31.34 7.67 -30.68 7.34 -30 7 C-30 6.34 -30 5.68 -30 5 C-26.7 5 -23.4 5 -20 5 C-20 4.34 -20 3.68 -20 3 C-17.60530271 2.49395076 -15.20948283 1.99500483 -12.8125 1.5 C-12.13896484 1.35691406 -11.46542969 1.21382813 -10.77148438 1.06640625 C-7.12490207 0.31930158 -3.72351043 -0.17352282 0 0 Z " fill="#A84130" transform="translate(405,294)"/>
<path d="M0 0 C0.85271484 0.10828125 0.85271484 0.10828125 1.72265625 0.21875 C5.43342803 0.66478601 9.00575572 1 12.75 1 C15.67932833 1 18.16436919 1.31257435 21 2 C21 2.66 21 3.32 21 4 C17.96478606 5.01173798 15.80266921 5.16573514 12.625 5.1875 C11.22121094 5.20876953 11.22121094 5.20876953 9.7890625 5.23046875 C6.83881846 4.98668108 4.67635888 4.23112508 2 3 C2 2.34 2 1.68 2 1 C1.34 0.67 0.68 0.34 0 0 Z " fill="#7A3729" transform="translate(246,380)"/>
<path d="M0 0 C0.86963379 0.15847412 1.73926758 0.31694824 2.63525391 0.48022461 C5.73444262 0.95897753 8.70523819 1.19858423 11.8359375 1.31640625 C12.89941406 1.35830078 13.96289062 1.40019531 15.05859375 1.44335938 C16.15300781 1.48267578 17.24742187 1.52199219 18.375 1.5625 C20.05142578 1.62727539 20.05142578 1.62727539 21.76171875 1.69335938 C24.50770199 1.79897411 27.25376881 1.9010797 30 2 C30.495 2.99 30.495 2.99 31 4 C30.18321777 3.98952637 29.36643555 3.97905273 28.52490234 3.96826172 C24.80829978 3.92657329 21.09174654 3.90063273 17.375 3.875 C16.08980469 3.85824219 14.80460937 3.84148437 13.48046875 3.82421875 C12.23652344 3.81777344 10.99257812 3.81132812 9.7109375 3.8046875 C8.56931152 3.79421387 7.42768555 3.78374023 6.25146484 3.77294922 C2.86433183 4.00947375 0.15994958 4.7904299 -3 6 C-3.33 5.01 -3.66 4.02 -4 3 C-3.01 3 -2.02 3 -1 3 C-0.67 2.01 -0.34 1.02 0 0 Z " fill="#A76457" transform="translate(211,182)"/>
<path d="M0 0 C0.99 0.33 1.98 0.66 3 1 C1.98208077 8.10377673 0.90094901 15.07511433 -1 22 C-1.33 22 -1.66 22 -2 22 C-2.33 17.71 -2.66 13.42 -3 9 C-2.34 9 -1.68 9 -1 9 C-1.020625 7.700625 -1.04125 6.40125 -1.0625 5.0625 C-1.08399454 3.70834367 -1.07148199 2.35243917 -1 1 C-0.67 0.67 -0.34 0.34 0 0 Z " fill="#984636" transform="translate(173,226)"/>
<path d="M0 0 C1.50433594 0.01353516 1.50433594 0.01353516 3.0390625 0.02734375 C3.80992187 0.03894531 4.58078125 0.05054688 5.375 0.0625 C5.705 0.7225 6.035 1.3825 6.375 2.0625 C5.27091797 2.08376953 5.27091797 2.08376953 4.14453125 2.10546875 C-2.26545658 2.32704962 -2.26545658 2.32704962 -7.625 5.5625 C-8.285 6.3875 -8.945 7.2125 -9.625 8.0625 C-10.615 8.3925 -11.605 8.7225 -12.625 9.0625 C-12.625 10.0525 -12.625 11.0425 -12.625 12.0625 C-13.285 12.0625 -13.945 12.0625 -14.625 12.0625 C-13.13448318 7.45544801 -10.83957741 4.59853516 -7.625 1.0625 C-4.98041621 -0.25979189 -2.94738699 -0.03427194 0 0 Z " fill="#9C5647" transform="translate(341.625,210.9375)"/>
<path d="M0 0 C2.27474277 3.41211416 2.56629644 5.6568529 3.125 9.6875 C3.29257813 10.86699219 3.46015625 12.04648437 3.6328125 13.26171875 C3.75398437 14.16535156 3.87515625 15.06898438 4 16 C3.34 16.33 2.68 16.66 2 17 C1.34 16.34 0.68 15.68 0 15 C-0.33 15 -0.66 15 -1 15 C-2.78727273 9.53304812 -3.35594791 6.8714191 -0.9375 1.75 C-0.4734375 0.88375 -0.4734375 0.88375 0 0 Z " fill="#A45040" transform="translate(171,295)"/>
<path d="M0 0 C3.84497936 1.62672204 6.16724067 3.5858368 9.25 6.375 C6.68398445 7.65800777 5.58520676 7.22598078 2.8125 6.625 C2.03003906 6.46515625 1.24757813 6.3053125 0.44140625 6.140625 C-2.00915204 5.28445847 -3.15543894 4.40537356 -4.75 2.375 C-4.75 1.715 -4.75 1.055 -4.75 0.375 C-2.75 -0.625 -2.75 -0.625 0 0 Z " fill="#8D4735" transform="translate(376.75,164.625)"/>
<path d="M0 0 C0.99 0.33 1.98 0.66 3 1 C3.33 2.65 3.66 4.3 4 6 C5.15628906 5.96519531 5.15628906 5.96519531 6.3359375 5.9296875 C7.33882813 5.91164063 8.34171875 5.89359375 9.375 5.875 C10.37273437 5.85179687 11.37046875 5.82859375 12.3984375 5.8046875 C15 6 15 6 17 8 C14.03 8 11.06 8 8 8 C8.33 8.66 8.66 9.32 9 10 C6.69 10 4.38 10 2 10 C0.39644899 6.49223216 -0.22036864 3.85645121 0 0 Z " fill="#9B4F3B" transform="translate(325,292)"/>
<path d="M0 0 C0.33 0 0.66 0 1 0 C1.53084792 2.91516484 2.04999055 5.83160557 2.5625 8.75 C2.71396484 9.575 2.86542969 10.4 3.02148438 11.25 C3.16005859 12.04921875 3.29863281 12.8484375 3.44140625 13.671875 C3.57232666 14.4050293 3.70324707 15.13818359 3.83813477 15.89355469 C4.01247412 18.16233287 3.66874807 19.83778579 3 22 C2.01 22 1.02 22 0 22 C-0.94450945 14.48751716 -0.94450945 7.51248284 0 0 Z " fill="#9C523F" transform="translate(323,268)"/>
<path d="M0 0 C-0.33 0.99 -0.66 1.98 -1 3 C0.98 3 2.96 3 5 3 C1.71739341 5.18840439 -1.50818073 7.15885893 -5 9 C-5.66 8.67 -6.32 8.34 -7 8 C-6.67 7.01 -6.34 6.02 -6 5 C-5.01 5 -4.02 5 -3 5 C-3 4.01 -3 3.02 -3 2 C-7.62 2 -12.24 2 -17 2 C-17 1.67 -17 1.34 -17 1 C-14.91835982 0.63601378 -12.83459438 0.28416713 -10.75 -0.0625 C-9.00976562 -0.35833984 -9.00976562 -0.35833984 -7.234375 -0.66015625 C-4.37477376 -0.9606216 -2.66674071 -0.9439206 0 0 Z " fill="#5F281D" transform="translate(306,355)"/>
<path d="M0 0 C0.66 0 1.32 0 2 0 C2 0.66 2 1.32 2 2 C2.763125 1.938125 3.52625 1.87625 4.3125 1.8125 C7 2 7 2 8.8125 3.1875 C10.36678206 5.55982525 10.22537188 7.22041345 10 10 C11.65 10 13.3 10 15 10 C15 10.66 15 11.32 15 12 C15.99 12.33 16.98 12.66 18 13 C10.02334816 12.07248234 6.42182401 8.64033243 1.35546875 2.7421875 C0 1 0 1 0 0 Z " fill="#AE4949" transform="translate(375,305)"/>
<path d="M0 0 C0.85851562 -0.00773438 1.71703125 -0.01546875 2.6015625 -0.0234375 C3.4265625 -0.02085937 4.2515625 -0.01828125 5.1015625 -0.015625 C5.85002441 -0.01336914 6.59848633 -0.01111328 7.36962891 -0.00878906 C9.375 0.25 9.375 0.25 12.375 2.25 C7.755 2.58 3.135 2.91 -1.625 3.25 C-1.625 2.92 -1.625 2.59 -1.625 2.25 C-8.66707705 2.9687807 -8.66707705 2.9687807 -15.625 4.25 C-14.625 2.25 -14.625 2.25 -12.6640625 1.140625 C-8.41463632 -0.10470812 -4.40409191 -0.0400372 0 0 Z " fill="#743426" transform="translate(360.625,161.75)"/>
<path d="M0 0 C-0.6171875 1.953125 -0.6171875 1.953125 -2 4 C-4.8203125 4.609375 -4.8203125 4.609375 -8.125 4.75 C-9.22070312 4.80671875 -10.31640625 4.8634375 -11.4453125 4.921875 C-12.28835937 4.94765625 -13.13140625 4.9734375 -14 5 C-14.33 4.01 -14.66 3.02 -15 2 C-12.87707704 1.47076428 -10.75157949 0.95184623 -8.625 0.4375 C-7.44164062 0.14746094 -6.25828125 -0.14257812 -5.0390625 -0.44140625 C-2 -1 -2 -1 0 0 Z " fill="#9C5442" transform="translate(259,315)"/>
<path d="M0 0 C0.33 0 0.66 0 1 0 C0.67 4.62 0.34 9.24 0 14 C-0.99 13.67 -1.98 13.34 -3 13 C-3.33 13.66 -3.66 14.32 -4 15 C-4.66 15 -5.32 15 -6 15 C-6.33 14.01 -6.66 13.02 -7 12 C-6.01 11.67 -5.02 11.34 -4 11 C-3.26733263 8.95811462 -3.26733263 8.95811462 -2.9375 6.5625 C-2.2027027 2.2027027 -2.2027027 2.2027027 0 0 Z " fill="#9D5042" transform="translate(280,298)"/>
<path d="M0 0 C0.66 0 1.32 0 2 0 C2 0.99 2 1.98 2 3 C1.01 3.495 1.01 3.495 0 4 C0 4.66 0 5.32 0 6 C-0.99 6.33 -1.98 6.66 -3 7 C-3.69937532 8.31647119 -4.36729133 9.65022151 -5 11 C-5.99 11.495 -5.99 11.495 -7 12 C-7 11.34 -7 10.68 -7 10 C-7.99 10 -8.98 10 -10 10 C-9.67 9.01 -9.34 8.02 -9 7 C-7.66666667 6.33333333 -6.33333333 5.66666667 -5 5 C-4.13375 4.13375 -3.2675 3.2675 -2.375 2.375 C-1.59125 1.59125 -0.8075 0.8075 0 0 Z " fill="#9B422E" transform="translate(276,147)"/>
<path d="M0 0 C1.7325 0.928125 1.7325 0.928125 3.5 1.875 C10.76458438 5.48180242 17.9744633 6.37506067 26 7 C26 7.33 26 7.66 26 8 C8.26091954 8.84137931 8.26091954 8.84137931 2 4 C0.76953125 1.859375 0.76953125 1.859375 0 0 Z " fill="#5D281F" transform="translate(253,349)"/>
<path d="M0 0 C1.12377697 3.30435084 0.89554742 5.0506862 -0.4375 8.25 C-0.72496094 8.95640625 -1.01242187 9.6628125 -1.30859375 10.390625 C-1.53675781 10.92171875 -1.76492188 11.4528125 -2 12 C0.31 12.33 2.62 12.66 5 13 C5 13.66 5 14.32 5 15 C6.65 15.33 8.3 15.66 10 16 C10 16.66 10 17.32 10 18 C5.1008651 16.70022952 0.62440425 15.07626313 -4 13 C-3.50269348 8.02693484 -2.44697666 4.36200187 0 0 Z " fill="#A96556" transform="translate(325,226)"/>
<path d="M0 0 C0.33 0.99 0.66 1.98 1 3 C-0.29296875 4.83203125 -0.29296875 4.83203125 -2.1875 6.8125 C-4.45930909 9.26045333 -6.49792173 11.59294939 -8.25 14.4375 C-10 17 -10 17 -13 18 C-11.61462414 13.99461279 -9.74583305 11.14296986 -7.0625 7.875 C-6.37285156 7.02679688 -5.68320313 6.17859375 -4.97265625 5.3046875 C-3.37914083 3.44295662 -1.76674046 1.69474163 0 0 Z " fill="#F8E6E1" transform="translate(195,197)"/>
<path d="M0 0 C0.66 0.33 1.32 0.66 2 1 C1.67 1.66 1.34 2.32 1 3 C2.65 3 4.3 3 6 3 C6 3.99 6 4.98 6 6 C0.74285714 10 0.74285714 10 -2 10 C-1.42415568 7.61435923 -0.77772405 5.33317216 0 3 C-1.32 3.33 -2.64 3.66 -4 4 C-2.68 2.68 -1.36 1.36 0 0 Z " fill="#713022" transform="translate(265,154)"/>
<path d="M0 0 C0.86625 0.15726562 1.7325 0.31453125 2.625 0.4765625 C5.48039158 1.55672708 6.41380137 2.81829826 8 5.375 C7.01 5.87 7.01 5.87 6 6.375 C6 5.715 6 5.055 6 4.375 C5.2575 4.41625 4.515 4.4575 3.75 4.5 C0.86941035 4.36906411 -0.50345008 3.70649329 -3 2.375 C-3.99 2.375 -4.98 2.375 -6 2.375 C-6.66 3.695 -7.32 5.015 -8 6.375 C-8.66 6.045 -9.32 5.715 -10 5.375 C-7.78231574 0.25726708 -5.45934742 -1.08861987 0 0 Z " fill="#773B2C" transform="translate(245,343.625)"/>
<path d="M0 0 C2.0625 0.4375 2.0625 0.4375 4 1 C4 3.64 4 6.28 4 9 C2.35 9 0.7 9 -1 9 C-1.09765625 2.84765625 -1.09765625 2.84765625 -1 1 C-0.67 0.67 -0.34 0.34 0 0 Z " fill="#6E362B" transform="translate(286,139)"/>
<path d="M0 0 C2.04242247 3.38505078 2.29778231 6.07528309 2.3125 10 C2.33763672 11.546875 2.33763672 11.546875 2.36328125 13.125 C1.96081368 16.31011968 1.13430263 17.65733538 -1 20 C-1.66 19.67 -2.32 19.34 -3 19 C-2.5359375 17.081875 -2.5359375 17.081875 -2.0625 15.125 C-0.93885167 10.11241278 -0.40577419 5.11489044 0 0 Z " fill="#994331" transform="translate(417,267)"/>
<path d="M0 0 C-3.02272532 3.25524265 -6.25718301 5.61820737 -10 8 C-10.33 6.35 -10.66 4.7 -11 3 C-7.48550811 -0.37391222 -4.73940561 -0.27342725 0 0 Z " fill="#833C2D" transform="translate(296,366)"/>
<path d="M0 0 C0.33 0 0.66 0 1 0 C1 11.55 1 23.1 1 35 C-0.485 35.495 -0.485 35.495 -2 36 C-2 35.01 -2 34.02 -2 33 C-1.34 33 -0.68 33 0 33 C0 22.11 0 11.22 0 0 Z " fill="#F4D9D0" transform="translate(414,251)"/>
<path d="M0 0 C0 0.33 0 0.66 0 1 C-2.68637768 1.36563746 -5.37342859 1.71774726 -8.0625 2.0625 C-8.81466797 2.16626953 -9.56683594 2.27003906 -10.34179688 2.37695312 C-15.15670542 2.98142216 -19.22864273 2.90611433 -24 2 C-24 1.67 -24 1.34 -24 1 C-15.83190274 -0.68166708 -8.24567212 -2.06141803 0 0 Z " fill="#E26158" transform="translate(202,322)"/>
<path d="M0 0 C2.97 0.33 5.94 0.66 9 1 C9 1.66 9 2.32 9 3 C9.66 3 10.32 3 11 3 C11 3.66 11 4.32 11 5 C13.64 5 16.28 5 19 5 C19 5.33 19 5.66 19 6 C11.29711007 6.6212008 6.6276327 4.8741903 0 1 C0 0.67 0 0.34 0 0 Z " fill="#A86658" transform="translate(235,298)"/>
<path d="M0 0 C3.86295574 6.94682798 4.29432871 15.20028921 4 23 C3.67 23 3.34 23 3 23 C3 20.69 3 18.38 3 16 C2.34 16 1.68 16 1 16 C0.814375 14.14375 0.814375 14.14375 0.625 12.25 C0.31938369 9.65910352 0.04250554 8.08053681 -1.1875 5.75 C-1.455625 5.1725 -1.72375 4.595 -2 4 C-1.125 1.75 -1.125 1.75 0 0 Z " fill="#672C1E" transform="translate(280,231)"/>
<path d="M0 0 C0.33 1.32 0.66 2.64 1 4 C-0.24420647 4.5345256 -1.49570936 5.05208611 -2.75 5.5625 C-3.44609375 5.85253906 -4.1421875 6.14257812 -4.859375 6.44140625 C-7.30012784 7.07831803 -8.6403655 6.80248831 -11 6 C-11 5.34 -11 4.68 -11 4 C-9.88625 3.525625 -8.7725 3.05125 -7.625 2.5625 C-1.68 0 -1.68 0 0 0 Z " fill="#A64A38" transform="translate(285,370)"/>
<path d="M0 0 C2.75059381 -0.08107646 5.49879021 -0.14052813 8.25 -0.1875 C9.02730469 -0.21263672 9.80460938 -0.23777344 10.60546875 -0.26367188 C16.42997175 -0.33834499 16.42997175 -0.33834499 19.546875 1.51171875 C20.02640625 2.00285156 20.5059375 2.49398438 21 3 C18.24915453 2.88588196 15.49988053 2.75914051 12.75 2.625 C11.97269531 2.5940625 11.19539062 2.563125 10.39453125 2.53125 C3.27568856 2.16618114 3.27568856 2.16618114 0 0 Z " fill="#91392B" transform="translate(212,321)"/>
<path d="M0 0 C1.134375 0.020625 2.26875 0.04125 3.4375 0.0625 C3.4375 0.7225 3.4375 1.3825 3.4375 2.0625 C4.0975 2.3925 4.7575 2.7225 5.4375 3.0625 C1.8075 3.7225 -1.8225 4.3825 -5.5625 5.0625 C-4.31580396 0.07571586 -4.31580396 0.07571586 0 0 Z " fill="#81372A" transform="translate(262.5625,313.9375)"/>
<path d="M0 0 C6 8 6 8 6 13 C4.02 12.34 2.04 11.68 0 11 C0 7.37 0 3.74 0 0 Z " fill="#703224" transform="translate(403,195)"/>
<path d="M0 0 C1.299375 0.2475 1.299375 0.2475 2.625 0.5 C2.625 2.15 2.625 3.8 2.625 5.5 C2.295 4.51 1.965 3.52 1.625 2.5 C-1.90872712 4.46318174 -4.61979785 6.54070881 -7.375 9.5 C-8.035 9.17 -8.695 8.84 -9.375 8.5 C-4.43845733 0.65754923 -4.43845733 0.65754923 0 0 Z " fill="#773327" transform="translate(276.375,144.5)"/>
<path d="M0 0 C0.80244141 0.04833984 1.60488281 0.09667969 2.43164062 0.14648438 C3.68170898 0.2305957 3.68170898 0.2305957 4.95703125 0.31640625 C6.22450195 0.3947168 6.22450195 0.3947168 7.51757812 0.47460938 C9.60189424 0.60414314 11.68576307 0.74083802 13.76953125 0.87890625 C13.76953125 1.20890625 13.76953125 1.53890625 13.76953125 1.87890625 C-1.56195097 4.10894003 -1.56195097 4.10894003 -7.23046875 0.87890625 C-4.35516794 -0.07952735 -2.93996944 -0.18765762 0 0 Z " fill="#9A452E" transform="translate(337.23046875,299.12109375)"/>
<path d="M0 0 C0.66 0.33 1.32 0.66 2 1 C2 2.65 2 4.3 2 6 C-1.75 7.125 -1.75 7.125 -4 6 C-4 6.66 -4 7.32 -4 8 C-5.98 8.99 -5.98 8.99 -8 10 C-6.44303593 6.17836093 -3.96591316 3.81381505 -1 1 C-0.67 0.67 -0.34 0.34 0 0 Z " fill="#713528" transform="translate(343,166)"/>
<path d="M0 0 C0.33 0 0.66 0 1 0 C1 1.65 1 3.3 1 5 C2.32 4.67 3.64 4.34 5 4 C5.04254356 5.99954746 5.04080783 8.00041636 5 10 C4.67 10.33 4.34 10.66 4 11 C3.95936168 12.66617115 3.957279 14.33388095 4 16 C0.44221079 12.44221079 0.04831804 7.35290505 -0.125 2.5 C-0.08375 1.675 -0.0425 0.85 0 0 Z " fill="#733124" transform="translate(235,353)"/>
<path d="M0 0 C0.66 0.33 1.32 0.66 2 1 C2.02721176 2.89575251 2.04649136 4.79161979 2.0625 6.6875 C2.07410156 7.74324219 2.08570313 8.79898437 2.09765625 9.88671875 C2.00865425 12.72410262 1.64939838 15.2438919 1 18 C0.67 18 0.34 18 0 18 C-0.04898437 17.00097656 -0.09796875 16.00195312 -0.1484375 14.97265625 C-0.22320312 13.68230469 -0.29796875 12.39195312 -0.375 11.0625 C-0.44460938 9.77472656 -0.51421875 8.48695313 -0.5859375 7.16015625 C-0.72257812 6.11730469 -0.85921875 5.07445312 -1 4 C-1.66 3.67 -2.32 3.34 -3 3 C-2.01 2.01 -1.02 1.02 0 0 Z " fill="#AE4D4D" transform="translate(419,286)"/>
<path d="M0 0 C1.11761719 0.02707031 1.11761719 0.02707031 2.2578125 0.0546875 C4.08909701 0.10164351 5.91971649 0.17338348 7.75 0.25 C7.75 0.58 7.75 0.91 7.75 1.25 C2.92757156 2.89167777 -1.04602341 3.43062427 -6.13671875 3.22265625 C-8.32692541 3.25099534 -10.15345498 3.63949366 -12.25 4.25 C-8.80209491 -0.3593047 -5.36295954 -0.24635503 0 0 Z " fill="#AA685D" transform="translate(244.25,225.75)"/>
<path d="M0 0 C1.98 0.66 3.96 1.32 6 2 C6.95685425 6.21015871 7.13181214 8.25712373 5 12 C4.16180842 10.37750059 3.3295884 8.75191503 2.5 7.125 C2.0359375 6.22007812 1.571875 5.31515625 1.09375 4.3828125 C0 2 0 2 0 0 Z " fill="#9C5242" transform="translate(403,206)"/>
<path d="M0 0 C1.3950848 2.29778673 2.07438619 3.4792967 1.6875 6.1875 C1 8 1 8 0 9 C-1.66617115 9.04063832 -3.33388095 9.042721 -5 9 C-3.7508258 5.54074837 -2.32472205 2.85306797 0 0 Z " fill="#7A3B29" transform="translate(184,202)"/>
<path d="M0 0 C1.70884005 1.62339805 3.37446717 3.29319053 5 5 C5 5.66 5 6.32 5 7 C5.66 7 6.32 7 7 7 C7.33 8.32 7.66 9.64 8 11 C6.35 10.67 4.7 10.34 3 10 C3 9.34 3 8.68 3 8 C2.34 8 1.68 8 1 8 C1 6.68 1 5.36 1 4 C0.34 3.34 -0.32 2.68 -1 2 C-0.67 1.34 -0.34 0.68 0 0 Z " fill="#773426" transform="translate(264,194)"/>
<path d="M0 0 C-0.66 0.66 -1.32 1.32 -2 2 C-2.99 2 -3.98 2 -5 2 C-5 2.99 -5 3.98 -5 5 C-6.98 5 -8.96 5 -11 5 C-10.625 3.0625 -10.625 3.0625 -10 1 C-6.78548731 -0.60725635 -3.56387464 -0.05748185 0 0 Z " fill="#9A442E" transform="translate(316,353)"/>
<path d="M0 0 C2.97 0.495 2.97 0.495 6 1 C6.0825 1.61875 6.165 2.2375 6.25 2.875 C6.79994195 5.1765144 6.79994195 5.1765144 9 6.125 C9.66 6.41375 10.32 6.7025 11 7 C11.33 7.66 11.66 8.32 12 9 C11.484375 8.731875 10.96875 8.46375 10.4375 8.1875 C7.33598585 6.67650593 4.17737194 5.34427274 1 4 C1 3.34 1 2.68 1 2 C0.01 2.495 0.01 2.495 -1 3 C-0.67 2.01 -0.34 1.02 0 0 Z " fill="#A24A3B" transform="translate(239,345)"/>
<path d="M0 0 C0.33 1.32 0.66 2.64 1 4 C0.34 4 -0.32 4 -1 4 C-0.67 7.63 -0.34 11.26 0 15 C-2.79438592 12.47603852 -4.60128869 10.81623682 -5 7 C-4.00390625 5.078125 -4.00390625 5.078125 -2.5625 3.25 C-2.08941406 2.63640625 -1.61632812 2.0228125 -1.12890625 1.390625 C-0.75636719 0.93171875 -0.38382812 0.4728125 0 0 Z " fill="#9A5645" transform="translate(335,266)"/>
<path d="M0 0 C0.99 0 1.98 0 3 0 C3 1.32 3 2.64 3 4 C3.66 4 4.32 4 5 4 C5 5.65 5 7.3 5 9 C4.01 9.33 3.02 9.66 2 10 C0.68373308 6.38026598 0 3.90432869 0 0 Z " fill="#883D2D" transform="translate(413,233)"/>
<path d="M0 0 C0.66 0 1.32 0 2 0 C2 0.66 2 1.32 2 2 C3.65 2.33 5.3 2.66 7 3 C7.625 6.375 7.625 6.375 8 10 C7.34 10.66 6.68 11.32 6 12 C4.02 8.04 2.04 4.08 0 0 Z " fill="#965040" transform="translate(265,202)"/>
<path d="M0 0 C4.24404412 3.88026891 7.10917547 8.04254346 10 13 C9.34 13.66 8.68 14.32 8 15 C7.34 14.67 6.68 14.34 6 14 C6 13.01 6 12.02 6 11 C5.34 10.67 4.68 10.34 4 10 C2.47615729 6.70849974 1.14689643 3.44068928 0 0 Z " fill="#9D5846" transform="translate(349,214)"/>
<path d="M0 0 C0.66 0.99 1.32 1.98 2 3 C0.35 6.3 -1.3 9.6 -3 13 C-3.33 13 -3.66 13 -4 13 C-4.38133299 11.0085944 -4.71325582 9.00720923 -5 7 C-4.67 6.67 -4.34 6.34 -4 6 C-4 5.34 -4 4.68 -4 4 C-3.34 4 -2.68 4 -2 4 C-1.34 2.68 -0.68 1.36 0 0 Z " fill="#9D5441" transform="translate(333,183)"/>
<path d="M0 0 C2.56616632 3.84924948 2.55097676 6.4349304 3 11 C0.69 11 -1.62 11 -4 11 C-3.67 10.34 -3.34 9.68 -3 9 C-2.01 9 -1.02 9 0 9 C0 6.03 0 3.06 0 0 Z " fill="#9F5B4D" transform="translate(269,246)"/>
<path d="M0 0 C6.65116279 2.41860465 6.65116279 2.41860465 8.125 4.875 C7.95088121 7.83501947 6.66686731 9.59971107 5 12 C3.89131683 8.67395049 3.45822468 5.46941546 3 2 C2.01 2 1.02 2 0 2 C0 1.34 0 0.68 0 0 Z " fill="#F8E8DD" transform="translate(336,246)"/>
<path d="M0 0 C3.3125 -0.3125 3.3125 -0.3125 7 0 C9 2.3125 9 2.3125 10 5 C9.67 5.99 9.34 6.98 9 8 C7.68388323 7.04663979 6.37221039 6.08714226 5.0625 5.125 C4.33160156 4.59132812 3.60070312 4.05765625 2.84765625 3.5078125 C1 2 1 2 0 0 Z " fill="#994F3F" transform="translate(256,193)"/>
<path d="M0 0 C0.33 0.66 0.66 1.32 1 2 C0.67 2.66 0.34 3.32 0 4 C0.66 4 1.32 4 2 4 C1.67 4.99 1.34 5.98 1 7 C0.34 7 -0.32 7 -1 7 C-1.33 7.66 -1.66 8.32 -2 9 C-2.33 9.33 -2.66 9.66 -3 10 C-3 10.99 -3 11.98 -3 13 C-3.99 13 -4.98 13 -6 13 C-4.58707905 8.1725201 -2.57025846 4.2837641 0 0 Z " fill="#672F20" transform="translate(333,178)"/>
<path d="M0 0 C-0.99 0.495 -0.99 0.495 -2 1 C-1.67 1.99 -1.34 2.98 -1 4 C-6.61 3.34 -12.22 2.68 -18 2 C-18 1.67 -18 1.34 -18 1 C-11.96445452 0.30739642 -6.07593562 -0.11251733 0 0 Z " fill="#A75F52" transform="translate(374,164)"/>
<path d="M0 0 C-0.33 0.66 -0.66 1.32 -1 2 C-0.67 2.99 -0.34 3.98 0 5 C-3.3 4.34 -6.6 3.68 -10 3 C-9 1 -9 1 -7.25 0.375 C-4.79549443 -0.03408426 -2.4840589 -0.06900164 0 0 Z " fill="#853927" transform="translate(375,300)"/>
<path d="M0 0 C0.33 0 0.66 0 1 0 C0.67 2.97 0.34 5.94 0 9 C-1.32 9 -2.64 9 -4 9 C-2.25 2.25 -2.25 2.25 0 0 Z " fill="#9D5545" transform="translate(229,233)"/>
<path d="M0 0 C0.99 0 1.98 0 3 0 C4.61949011 2.57213134 5.04408751 3.67669159 4.625 6.75 C4.41875 7.4925 4.2125 8.235 4 9 C3.01 8.67 2.02 8.34 1 8 C0.67 5.36 0.34 2.72 0 0 Z " fill="#9A4636" transform="translate(275,226)"/>
<path d="M0 0 C1.7866789 2.68001835 2.9322137 5.03128744 4.125 8 C4.47820312 8.86625 4.83140625 9.7325 5.1953125 10.625 C6 13 6 13 6 16 C5.34 16 4.68 16 4 16 C3.67 13.69 3.34 11.38 3 9 C2.01 9 1.02 9 0 9 C0 6.03 0 3.06 0 0 Z " fill="#59291E" transform="translate(272,205)"/>
<path d="M0 0 C0.66 0 1.32 0 2 0 C3.01866229 1.65532623 4.01810813 3.32260138 5 5 C5.66 5.33 6.32 5.66 7 6 C6.67 6.66 6.34 7.32 6 8 C4.39459341 7.21085079 2.79071984 6.41858235 1.1875 5.625 C0.29417969 5.18414062 -0.59914062 4.74328125 -1.51953125 4.2890625 C-4 3 -4 3 -7 1 C-4.69 1.33 -2.38 1.66 0 2 C0 1.34 0 0.68 0 0 Z " fill="#9E584B" transform="translate(249,185)"/>
<path d="M0 0 C0.66 0.33 1.32 0.66 2 1 C1.505 1.45375 1.01 1.9075 0.5 2.375 C-1.22609337 3.87635519 -1.22609337 3.87635519 -1 6 C-3.64 6 -6.28 6 -9 6 C-6.45368965 3.02930459 -3.57769851 1.5224249 0 0 Z " fill="#743223" transform="translate(209,182)"/>
<path d="M0 0 C0.33 0 0.66 0 1 0 C1.22424141 7.36259293 0.90120099 13.87049629 -1 21 C-2.05078125 19.16015625 -2.05078125 19.16015625 -3 17 C-2.36281399 14.99041337 -1.68836513 12.99263591 -1 11 C-0.5308214 7.3424249 -0.2487297 3.67858135 0 0 Z " fill="#EBCFC5" transform="translate(278,288)"/>
<path d="M0 0 C1.32 0 2.64 0 4 0 C3.54917531 1.46067199 3.08906463 2.91848032 2.625 4.375 C2.36976563 5.18710938 2.11453125 5.99921875 1.8515625 6.8359375 C1 9 1 9 -1 11 C-1.14285714 3.57142857 -1.14285714 3.57142857 0 0 Z " fill="#9B5644" transform="translate(179,211)"/>
<path d="M0 0 C0.99 0.66 1.98 1.32 3 2 C3.1875 4.625 3.1875 4.625 3 7 C2.34 7 1.68 7 1 7 C0.67 8.65 0.34 10.3 0 12 C-0.66 11.67 -1.32 11.34 -2 11 C-1.85892253 9.54119891 -1.71197585 8.08296449 -1.5625 6.625 C-1.48128906 5.81289062 -1.40007812 5.00078125 -1.31640625 4.1640625 C-1 2 -1 2 0 0 Z " fill="#753323" transform="translate(323,199)"/>
<path d="M0 0 C2.475 0.495 2.475 0.495 5 1 C5.38922918 2.28745036 5.76098036 3.58019597 6.125 4.875 C6.33382813 5.59429687 6.54265625 6.31359375 6.7578125 7.0546875 C6.83773438 7.69664062 6.91765625 8.33859375 7 9 C6.34 9.66 5.68 10.32 5 11 C3.35 7.37 1.7 3.74 0 0 Z " fill="#9B5243" transform="translate(395,189)"/>
<path d="M0 0 C0.33 0 0.66 0 1 0 C1.66 3.63 2.32 7.26 3 11 C1.68 11 0.36 11 -1 11 C-2.23076923 4.6 -2.23076923 4.6 -1.0625 1.5625 C-0.711875 1.046875 -0.36125 0.53125 0 0 Z " fill="#A44F3C" transform="translate(240,358)"/>
<path d="M0 0 C3.375 -0.125 3.375 -0.125 7 0 C7.66 0.66 8.32 1.32 9 2 C8.34 2 7.68 2 7 2 C7 2.66 7 3.32 7 4 C4.69 3.67 2.38 3.34 0 3 C0 2.01 0 1.02 0 0 Z " fill="#823A2A" transform="translate(242,183)"/>
<path d="M0 0 C0.33 0 0.66 0 1 0 C1.06058594 0.69867188 1.12117187 1.39734375 1.18359375 2.1171875 C1.26738281 3.02726562 1.35117188 3.93734375 1.4375 4.875 C1.51871094 5.77992188 1.59992188 6.68484375 1.68359375 7.6171875 C1.86989285 10.01110861 1.86989285 10.01110861 3 12 C3.04022391 14.3329866 3.04320247 16.66706666 3 19 C0.04186934 14.56280401 -0.1143157 11.54588583 -0.0625 6.3125 C-0.05347656 5.13300781 -0.04445312 3.95351563 -0.03515625 2.73828125 C-0.02355469 1.83464844 -0.01195312 0.93101562 0 0 Z " fill="#7D2E2F" transform="translate(160,304)"/>
<path d="M0 0 C1.65 0 3.3 0 5 0 C4.67 0.99 4.34 1.98 4 3 C0.71480525 4.09506492 -1.73663415 4.09960608 -5.1875 4.0625 C-6.81751953 4.04896484 -6.81751953 4.04896484 -8.48046875 4.03515625 C-9.31191406 4.02355469 -10.14335937 4.01195312 -11 4 C-11 3.67 -11 3.34 -11 3 C-10.28972656 2.95101563 -9.57945312 2.90203125 -8.84765625 2.8515625 C-7.46900391 2.73941406 -7.46900391 2.73941406 -6.0625 2.625 C-5.14597656 2.55539062 -4.22945313 2.48578125 -3.28515625 2.4140625 C-2.15400391 2.20910156 -2.15400391 2.20910156 -1 2 C-0.67 1.34 -0.34 0.68 0 0 Z " fill="#A6484B" transform="translate(405,315)"/>
<path d="M0 0 C0 0.66 0 1.32 0 2 C-2.52475462 3.26237731 -4.31200466 3.09856404 -7.125 3.0625 C-8.03507812 3.05347656 -8.94515625 3.04445313 -9.8828125 3.03515625 C-10.58148438 3.02355469 -11.28015625 3.01195312 -12 3 C-12 2.34 -12 1.68 -12 1 C-7.915021 0.45533613 -4.1274515 0 0 0 Z " fill="#80382A" transform="translate(347,301)"/>
<path d="M0 0 C2 3 2 3 1.625 5.1875 C1.41875 5.785625 1.2125 6.38375 1 7 C-0.32 7 -1.64 7 -3 7 C-3.33 5.68 -3.66 4.36 -4 3 C-2.68 2.01 -1.36 1.02 0 0 Z " fill="#BB5255" transform="translate(166,290)"/>
<path d="M0 0 C2.97069541 2.54631035 4.4775751 5.42230149 6 9 C5.67 9.66 5.34 10.32 5 11 C4.67 9.68 4.34 8.36 4 7 C3.34 7 2.68 7 2 7 C1.67 7.66 1.34 8.32 1 9 C0.63877119 7.68942607 0.28619689 6.37646376 -0.0625 5.0625 C-0.35833984 3.96615234 -0.35833984 3.96615234 -0.66015625 2.84765625 C-0.77230469 2.23792969 -0.88445312 1.62820312 -1 1 C-0.67 0.67 -0.34 0.34 0 0 Z " fill="#F5E3DB" transform="translate(266,205)"/>
<path d="M0 0 C-0.57584432 2.38564077 -1.22227595 4.66682784 -2 7 C-3.65 7 -5.3 7 -7 7 C-6.34 6.67 -5.68 6.34 -5 6 C-4.835 5.175 -4.67 4.35 -4.5 3.5 C-4.335 2.675 -4.17 1.85 -4 1 C-2 0 -2 0 0 0 Z " fill="#984431" transform="translate(265,157)"/>
<path d="M0 0 C0.66 0.33 1.32 0.66 2 1 C2 1.99 2 2.98 2 4 C-0.8125 4.625 -0.8125 4.625 -4 5 C-4.99 4.34 -5.98 3.68 -7 3 C-5.68 2.34 -4.36 1.68 -3 1 C-3 1.66 -3 2.32 -3 3 C-2.34 3 -1.68 3 -1 3 C-0.67 2.01 -0.34 1.02 0 0 Z " fill="#803727" transform="translate(277,310)"/>
<path d="M0 0 C0.66 0.33 1.32 0.66 2 1 C1.42365861 5.75481646 -0.55068521 8.97048212 -3 13 C-4 10 -4 10 -3.125 7.9375 C-2.75375 7.298125 -2.3825 6.65875 -2 6 C-1.67 5.34 -1.34 4.68 -1 4 C-0.34 4 0.32 4 1 4 C0.67 2.68 0.34 1.36 0 0 Z " fill="#94513F" transform="translate(269,283)"/>
<path d="M0 0 C0.99 0.33 1.98 0.66 3 1 C3 4.63 3 8.26 3 12 C-0.67952474 7.09396701 -0.29124516 5.82490317 0 0 Z " fill="#9F5A4A" transform="translate(319,244)"/>
<path d="M0 0 C0.33 0 0.66 0 1 0 C0.67 3.96 0.34 7.92 0 12 C-0.33 11.34 -0.66 10.68 -1 10 C-1.66 10 -2.32 10 -3 10 C-2.67 7.69 -2.34 5.38 -2 3 C-1.34 3 -0.68 3 0 3 C0 2.01 0 1.02 0 0 Z " fill="#9F5647" transform="translate(323,220)"/>
<path d="M0 0 C0.98484375 0.19464844 1.9696875 0.38929688 2.984375 0.58984375 C4.10585938 0.82380859 4.10585938 0.82380859 5.25 1.0625 C5.25 1.3925 5.25 1.7225 5.25 2.0625 C3.31494977 2.31150646 1.37674066 2.53606242 -0.5625 2.75 C-1.64144531 2.87761719 -2.72039062 3.00523437 -3.83203125 3.13671875 C-6.75 3.0625 -6.75 3.0625 -8.63671875 1.58203125 C-9.00410156 1.08058594 -9.37148437 0.57914062 -9.75 0.0625 C-6.21905698 -1.13970203 -3.62101018 -0.73282349 0 0 Z " fill="#A95443" transform="translate(255.75,378.9375)"/>
<path d="M0 0 C4.62 0 9.24 0 14 0 C13.34 1.65 12.68 3.3 12 5 C11.34 3.68 10.68 2.36 10 1 C6.7 1 3.4 1 0 1 C0 0.67 0 0.34 0 0 Z " fill="#B74C45" transform="translate(211,323)"/>
<path d="M0 0 C0.99 0.33 1.98 0.66 3 1 C2.34 5.29 1.68 9.58 1 14 C0.67 14 0.34 14 0 14 C0.01160156 13.39671875 0.02320313 12.7934375 0.03515625 12.171875 C0.04417969 11.37265625 0.05320313 10.5734375 0.0625 9.75 C0.07410156 8.96109375 0.08570313 8.1721875 0.09765625 7.359375 C0.08082101 4.99765299 0.08082101 4.99765299 -0.56640625 2.765625 C-0.70949219 2.18296875 -0.85257813 1.6003125 -1 1 C-0.67 0.67 -0.34 0.34 0 0 Z " fill="#9C5A48" transform="translate(173,226)"/>
<path d="M0 0 C0.33 0 0.66 0 1 0 C1 1.98 1 3.96 1 6 C1.66 6 2.32 6 3 6 C2.01 8.97 1.02 11.94 0 15 C-0.33 15 -0.66 15 -1 15 C-0.67 10.05 -0.34 5.1 0 0 Z " fill="#F3D6C8" transform="translate(324,216)"/>
<path d="M0 0 C0.99 0 1.98 0 3 0 C4.19589041 4.78356165 3.52717961 7.41846118 2 12 C1.66430703 10.37548581 1.3315204 8.75037083 1 7.125 C0.814375 6.22007812 0.62875 5.31515625 0.4375 4.3828125 C0 2 0 2 0 0 Z " fill="#9F594C" transform="translate(272,214)"/>
<path d="M0 0 C1.8871875 0.0309375 1.8871875 0.0309375 3.8125 0.0625 C0.94950494 2.92549506 -0.84602284 3.05671225 -4.875 3.125 C-5.968125 3.104375 -7.06125 3.08375 -8.1875 3.0625 C-6.45706736 -0.39836529 -3.47359009 -0.0569441 0 0 Z " fill="#974335" transform="translate(357.1875,162.9375)"/>
<path d="M0 0 C0.33 0 0.66 0 1 0 C1.25 6.625 1.25 6.625 -1 10 C-2 9 -2 9 -2.1875 5.5625 C-2 2 -2 2 0 0 Z " fill="#984330" transform="translate(280,298)"/>
<path d="M0 0 C-0.66 0 -1.32 0 -2 0 C-2 0.66 -2 1.32 -2 2 C-5.63 2 -9.26 2 -13 2 C-8.7920942 -0.80527053 -4.85771358 -1.68151624 0 0 Z " fill="#A96958" transform="translate(387,297)"/>
<path d="M0 0 C1 3 1 3 0.375 5.5 C-1.28533352 8.51878821 -2.95894512 9.47947256 -6 11 C-4.54955729 6.89041233 -2.48889248 3.56741255 0 0 Z " fill="#9B5347" transform="translate(342,255)"/>
<path d="M0 0 C0.99 1.485 0.99 1.485 2 3 C2.66 2.67 3.32 2.34 4 2 C4.08226668 5.04386724 3.97608217 7.07175348 3 10 C2.34 10 1.68 10 1 10 C-0.1577506 6.52674819 -0.06866652 3.63932552 0 0 Z " fill="#985141" transform="translate(277,234)"/>
<path d="M0 0 C2.83597257 5.57971839 3.10375377 9.77477369 3 16 C2.67 16 2.34 16 2 16 C0.13216954 10.51324804 -0.2358396 5.77807024 0 0 Z " fill="#E6C6BE" transform="translate(411,229)"/>
<path d="M0 0 C1.03125 0.165 2.0625 0.33 3.125 0.5 C6.48244326 0.93321848 9.62336157 1.08235703 13 1 C13 1.33 13 1.66 13 2 C8.05 2.66 3.1 3.32 -2 4 C-1.34 2.68 -0.68 1.36 0 0 Z " fill="#622B23" transform="translate(244,318)"/>
<path d="M0 0 C0.33 0 0.66 0 1 0 C1.08096803 1.45742463 1.13917774 2.91612807 1.1875 4.375 C1.22230469 5.18710938 1.25710938 5.99921875 1.29296875 6.8359375 C1.19628906 7.55007812 1.09960938 8.26421875 1 9 C0.01 9.66 -0.98 10.32 -2 11 C-2 8.69 -2 6.38 -2 4 C-1.34 4 -0.68 4 0 4 C0 2.68 0 1.36 0 0 Z " fill="#7E3827" transform="translate(418,245)"/>
<path d="M0 0 C3.3 1.65 6.6 3.3 10 5 C10 5.33 10 5.66 10 6 C6.47730515 6.4025937 5.20059192 6.13372795 2.1875 4.125 C1.465625 3.42375 0.74375 2.7225 0 2 C0 1.34 0 0.68 0 0 Z " fill="#6F3227" transform="translate(253,349)"/>
<path d="M0 0 C0.99 0.33 1.98 0.66 3 1 C2.67 4.3 2.34 7.6 2 11 C1.67 11 1.34 11 1 11 C0.67 7.37 0.34 3.74 0 0 Z " fill="#9C513E" transform="translate(323,205)"/>
<path d="M0 0 C0.66 0.33 1.32 0.66 2 1 C1.525625 1.598125 1.05125 2.19625 0.5625 2.8125 C-1.16465744 5.00382924 -1.16465744 5.00382924 -2 8 C-3.32 7.34 -4.64 6.68 -6 6 C-4.02 4.02 -2.04 2.04 0 0 Z " fill="#672E22" transform="translate(198,188)"/>
<path d="M0 0 C0.66 0.33 1.32 0.66 2 1 C0.02 2.98 -1.96 4.96 -4 7 C-5.32 6.34 -6.64 5.68 -8 5 C-6.20963542 3.99088542 -4.41927083 2.98177083 -2.62890625 1.97265625 C-1.02121854 1.1027487 -1.02121854 1.1027487 0 0 Z " fill="#F7E5E2" transform="translate(204,190)"/>
<path d="M0 0 C5.875 3.75 5.875 3.75 7 6 C4.69 5.67 2.38 5.34 0 5 C-0.33 4.01 -0.66 3.02 -1 2 C-0.67 1.34 -0.34 0.68 0 0 Z " fill="#6A2C22" transform="translate(379,166)"/>
<path d="M0 0 C0 0.66 0 1.32 0 2 C0.66 2.33 1.32 2.66 2 3 C-1.76624671 4.25541557 -3.37188934 3.37061958 -7 2 C-4 0 -4 0 0 0 Z " fill="#9E4432" transform="translate(268,379)"/>
<path d="M0 0 C1.32 0 2.64 0 4 0 C4.33 2.64 4.66 5.28 5 8 C4.34 8 3.68 8 3 8 C0 2.25 0 2.25 0 0 Z " fill="#6B2F23" transform="translate(239,369)"/>
<path d="M0 0 C0.8971875 0.309375 0.8971875 0.309375 1.8125 0.625 C1.8125 0.955 1.8125 1.285 1.8125 1.625 C0.636875 1.74875 0.636875 1.74875 -0.5625 1.875 C-3.33499104 2.35306339 -3.33499104 2.35306339 -4.5 4.6875 C-4.8403125 5.6465625 -4.8403125 5.6465625 -5.1875 6.625 C-5.8475 6.295 -6.5075 5.965 -7.1875 5.625 C-5.69046729 2.17030914 -4.27938051 -0.73360809 0 0 Z " fill="#4E281D" transform="translate(242.1875,343.375)"/>
<path d="M0 0 C-4.95 2.475 -4.95 2.475 -10 5 C-9.67 3.68 -9.34 2.36 -9 1 C-5.3931275 -0.64661571 -3.8148779 -1.27162597 0 0 Z " fill="#9B5042" transform="translate(260,260)"/>
<path d="M0 0 C0.33 1.32 0.66 2.64 1 4 C1.66 4 2.32 4 3 4 C3 6.31 3 8.62 3 11 C2.34 11 1.68 11 1 11 C0.67 7.37 0.34 3.74 0 0 Z " fill="#8A442D" transform="translate(319,226)"/>
<path d="M0 0 C3.39417765 3.12621626 5.6062718 5.56541027 7 10 C2.78577758 7.11658466 1.23924145 4.95696581 0 0 Z " fill="#9C5A4C" transform="translate(260,232)"/>
<path d="M0 0 C0.66 0 1.32 0 2 0 C2 0.66 2 1.32 2 2 C1.01 2.495 1.01 2.495 0 3 C-0.65213292 5.02463255 -0.65213292 5.02463255 -1 7 C-2.32 6.67 -3.64 6.34 -5 6 C-4.67 5.34 -4.34 4.68 -4 4 C-3.34 4 -2.68 4 -2 4 C-1.34 2.68 -0.68 1.36 0 0 Z " fill="#6B2D20" transform="translate(190,195)"/>
<path d="M0 0 C1.98 0 3.96 0 6 0 C6.6875 1.8125 6.6875 1.8125 7 4 C5.5625 5.75 5.5625 5.75 4 7 C4 5.02 4 3.04 4 1 C2.68 0.67 1.36 0.34 0 0 Z " fill="#5A2721" transform="translate(275,144)"/>
<path d="M0 0 C2.64 1.65 5.28 3.3 8 5 C4.86650268 6.04449911 4.01031744 5.93423645 1 5 C0.67 3.35 0.34 1.7 0 0 Z " fill="#9F5648" transform="translate(257,274)"/>
<path d="M0 0 C0.99 0 1.98 0 3 0 C3 0.66 3 1.32 3 2 C4.65 2.33 6.3 2.66 8 3 C7.67 3.99 7.34 4.98 7 6 C3.535 4.02 3.535 4.02 0 2 C0 1.34 0 0.68 0 0 Z " fill="#9B5747" transform="translate(336,244)"/>
<path d="M0 0 C1.65 0 3.3 0 5 0 C5.33 1.32 5.66 2.64 6 4 C3.83125748 3.49396008 2.00032373 3.00016187 0 2 C0 1.34 0 0.68 0 0 Z " fill="#A24027" transform="translate(246,348)"/>
<path d="M0 0 C0.99 0.33 1.98 0.66 3 1 C3 3.64 3 6.28 3 9 C2.67 7.68 2.34 6.36 2 5 C1.34 5 0.68 5 0 5 C0 3.35 0 1.7 0 0 Z " fill="#904634" transform="translate(321,210)"/>
</svg>
